G04 #@! TF.GenerationSoftware,KiCad,Pcbnew,5.1.10-88a1d61d58~90~ubuntu20.04.1*
G04 #@! TF.CreationDate,2021-10-18T20:01:28+01:00*
G04 #@! TF.ProjectId,GPS Hardware,47505320-4861-4726-9477-6172652e6b69,rev?*
G04 #@! TF.SameCoordinates,Original*
G04 #@! TF.FileFunction,Paste,Top*
G04 #@! TF.FilePolarity,Positive*
%FSLAX46Y46*%
G04 Gerber Fmt 4.6, Leading zero omitted, Abs format (unit mm)*
G04 Created by KiCad (PCBNEW 5.1.10-88a1d61d58~90~ubuntu20.04.1) date 2021-10-18 20:01:28*
%MOMM*%
%LPD*%
G01*
G04 APERTURE LIST*
%ADD10C,0.010000*%
%ADD11R,0.800000X1.140000*%
%ADD12R,0.700000X2.100000*%
%ADD13R,0.500000X2.000000*%
%ADD14R,0.550000X1.600000*%
%ADD15R,1.600000X0.550000*%
%ADD16R,0.410000X1.570000*%
%ADD17R,0.450000X0.700000*%
%ADD18R,0.900000X0.800000*%
%ADD19R,1.050000X1.050000*%
%ADD20R,1.550000X0.750000*%
%ADD21R,0.750000X1.550000*%
%ADD22R,0.600000X1.450000*%
%ADD23R,0.300000X1.450000*%
%ADD24R,2.000000X4.500000*%
%ADD25R,3.500000X1.500000*%
%ADD26R,0.200000X0.800000*%
%ADD27R,0.800000X0.200000*%
%ADD28R,0.860000X0.270000*%
%ADD29R,0.270000X0.860000*%
%ADD30R,1.800000X1.100000*%
G04 APERTURE END LIST*
D10*
G36*
X108465000Y-69405000D02*
G01*
X108467617Y-69404931D01*
X108470226Y-69404726D01*
X108472822Y-69404384D01*
X108475396Y-69403907D01*
X108477941Y-69403296D01*
X108480451Y-69402553D01*
X108482918Y-69401679D01*
X108485337Y-69400677D01*
X108487700Y-69399550D01*
X108490000Y-69398301D01*
X108492232Y-69396934D01*
X108494389Y-69395451D01*
X108496466Y-69393857D01*
X108498457Y-69392157D01*
X108500355Y-69390355D01*
X108502157Y-69388457D01*
X108503857Y-69386466D01*
X108505451Y-69384389D01*
X108506934Y-69382232D01*
X108508301Y-69380000D01*
X108509550Y-69377700D01*
X108510677Y-69375337D01*
X108511679Y-69372918D01*
X108512553Y-69370451D01*
X108513296Y-69367941D01*
X108513907Y-69365396D01*
X108514384Y-69362822D01*
X108514726Y-69360226D01*
X108514931Y-69357617D01*
X108515000Y-69355000D01*
X108515000Y-69245000D01*
X108514931Y-69242383D01*
X108514726Y-69239774D01*
X108514384Y-69237178D01*
X108513907Y-69234604D01*
X108513296Y-69232059D01*
X108512553Y-69229549D01*
X108511679Y-69227082D01*
X108510677Y-69224663D01*
X108509550Y-69222300D01*
X108508301Y-69220000D01*
X108506934Y-69217768D01*
X108505451Y-69215611D01*
X108503857Y-69213534D01*
X108502157Y-69211543D01*
X108500355Y-69209645D01*
X108498457Y-69207843D01*
X108496466Y-69206143D01*
X108494389Y-69204549D01*
X108492232Y-69203066D01*
X108490000Y-69201699D01*
X108487700Y-69200450D01*
X108485337Y-69199323D01*
X108482918Y-69198321D01*
X108480451Y-69197447D01*
X108477941Y-69196704D01*
X108475396Y-69196093D01*
X108472822Y-69195616D01*
X108470226Y-69195274D01*
X108467617Y-69195069D01*
X108465000Y-69195000D01*
X108355000Y-69195000D01*
X108352383Y-69195069D01*
X108349774Y-69195274D01*
X108347178Y-69195616D01*
X108344604Y-69196093D01*
X108342059Y-69196704D01*
X108339549Y-69197447D01*
X108337082Y-69198321D01*
X108334663Y-69199323D01*
X108332300Y-69200450D01*
X108330000Y-69201699D01*
X108327768Y-69203066D01*
X108325611Y-69204549D01*
X108323534Y-69206143D01*
X108321543Y-69207843D01*
X108319645Y-69209645D01*
X108317843Y-69211543D01*
X108316143Y-69213534D01*
X108314549Y-69215611D01*
X108313066Y-69217768D01*
X108311699Y-69220000D01*
X108310450Y-69222300D01*
X108309323Y-69224663D01*
X108308321Y-69227082D01*
X108307447Y-69229549D01*
X108306704Y-69232059D01*
X108306093Y-69234604D01*
X108305616Y-69237178D01*
X108305274Y-69239774D01*
X108305069Y-69242383D01*
X108305000Y-69245000D01*
X108305000Y-69355000D01*
X108305069Y-69357617D01*
X108305274Y-69360226D01*
X108305616Y-69362822D01*
X108306093Y-69365396D01*
X108306704Y-69367941D01*
X108307447Y-69370451D01*
X108308321Y-69372918D01*
X108309323Y-69375337D01*
X108310450Y-69377700D01*
X108311699Y-69380000D01*
X108313066Y-69382232D01*
X108314549Y-69384389D01*
X108316143Y-69386466D01*
X108317843Y-69388457D01*
X108319645Y-69390355D01*
X108321543Y-69392157D01*
X108323534Y-69393857D01*
X108325611Y-69395451D01*
X108327768Y-69396934D01*
X108330000Y-69398301D01*
X108332300Y-69399550D01*
X108334663Y-69400677D01*
X108337082Y-69401679D01*
X108339549Y-69402553D01*
X108342059Y-69403296D01*
X108344604Y-69403907D01*
X108347178Y-69404384D01*
X108349774Y-69404726D01*
X108352383Y-69404931D01*
X108355000Y-69405000D01*
X108465000Y-69405000D01*
G37*
X108465000Y-69405000D02*
X108467617Y-69404931D01*
X108470226Y-69404726D01*
X108472822Y-69404384D01*
X108475396Y-69403907D01*
X108477941Y-69403296D01*
X108480451Y-69402553D01*
X108482918Y-69401679D01*
X108485337Y-69400677D01*
X108487700Y-69399550D01*
X108490000Y-69398301D01*
X108492232Y-69396934D01*
X108494389Y-69395451D01*
X108496466Y-69393857D01*
X108498457Y-69392157D01*
X108500355Y-69390355D01*
X108502157Y-69388457D01*
X108503857Y-69386466D01*
X108505451Y-69384389D01*
X108506934Y-69382232D01*
X108508301Y-69380000D01*
X108509550Y-69377700D01*
X108510677Y-69375337D01*
X108511679Y-69372918D01*
X108512553Y-69370451D01*
X108513296Y-69367941D01*
X108513907Y-69365396D01*
X108514384Y-69362822D01*
X108514726Y-69360226D01*
X108514931Y-69357617D01*
X108515000Y-69355000D01*
X108515000Y-69245000D01*
X108514931Y-69242383D01*
X108514726Y-69239774D01*
X108514384Y-69237178D01*
X108513907Y-69234604D01*
X108513296Y-69232059D01*
X108512553Y-69229549D01*
X108511679Y-69227082D01*
X108510677Y-69224663D01*
X108509550Y-69222300D01*
X108508301Y-69220000D01*
X108506934Y-69217768D01*
X108505451Y-69215611D01*
X108503857Y-69213534D01*
X108502157Y-69211543D01*
X108500355Y-69209645D01*
X108498457Y-69207843D01*
X108496466Y-69206143D01*
X108494389Y-69204549D01*
X108492232Y-69203066D01*
X108490000Y-69201699D01*
X108487700Y-69200450D01*
X108485337Y-69199323D01*
X108482918Y-69198321D01*
X108480451Y-69197447D01*
X108477941Y-69196704D01*
X108475396Y-69196093D01*
X108472822Y-69195616D01*
X108470226Y-69195274D01*
X108467617Y-69195069D01*
X108465000Y-69195000D01*
X108355000Y-69195000D01*
X108352383Y-69195069D01*
X108349774Y-69195274D01*
X108347178Y-69195616D01*
X108344604Y-69196093D01*
X108342059Y-69196704D01*
X108339549Y-69197447D01*
X108337082Y-69198321D01*
X108334663Y-69199323D01*
X108332300Y-69200450D01*
X108330000Y-69201699D01*
X108327768Y-69203066D01*
X108325611Y-69204549D01*
X108323534Y-69206143D01*
X108321543Y-69207843D01*
X108319645Y-69209645D01*
X108317843Y-69211543D01*
X108316143Y-69213534D01*
X108314549Y-69215611D01*
X108313066Y-69217768D01*
X108311699Y-69220000D01*
X108310450Y-69222300D01*
X108309323Y-69224663D01*
X108308321Y-69227082D01*
X108307447Y-69229549D01*
X108306704Y-69232059D01*
X108306093Y-69234604D01*
X108305616Y-69237178D01*
X108305274Y-69239774D01*
X108305069Y-69242383D01*
X108305000Y-69245000D01*
X108305000Y-69355000D01*
X108305069Y-69357617D01*
X108305274Y-69360226D01*
X108305616Y-69362822D01*
X108306093Y-69365396D01*
X108306704Y-69367941D01*
X108307447Y-69370451D01*
X108308321Y-69372918D01*
X108309323Y-69375337D01*
X108310450Y-69377700D01*
X108311699Y-69380000D01*
X108313066Y-69382232D01*
X108314549Y-69384389D01*
X108316143Y-69386466D01*
X108317843Y-69388457D01*
X108319645Y-69390355D01*
X108321543Y-69392157D01*
X108323534Y-69393857D01*
X108325611Y-69395451D01*
X108327768Y-69396934D01*
X108330000Y-69398301D01*
X108332300Y-69399550D01*
X108334663Y-69400677D01*
X108337082Y-69401679D01*
X108339549Y-69402553D01*
X108342059Y-69403296D01*
X108344604Y-69403907D01*
X108347178Y-69404384D01*
X108349774Y-69404726D01*
X108352383Y-69404931D01*
X108355000Y-69405000D01*
X108465000Y-69405000D01*
G36*
X108165000Y-69065000D02*
G01*
X108167617Y-69064931D01*
X108170226Y-69064726D01*
X108172822Y-69064384D01*
X108175396Y-69063907D01*
X108177941Y-69063296D01*
X108180451Y-69062553D01*
X108182918Y-69061679D01*
X108185337Y-69060677D01*
X108187700Y-69059550D01*
X108190000Y-69058301D01*
X108192232Y-69056934D01*
X108194389Y-69055451D01*
X108196466Y-69053857D01*
X108198457Y-69052157D01*
X108200355Y-69050355D01*
X108202157Y-69048457D01*
X108203857Y-69046466D01*
X108205451Y-69044389D01*
X108206934Y-69042232D01*
X108208301Y-69040000D01*
X108209550Y-69037700D01*
X108210677Y-69035337D01*
X108211679Y-69032918D01*
X108212553Y-69030451D01*
X108213296Y-69027941D01*
X108213907Y-69025396D01*
X108214384Y-69022822D01*
X108214726Y-69020226D01*
X108214931Y-69017617D01*
X108215000Y-69015000D01*
X108215000Y-68905000D01*
X108214931Y-68902383D01*
X108214726Y-68899774D01*
X108214384Y-68897178D01*
X108213907Y-68894604D01*
X108213296Y-68892059D01*
X108212553Y-68889549D01*
X108211679Y-68887082D01*
X108210677Y-68884663D01*
X108209550Y-68882300D01*
X108208301Y-68880000D01*
X108206934Y-68877768D01*
X108205451Y-68875611D01*
X108203857Y-68873534D01*
X108202157Y-68871543D01*
X108200355Y-68869645D01*
X108198457Y-68867843D01*
X108196466Y-68866143D01*
X108194389Y-68864549D01*
X108192232Y-68863066D01*
X108190000Y-68861699D01*
X108187700Y-68860450D01*
X108185337Y-68859323D01*
X108182918Y-68858321D01*
X108180451Y-68857447D01*
X108177941Y-68856704D01*
X108175396Y-68856093D01*
X108172822Y-68855616D01*
X108170226Y-68855274D01*
X108167617Y-68855069D01*
X108165000Y-68855000D01*
X108055000Y-68855000D01*
X108052383Y-68855069D01*
X108049774Y-68855274D01*
X108047178Y-68855616D01*
X108044604Y-68856093D01*
X108042059Y-68856704D01*
X108039549Y-68857447D01*
X108037082Y-68858321D01*
X108034663Y-68859323D01*
X108032300Y-68860450D01*
X108030000Y-68861699D01*
X108027768Y-68863066D01*
X108025611Y-68864549D01*
X108023534Y-68866143D01*
X108021543Y-68867843D01*
X108019645Y-68869645D01*
X108017843Y-68871543D01*
X108016143Y-68873534D01*
X108014549Y-68875611D01*
X108013066Y-68877768D01*
X108011699Y-68880000D01*
X108010450Y-68882300D01*
X108009323Y-68884663D01*
X108008321Y-68887082D01*
X108007447Y-68889549D01*
X108006704Y-68892059D01*
X108006093Y-68894604D01*
X108005616Y-68897178D01*
X108005274Y-68899774D01*
X108005069Y-68902383D01*
X108005000Y-68905000D01*
X108005000Y-69015000D01*
X108005069Y-69017617D01*
X108005274Y-69020226D01*
X108005616Y-69022822D01*
X108006093Y-69025396D01*
X108006704Y-69027941D01*
X108007447Y-69030451D01*
X108008321Y-69032918D01*
X108009323Y-69035337D01*
X108010450Y-69037700D01*
X108011699Y-69040000D01*
X108013066Y-69042232D01*
X108014549Y-69044389D01*
X108016143Y-69046466D01*
X108017843Y-69048457D01*
X108019645Y-69050355D01*
X108021543Y-69052157D01*
X108023534Y-69053857D01*
X108025611Y-69055451D01*
X108027768Y-69056934D01*
X108030000Y-69058301D01*
X108032300Y-69059550D01*
X108034663Y-69060677D01*
X108037082Y-69061679D01*
X108039549Y-69062553D01*
X108042059Y-69063296D01*
X108044604Y-69063907D01*
X108047178Y-69064384D01*
X108049774Y-69064726D01*
X108052383Y-69064931D01*
X108055000Y-69065000D01*
X108165000Y-69065000D01*
G37*
X108165000Y-69065000D02*
X108167617Y-69064931D01*
X108170226Y-69064726D01*
X108172822Y-69064384D01*
X108175396Y-69063907D01*
X108177941Y-69063296D01*
X108180451Y-69062553D01*
X108182918Y-69061679D01*
X108185337Y-69060677D01*
X108187700Y-69059550D01*
X108190000Y-69058301D01*
X108192232Y-69056934D01*
X108194389Y-69055451D01*
X108196466Y-69053857D01*
X108198457Y-69052157D01*
X108200355Y-69050355D01*
X108202157Y-69048457D01*
X108203857Y-69046466D01*
X108205451Y-69044389D01*
X108206934Y-69042232D01*
X108208301Y-69040000D01*
X108209550Y-69037700D01*
X108210677Y-69035337D01*
X108211679Y-69032918D01*
X108212553Y-69030451D01*
X108213296Y-69027941D01*
X108213907Y-69025396D01*
X108214384Y-69022822D01*
X108214726Y-69020226D01*
X108214931Y-69017617D01*
X108215000Y-69015000D01*
X108215000Y-68905000D01*
X108214931Y-68902383D01*
X108214726Y-68899774D01*
X108214384Y-68897178D01*
X108213907Y-68894604D01*
X108213296Y-68892059D01*
X108212553Y-68889549D01*
X108211679Y-68887082D01*
X108210677Y-68884663D01*
X108209550Y-68882300D01*
X108208301Y-68880000D01*
X108206934Y-68877768D01*
X108205451Y-68875611D01*
X108203857Y-68873534D01*
X108202157Y-68871543D01*
X108200355Y-68869645D01*
X108198457Y-68867843D01*
X108196466Y-68866143D01*
X108194389Y-68864549D01*
X108192232Y-68863066D01*
X108190000Y-68861699D01*
X108187700Y-68860450D01*
X108185337Y-68859323D01*
X108182918Y-68858321D01*
X108180451Y-68857447D01*
X108177941Y-68856704D01*
X108175396Y-68856093D01*
X108172822Y-68855616D01*
X108170226Y-68855274D01*
X108167617Y-68855069D01*
X108165000Y-68855000D01*
X108055000Y-68855000D01*
X108052383Y-68855069D01*
X108049774Y-68855274D01*
X108047178Y-68855616D01*
X108044604Y-68856093D01*
X108042059Y-68856704D01*
X108039549Y-68857447D01*
X108037082Y-68858321D01*
X108034663Y-68859323D01*
X108032300Y-68860450D01*
X108030000Y-68861699D01*
X108027768Y-68863066D01*
X108025611Y-68864549D01*
X108023534Y-68866143D01*
X108021543Y-68867843D01*
X108019645Y-68869645D01*
X108017843Y-68871543D01*
X108016143Y-68873534D01*
X108014549Y-68875611D01*
X108013066Y-68877768D01*
X108011699Y-68880000D01*
X108010450Y-68882300D01*
X108009323Y-68884663D01*
X108008321Y-68887082D01*
X108007447Y-68889549D01*
X108006704Y-68892059D01*
X108006093Y-68894604D01*
X108005616Y-68897178D01*
X108005274Y-68899774D01*
X108005069Y-68902383D01*
X108005000Y-68905000D01*
X108005000Y-69015000D01*
X108005069Y-69017617D01*
X108005274Y-69020226D01*
X108005616Y-69022822D01*
X108006093Y-69025396D01*
X108006704Y-69027941D01*
X108007447Y-69030451D01*
X108008321Y-69032918D01*
X108009323Y-69035337D01*
X108010450Y-69037700D01*
X108011699Y-69040000D01*
X108013066Y-69042232D01*
X108014549Y-69044389D01*
X108016143Y-69046466D01*
X108017843Y-69048457D01*
X108019645Y-69050355D01*
X108021543Y-69052157D01*
X108023534Y-69053857D01*
X108025611Y-69055451D01*
X108027768Y-69056934D01*
X108030000Y-69058301D01*
X108032300Y-69059550D01*
X108034663Y-69060677D01*
X108037082Y-69061679D01*
X108039549Y-69062553D01*
X108042059Y-69063296D01*
X108044604Y-69063907D01*
X108047178Y-69064384D01*
X108049774Y-69064726D01*
X108052383Y-69064931D01*
X108055000Y-69065000D01*
X108165000Y-69065000D01*
G36*
X108165000Y-69745000D02*
G01*
X108167617Y-69744931D01*
X108170226Y-69744726D01*
X108172822Y-69744384D01*
X108175396Y-69743907D01*
X108177941Y-69743296D01*
X108180451Y-69742553D01*
X108182918Y-69741679D01*
X108185337Y-69740677D01*
X108187700Y-69739550D01*
X108190000Y-69738301D01*
X108192232Y-69736934D01*
X108194389Y-69735451D01*
X108196466Y-69733857D01*
X108198457Y-69732157D01*
X108200355Y-69730355D01*
X108202157Y-69728457D01*
X108203857Y-69726466D01*
X108205451Y-69724389D01*
X108206934Y-69722232D01*
X108208301Y-69720000D01*
X108209550Y-69717700D01*
X108210677Y-69715337D01*
X108211679Y-69712918D01*
X108212553Y-69710451D01*
X108213296Y-69707941D01*
X108213907Y-69705396D01*
X108214384Y-69702822D01*
X108214726Y-69700226D01*
X108214931Y-69697617D01*
X108215000Y-69695000D01*
X108215000Y-69585000D01*
X108214931Y-69582383D01*
X108214726Y-69579774D01*
X108214384Y-69577178D01*
X108213907Y-69574604D01*
X108213296Y-69572059D01*
X108212553Y-69569549D01*
X108211679Y-69567082D01*
X108210677Y-69564663D01*
X108209550Y-69562300D01*
X108208301Y-69560000D01*
X108206934Y-69557768D01*
X108205451Y-69555611D01*
X108203857Y-69553534D01*
X108202157Y-69551543D01*
X108200355Y-69549645D01*
X108198457Y-69547843D01*
X108196466Y-69546143D01*
X108194389Y-69544549D01*
X108192232Y-69543066D01*
X108190000Y-69541699D01*
X108187700Y-69540450D01*
X108185337Y-69539323D01*
X108182918Y-69538321D01*
X108180451Y-69537447D01*
X108177941Y-69536704D01*
X108175396Y-69536093D01*
X108172822Y-69535616D01*
X108170226Y-69535274D01*
X108167617Y-69535069D01*
X108165000Y-69535000D01*
X108055000Y-69535000D01*
X108052383Y-69535069D01*
X108049774Y-69535274D01*
X108047178Y-69535616D01*
X108044604Y-69536093D01*
X108042059Y-69536704D01*
X108039549Y-69537447D01*
X108037082Y-69538321D01*
X108034663Y-69539323D01*
X108032300Y-69540450D01*
X108030000Y-69541699D01*
X108027768Y-69543066D01*
X108025611Y-69544549D01*
X108023534Y-69546143D01*
X108021543Y-69547843D01*
X108019645Y-69549645D01*
X108017843Y-69551543D01*
X108016143Y-69553534D01*
X108014549Y-69555611D01*
X108013066Y-69557768D01*
X108011699Y-69560000D01*
X108010450Y-69562300D01*
X108009323Y-69564663D01*
X108008321Y-69567082D01*
X108007447Y-69569549D01*
X108006704Y-69572059D01*
X108006093Y-69574604D01*
X108005616Y-69577178D01*
X108005274Y-69579774D01*
X108005069Y-69582383D01*
X108005000Y-69585000D01*
X108005000Y-69695000D01*
X108005069Y-69697617D01*
X108005274Y-69700226D01*
X108005616Y-69702822D01*
X108006093Y-69705396D01*
X108006704Y-69707941D01*
X108007447Y-69710451D01*
X108008321Y-69712918D01*
X108009323Y-69715337D01*
X108010450Y-69717700D01*
X108011699Y-69720000D01*
X108013066Y-69722232D01*
X108014549Y-69724389D01*
X108016143Y-69726466D01*
X108017843Y-69728457D01*
X108019645Y-69730355D01*
X108021543Y-69732157D01*
X108023534Y-69733857D01*
X108025611Y-69735451D01*
X108027768Y-69736934D01*
X108030000Y-69738301D01*
X108032300Y-69739550D01*
X108034663Y-69740677D01*
X108037082Y-69741679D01*
X108039549Y-69742553D01*
X108042059Y-69743296D01*
X108044604Y-69743907D01*
X108047178Y-69744384D01*
X108049774Y-69744726D01*
X108052383Y-69744931D01*
X108055000Y-69745000D01*
X108165000Y-69745000D01*
G37*
X108165000Y-69745000D02*
X108167617Y-69744931D01*
X108170226Y-69744726D01*
X108172822Y-69744384D01*
X108175396Y-69743907D01*
X108177941Y-69743296D01*
X108180451Y-69742553D01*
X108182918Y-69741679D01*
X108185337Y-69740677D01*
X108187700Y-69739550D01*
X108190000Y-69738301D01*
X108192232Y-69736934D01*
X108194389Y-69735451D01*
X108196466Y-69733857D01*
X108198457Y-69732157D01*
X108200355Y-69730355D01*
X108202157Y-69728457D01*
X108203857Y-69726466D01*
X108205451Y-69724389D01*
X108206934Y-69722232D01*
X108208301Y-69720000D01*
X108209550Y-69717700D01*
X108210677Y-69715337D01*
X108211679Y-69712918D01*
X108212553Y-69710451D01*
X108213296Y-69707941D01*
X108213907Y-69705396D01*
X108214384Y-69702822D01*
X108214726Y-69700226D01*
X108214931Y-69697617D01*
X108215000Y-69695000D01*
X108215000Y-69585000D01*
X108214931Y-69582383D01*
X108214726Y-69579774D01*
X108214384Y-69577178D01*
X108213907Y-69574604D01*
X108213296Y-69572059D01*
X108212553Y-69569549D01*
X108211679Y-69567082D01*
X108210677Y-69564663D01*
X108209550Y-69562300D01*
X108208301Y-69560000D01*
X108206934Y-69557768D01*
X108205451Y-69555611D01*
X108203857Y-69553534D01*
X108202157Y-69551543D01*
X108200355Y-69549645D01*
X108198457Y-69547843D01*
X108196466Y-69546143D01*
X108194389Y-69544549D01*
X108192232Y-69543066D01*
X108190000Y-69541699D01*
X108187700Y-69540450D01*
X108185337Y-69539323D01*
X108182918Y-69538321D01*
X108180451Y-69537447D01*
X108177941Y-69536704D01*
X108175396Y-69536093D01*
X108172822Y-69535616D01*
X108170226Y-69535274D01*
X108167617Y-69535069D01*
X108165000Y-69535000D01*
X108055000Y-69535000D01*
X108052383Y-69535069D01*
X108049774Y-69535274D01*
X108047178Y-69535616D01*
X108044604Y-69536093D01*
X108042059Y-69536704D01*
X108039549Y-69537447D01*
X108037082Y-69538321D01*
X108034663Y-69539323D01*
X108032300Y-69540450D01*
X108030000Y-69541699D01*
X108027768Y-69543066D01*
X108025611Y-69544549D01*
X108023534Y-69546143D01*
X108021543Y-69547843D01*
X108019645Y-69549645D01*
X108017843Y-69551543D01*
X108016143Y-69553534D01*
X108014549Y-69555611D01*
X108013066Y-69557768D01*
X108011699Y-69560000D01*
X108010450Y-69562300D01*
X108009323Y-69564663D01*
X108008321Y-69567082D01*
X108007447Y-69569549D01*
X108006704Y-69572059D01*
X108006093Y-69574604D01*
X108005616Y-69577178D01*
X108005274Y-69579774D01*
X108005069Y-69582383D01*
X108005000Y-69585000D01*
X108005000Y-69695000D01*
X108005069Y-69697617D01*
X108005274Y-69700226D01*
X108005616Y-69702822D01*
X108006093Y-69705396D01*
X108006704Y-69707941D01*
X108007447Y-69710451D01*
X108008321Y-69712918D01*
X108009323Y-69715337D01*
X108010450Y-69717700D01*
X108011699Y-69720000D01*
X108013066Y-69722232D01*
X108014549Y-69724389D01*
X108016143Y-69726466D01*
X108017843Y-69728457D01*
X108019645Y-69730355D01*
X108021543Y-69732157D01*
X108023534Y-69733857D01*
X108025611Y-69735451D01*
X108027768Y-69736934D01*
X108030000Y-69738301D01*
X108032300Y-69739550D01*
X108034663Y-69740677D01*
X108037082Y-69741679D01*
X108039549Y-69742553D01*
X108042059Y-69743296D01*
X108044604Y-69743907D01*
X108047178Y-69744384D01*
X108049774Y-69744726D01*
X108052383Y-69744931D01*
X108055000Y-69745000D01*
X108165000Y-69745000D01*
G36*
X109164000Y-72795000D02*
G01*
X109164000Y-74345000D01*
X107614000Y-74345000D01*
X107614000Y-72795000D01*
X109164000Y-72795000D01*
G37*
X109164000Y-72795000D02*
X109164000Y-74345000D01*
X107614000Y-74345000D01*
X107614000Y-72795000D01*
X109164000Y-72795000D01*
D11*
X128800000Y-75735000D03*
X127530000Y-75735000D03*
X126260000Y-75735000D03*
X124990000Y-75735000D03*
X123720000Y-75735000D03*
X122450000Y-75735000D03*
X121500000Y-75735000D03*
D12*
X130470000Y-74255000D03*
X117470000Y-74255000D03*
X130470000Y-62255000D03*
X117470000Y-62255000D03*
D13*
X138490000Y-68660000D03*
X138490000Y-71960000D03*
X137490000Y-68660000D03*
X137490000Y-71960000D03*
X136490000Y-68660000D03*
X136490000Y-71960000D03*
D14*
X143120000Y-86420000D03*
X142320000Y-86420000D03*
X141520000Y-86420000D03*
X140720000Y-86420000D03*
X139920000Y-86420000D03*
X139120000Y-86420000D03*
X138320000Y-86420000D03*
X137520000Y-86420000D03*
D15*
X136070000Y-84970000D03*
X136070000Y-84170000D03*
X136070000Y-83370000D03*
X136070000Y-82570000D03*
X136070000Y-81770000D03*
X136070000Y-80970000D03*
X136070000Y-80170000D03*
X136070000Y-79370000D03*
D14*
X137520000Y-77920000D03*
X138320000Y-77920000D03*
X139120000Y-77920000D03*
X139920000Y-77920000D03*
X140720000Y-77920000D03*
X141520000Y-77920000D03*
X142320000Y-77920000D03*
X143120000Y-77920000D03*
D15*
X144570000Y-79370000D03*
X144570000Y-80170000D03*
X144570000Y-80970000D03*
X144570000Y-81770000D03*
X144570000Y-82570000D03*
X144570000Y-83370000D03*
X144570000Y-84170000D03*
X144570000Y-84970000D03*
D16*
X116655000Y-105830000D03*
X117305000Y-105830000D03*
X117955000Y-105830000D03*
X118605000Y-105830000D03*
X119255000Y-105830000D03*
X119905000Y-105830000D03*
X120555000Y-105830000D03*
X121205000Y-105830000D03*
X121205000Y-100090000D03*
X120555000Y-100090000D03*
X119905000Y-100090000D03*
X119255000Y-100090000D03*
X118605000Y-100090000D03*
X117955000Y-100090000D03*
X117305000Y-100090000D03*
X116655000Y-100090000D03*
G36*
G01*
X122397500Y-79617500D02*
X121922500Y-79617500D01*
G75*
G02*
X121685000Y-79380000I0J237500D01*
G01*
X121685000Y-78780000D01*
G75*
G02*
X121922500Y-78542500I237500J0D01*
G01*
X122397500Y-78542500D01*
G75*
G02*
X122635000Y-78780000I0J-237500D01*
G01*
X122635000Y-79380000D01*
G75*
G02*
X122397500Y-79617500I-237500J0D01*
G01*
G37*
G36*
G01*
X122397500Y-81342500D02*
X121922500Y-81342500D01*
G75*
G02*
X121685000Y-81105000I0J237500D01*
G01*
X121685000Y-80505000D01*
G75*
G02*
X121922500Y-80267500I237500J0D01*
G01*
X122397500Y-80267500D01*
G75*
G02*
X122635000Y-80505000I0J-237500D01*
G01*
X122635000Y-81105000D01*
G75*
G02*
X122397500Y-81342500I-237500J0D01*
G01*
G37*
G36*
G01*
X122712500Y-76900000D02*
X122712500Y-77210000D01*
G75*
G02*
X122557500Y-77365000I-155000J0D01*
G01*
X122132500Y-77365000D01*
G75*
G02*
X121977500Y-77210000I0J155000D01*
G01*
X121977500Y-76900000D01*
G75*
G02*
X122132500Y-76745000I155000J0D01*
G01*
X122557500Y-76745000D01*
G75*
G02*
X122712500Y-76900000I0J-155000D01*
G01*
G37*
G36*
G01*
X123847500Y-76900000D02*
X123847500Y-77210000D01*
G75*
G02*
X123692500Y-77365000I-155000J0D01*
G01*
X123267500Y-77365000D01*
G75*
G02*
X123112500Y-77210000I0J155000D01*
G01*
X123112500Y-76900000D01*
G75*
G02*
X123267500Y-76745000I155000J0D01*
G01*
X123692500Y-76745000D01*
G75*
G02*
X123847500Y-76900000I0J-155000D01*
G01*
G37*
G36*
G01*
X134570000Y-94650000D02*
X134880000Y-94650000D01*
G75*
G02*
X135035000Y-94805000I0J-155000D01*
G01*
X135035000Y-95230000D01*
G75*
G02*
X134880000Y-95385000I-155000J0D01*
G01*
X134570000Y-95385000D01*
G75*
G02*
X134415000Y-95230000I0J155000D01*
G01*
X134415000Y-94805000D01*
G75*
G02*
X134570000Y-94650000I155000J0D01*
G01*
G37*
G36*
G01*
X134570000Y-93515000D02*
X134880000Y-93515000D01*
G75*
G02*
X135035000Y-93670000I0J-155000D01*
G01*
X135035000Y-94095000D01*
G75*
G02*
X134880000Y-94250000I-155000J0D01*
G01*
X134570000Y-94250000D01*
G75*
G02*
X134415000Y-94095000I0J155000D01*
G01*
X134415000Y-93670000D01*
G75*
G02*
X134570000Y-93515000I155000J0D01*
G01*
G37*
G36*
G01*
X133570000Y-94625000D02*
X133880000Y-94625000D01*
G75*
G02*
X134035000Y-94780000I0J-155000D01*
G01*
X134035000Y-95205000D01*
G75*
G02*
X133880000Y-95360000I-155000J0D01*
G01*
X133570000Y-95360000D01*
G75*
G02*
X133415000Y-95205000I0J155000D01*
G01*
X133415000Y-94780000D01*
G75*
G02*
X133570000Y-94625000I155000J0D01*
G01*
G37*
G36*
G01*
X133570000Y-93490000D02*
X133880000Y-93490000D01*
G75*
G02*
X134035000Y-93645000I0J-155000D01*
G01*
X134035000Y-94070000D01*
G75*
G02*
X133880000Y-94225000I-155000J0D01*
G01*
X133570000Y-94225000D01*
G75*
G02*
X133415000Y-94070000I0J155000D01*
G01*
X133415000Y-93645000D01*
G75*
G02*
X133570000Y-93490000I155000J0D01*
G01*
G37*
G36*
G01*
X134120000Y-83250000D02*
X134430000Y-83250000D01*
G75*
G02*
X134585000Y-83405000I0J-155000D01*
G01*
X134585000Y-83830000D01*
G75*
G02*
X134430000Y-83985000I-155000J0D01*
G01*
X134120000Y-83985000D01*
G75*
G02*
X133965000Y-83830000I0J155000D01*
G01*
X133965000Y-83405000D01*
G75*
G02*
X134120000Y-83250000I155000J0D01*
G01*
G37*
G36*
G01*
X134120000Y-82115000D02*
X134430000Y-82115000D01*
G75*
G02*
X134585000Y-82270000I0J-155000D01*
G01*
X134585000Y-82695000D01*
G75*
G02*
X134430000Y-82850000I-155000J0D01*
G01*
X134120000Y-82850000D01*
G75*
G02*
X133965000Y-82695000I0J155000D01*
G01*
X133965000Y-82270000D01*
G75*
G02*
X134120000Y-82115000I155000J0D01*
G01*
G37*
G36*
G01*
X136807500Y-97140000D02*
X136807500Y-97460000D01*
G75*
G02*
X136647500Y-97620000I-160000J0D01*
G01*
X136252500Y-97620000D01*
G75*
G02*
X136092500Y-97460000I0J160000D01*
G01*
X136092500Y-97140000D01*
G75*
G02*
X136252500Y-96980000I160000J0D01*
G01*
X136647500Y-96980000D01*
G75*
G02*
X136807500Y-97140000I0J-160000D01*
G01*
G37*
G36*
G01*
X138002500Y-97140000D02*
X138002500Y-97460000D01*
G75*
G02*
X137842500Y-97620000I-160000J0D01*
G01*
X137447500Y-97620000D01*
G75*
G02*
X137287500Y-97460000I0J160000D01*
G01*
X137287500Y-97140000D01*
G75*
G02*
X137447500Y-96980000I160000J0D01*
G01*
X137842500Y-96980000D01*
G75*
G02*
X138002500Y-97140000I0J-160000D01*
G01*
G37*
G36*
G01*
X102987500Y-69937500D02*
X102987500Y-70412500D01*
G75*
G02*
X102750000Y-70650000I-237500J0D01*
G01*
X102250000Y-70650000D01*
G75*
G02*
X102012500Y-70412500I0J237500D01*
G01*
X102012500Y-69937500D01*
G75*
G02*
X102250000Y-69700000I237500J0D01*
G01*
X102750000Y-69700000D01*
G75*
G02*
X102987500Y-69937500I0J-237500D01*
G01*
G37*
G36*
G01*
X104812500Y-69937500D02*
X104812500Y-70412500D01*
G75*
G02*
X104575000Y-70650000I-237500J0D01*
G01*
X104075000Y-70650000D01*
G75*
G02*
X103837500Y-70412500I0J237500D01*
G01*
X103837500Y-69937500D01*
G75*
G02*
X104075000Y-69700000I237500J0D01*
G01*
X104575000Y-69700000D01*
G75*
G02*
X104812500Y-69937500I0J-237500D01*
G01*
G37*
D17*
X137225000Y-94100000D03*
X137875000Y-96100000D03*
X136575000Y-96100000D03*
D18*
X135200000Y-97300000D03*
X133200000Y-98250000D03*
X133200000Y-96350000D03*
G36*
G01*
X110455000Y-80212500D02*
X110145000Y-80212500D01*
G75*
G02*
X109990000Y-80057500I0J155000D01*
G01*
X109990000Y-79632500D01*
G75*
G02*
X110145000Y-79477500I155000J0D01*
G01*
X110455000Y-79477500D01*
G75*
G02*
X110610000Y-79632500I0J-155000D01*
G01*
X110610000Y-80057500D01*
G75*
G02*
X110455000Y-80212500I-155000J0D01*
G01*
G37*
G36*
G01*
X110455000Y-81347500D02*
X110145000Y-81347500D01*
G75*
G02*
X109990000Y-81192500I0J155000D01*
G01*
X109990000Y-80767500D01*
G75*
G02*
X110145000Y-80612500I155000J0D01*
G01*
X110455000Y-80612500D01*
G75*
G02*
X110610000Y-80767500I0J-155000D01*
G01*
X110610000Y-81192500D01*
G75*
G02*
X110455000Y-81347500I-155000J0D01*
G01*
G37*
G36*
G01*
X106195000Y-77150000D02*
X106505000Y-77150000D01*
G75*
G02*
X106660000Y-77305000I0J-155000D01*
G01*
X106660000Y-77730000D01*
G75*
G02*
X106505000Y-77885000I-155000J0D01*
G01*
X106195000Y-77885000D01*
G75*
G02*
X106040000Y-77730000I0J155000D01*
G01*
X106040000Y-77305000D01*
G75*
G02*
X106195000Y-77150000I155000J0D01*
G01*
G37*
G36*
G01*
X106195000Y-76015000D02*
X106505000Y-76015000D01*
G75*
G02*
X106660000Y-76170000I0J-155000D01*
G01*
X106660000Y-76595000D01*
G75*
G02*
X106505000Y-76750000I-155000J0D01*
G01*
X106195000Y-76750000D01*
G75*
G02*
X106040000Y-76595000I0J155000D01*
G01*
X106040000Y-76170000D01*
G75*
G02*
X106195000Y-76015000I155000J0D01*
G01*
G37*
G36*
G01*
X109202500Y-76835000D02*
X109202500Y-76525000D01*
G75*
G02*
X109357500Y-76370000I155000J0D01*
G01*
X109782500Y-76370000D01*
G75*
G02*
X109937500Y-76525000I0J-155000D01*
G01*
X109937500Y-76835000D01*
G75*
G02*
X109782500Y-76990000I-155000J0D01*
G01*
X109357500Y-76990000D01*
G75*
G02*
X109202500Y-76835000I0J155000D01*
G01*
G37*
G36*
G01*
X108067500Y-76835000D02*
X108067500Y-76525000D01*
G75*
G02*
X108222500Y-76370000I155000J0D01*
G01*
X108647500Y-76370000D01*
G75*
G02*
X108802500Y-76525000I0J-155000D01*
G01*
X108802500Y-76835000D01*
G75*
G02*
X108647500Y-76990000I-155000J0D01*
G01*
X108222500Y-76990000D01*
G75*
G02*
X108067500Y-76835000I0J155000D01*
G01*
G37*
G36*
G01*
X136230000Y-75832500D02*
X136550000Y-75832500D01*
G75*
G02*
X136710000Y-75992500I0J-160000D01*
G01*
X136710000Y-76387500D01*
G75*
G02*
X136550000Y-76547500I-160000J0D01*
G01*
X136230000Y-76547500D01*
G75*
G02*
X136070000Y-76387500I0J160000D01*
G01*
X136070000Y-75992500D01*
G75*
G02*
X136230000Y-75832500I160000J0D01*
G01*
G37*
G36*
G01*
X136230000Y-74637500D02*
X136550000Y-74637500D01*
G75*
G02*
X136710000Y-74797500I0J-160000D01*
G01*
X136710000Y-75192500D01*
G75*
G02*
X136550000Y-75352500I-160000J0D01*
G01*
X136230000Y-75352500D01*
G75*
G02*
X136070000Y-75192500I0J160000D01*
G01*
X136070000Y-74797500D01*
G75*
G02*
X136230000Y-74637500I160000J0D01*
G01*
G37*
G36*
G01*
X137320000Y-75832500D02*
X137640000Y-75832500D01*
G75*
G02*
X137800000Y-75992500I0J-160000D01*
G01*
X137800000Y-76387500D01*
G75*
G02*
X137640000Y-76547500I-160000J0D01*
G01*
X137320000Y-76547500D01*
G75*
G02*
X137160000Y-76387500I0J160000D01*
G01*
X137160000Y-75992500D01*
G75*
G02*
X137320000Y-75832500I160000J0D01*
G01*
G37*
G36*
G01*
X137320000Y-74637500D02*
X137640000Y-74637500D01*
G75*
G02*
X137800000Y-74797500I0J-160000D01*
G01*
X137800000Y-75192500D01*
G75*
G02*
X137640000Y-75352500I-160000J0D01*
G01*
X137320000Y-75352500D01*
G75*
G02*
X137160000Y-75192500I0J160000D01*
G01*
X137160000Y-74797500D01*
G75*
G02*
X137320000Y-74637500I160000J0D01*
G01*
G37*
G36*
G01*
X138360000Y-75812500D02*
X138680000Y-75812500D01*
G75*
G02*
X138840000Y-75972500I0J-160000D01*
G01*
X138840000Y-76367500D01*
G75*
G02*
X138680000Y-76527500I-160000J0D01*
G01*
X138360000Y-76527500D01*
G75*
G02*
X138200000Y-76367500I0J160000D01*
G01*
X138200000Y-75972500D01*
G75*
G02*
X138360000Y-75812500I160000J0D01*
G01*
G37*
G36*
G01*
X138360000Y-74617500D02*
X138680000Y-74617500D01*
G75*
G02*
X138840000Y-74777500I0J-160000D01*
G01*
X138840000Y-75172500D01*
G75*
G02*
X138680000Y-75332500I-160000J0D01*
G01*
X138360000Y-75332500D01*
G75*
G02*
X138200000Y-75172500I0J160000D01*
G01*
X138200000Y-74777500D01*
G75*
G02*
X138360000Y-74617500I160000J0D01*
G01*
G37*
G36*
G01*
X137920000Y-88462500D02*
X137600000Y-88462500D01*
G75*
G02*
X137440000Y-88302500I0J160000D01*
G01*
X137440000Y-87907500D01*
G75*
G02*
X137600000Y-87747500I160000J0D01*
G01*
X137920000Y-87747500D01*
G75*
G02*
X138080000Y-87907500I0J-160000D01*
G01*
X138080000Y-88302500D01*
G75*
G02*
X137920000Y-88462500I-160000J0D01*
G01*
G37*
G36*
G01*
X137920000Y-89657500D02*
X137600000Y-89657500D01*
G75*
G02*
X137440000Y-89497500I0J160000D01*
G01*
X137440000Y-89102500D01*
G75*
G02*
X137600000Y-88942500I160000J0D01*
G01*
X137920000Y-88942500D01*
G75*
G02*
X138080000Y-89102500I0J-160000D01*
G01*
X138080000Y-89497500D01*
G75*
G02*
X137920000Y-89657500I-160000J0D01*
G01*
G37*
G36*
G01*
X140970000Y-88457500D02*
X140650000Y-88457500D01*
G75*
G02*
X140490000Y-88297500I0J160000D01*
G01*
X140490000Y-87902500D01*
G75*
G02*
X140650000Y-87742500I160000J0D01*
G01*
X140970000Y-87742500D01*
G75*
G02*
X141130000Y-87902500I0J-160000D01*
G01*
X141130000Y-88297500D01*
G75*
G02*
X140970000Y-88457500I-160000J0D01*
G01*
G37*
G36*
G01*
X140970000Y-89652500D02*
X140650000Y-89652500D01*
G75*
G02*
X140490000Y-89492500I0J160000D01*
G01*
X140490000Y-89097500D01*
G75*
G02*
X140650000Y-88937500I160000J0D01*
G01*
X140970000Y-88937500D01*
G75*
G02*
X141130000Y-89097500I0J-160000D01*
G01*
X141130000Y-89492500D01*
G75*
G02*
X140970000Y-89652500I-160000J0D01*
G01*
G37*
G36*
G01*
X142150000Y-76140000D02*
X142150000Y-76460000D01*
G75*
G02*
X141990000Y-76620000I-160000J0D01*
G01*
X141595000Y-76620000D01*
G75*
G02*
X141435000Y-76460000I0J160000D01*
G01*
X141435000Y-76140000D01*
G75*
G02*
X141595000Y-75980000I160000J0D01*
G01*
X141990000Y-75980000D01*
G75*
G02*
X142150000Y-76140000I0J-160000D01*
G01*
G37*
G36*
G01*
X143345000Y-76140000D02*
X143345000Y-76460000D01*
G75*
G02*
X143185000Y-76620000I-160000J0D01*
G01*
X142790000Y-76620000D01*
G75*
G02*
X142630000Y-76460000I0J160000D01*
G01*
X142630000Y-76140000D01*
G75*
G02*
X142790000Y-75980000I160000J0D01*
G01*
X143185000Y-75980000D01*
G75*
G02*
X143345000Y-76140000I0J-160000D01*
G01*
G37*
G36*
G01*
X138940000Y-88477500D02*
X138620000Y-88477500D01*
G75*
G02*
X138460000Y-88317500I0J160000D01*
G01*
X138460000Y-87922500D01*
G75*
G02*
X138620000Y-87762500I160000J0D01*
G01*
X138940000Y-87762500D01*
G75*
G02*
X139100000Y-87922500I0J-160000D01*
G01*
X139100000Y-88317500D01*
G75*
G02*
X138940000Y-88477500I-160000J0D01*
G01*
G37*
G36*
G01*
X138940000Y-89672500D02*
X138620000Y-89672500D01*
G75*
G02*
X138460000Y-89512500I0J160000D01*
G01*
X138460000Y-89117500D01*
G75*
G02*
X138620000Y-88957500I160000J0D01*
G01*
X138940000Y-88957500D01*
G75*
G02*
X139100000Y-89117500I0J-160000D01*
G01*
X139100000Y-89512500D01*
G75*
G02*
X138940000Y-89672500I-160000J0D01*
G01*
G37*
G36*
G01*
X139630000Y-88950000D02*
X139950000Y-88950000D01*
G75*
G02*
X140110000Y-89110000I0J-160000D01*
G01*
X140110000Y-89505000D01*
G75*
G02*
X139950000Y-89665000I-160000J0D01*
G01*
X139630000Y-89665000D01*
G75*
G02*
X139470000Y-89505000I0J160000D01*
G01*
X139470000Y-89110000D01*
G75*
G02*
X139630000Y-88950000I160000J0D01*
G01*
G37*
G36*
G01*
X139630000Y-87755000D02*
X139950000Y-87755000D01*
G75*
G02*
X140110000Y-87915000I0J-160000D01*
G01*
X140110000Y-88310000D01*
G75*
G02*
X139950000Y-88470000I-160000J0D01*
G01*
X139630000Y-88470000D01*
G75*
G02*
X139470000Y-88310000I0J160000D01*
G01*
X139470000Y-87915000D01*
G75*
G02*
X139630000Y-87755000I160000J0D01*
G01*
G37*
G36*
G01*
X115535000Y-99212500D02*
X115845000Y-99212500D01*
G75*
G02*
X116000000Y-99367500I0J-155000D01*
G01*
X116000000Y-99792500D01*
G75*
G02*
X115845000Y-99947500I-155000J0D01*
G01*
X115535000Y-99947500D01*
G75*
G02*
X115380000Y-99792500I0J155000D01*
G01*
X115380000Y-99367500D01*
G75*
G02*
X115535000Y-99212500I155000J0D01*
G01*
G37*
G36*
G01*
X115535000Y-100347500D02*
X115845000Y-100347500D01*
G75*
G02*
X116000000Y-100502500I0J-155000D01*
G01*
X116000000Y-100927500D01*
G75*
G02*
X115845000Y-101082500I-155000J0D01*
G01*
X115535000Y-101082500D01*
G75*
G02*
X115380000Y-100927500I0J155000D01*
G01*
X115380000Y-100502500D01*
G75*
G02*
X115535000Y-100347500I155000J0D01*
G01*
G37*
G36*
G01*
X117645000Y-98395000D02*
X117645000Y-98705000D01*
G75*
G02*
X117490000Y-98860000I-155000J0D01*
G01*
X117065000Y-98860000D01*
G75*
G02*
X116910000Y-98705000I0J155000D01*
G01*
X116910000Y-98395000D01*
G75*
G02*
X117065000Y-98240000I155000J0D01*
G01*
X117490000Y-98240000D01*
G75*
G02*
X117645000Y-98395000I0J-155000D01*
G01*
G37*
G36*
G01*
X116510000Y-98395000D02*
X116510000Y-98705000D01*
G75*
G02*
X116355000Y-98860000I-155000J0D01*
G01*
X115930000Y-98860000D01*
G75*
G02*
X115775000Y-98705000I0J155000D01*
G01*
X115775000Y-98395000D01*
G75*
G02*
X115930000Y-98240000I155000J0D01*
G01*
X116355000Y-98240000D01*
G75*
G02*
X116510000Y-98395000I0J-155000D01*
G01*
G37*
D19*
X112530000Y-84550000D03*
X116130000Y-84550000D03*
X122230000Y-84550000D03*
X125830000Y-84550000D03*
X127630000Y-84550000D03*
X129430000Y-84550000D03*
X129430000Y-86650000D03*
X127630000Y-86650000D03*
X127630000Y-88750000D03*
X129430000Y-88750000D03*
X129430000Y-90850000D03*
X127630000Y-90850000D03*
X127630000Y-92950000D03*
X129430000Y-92950000D03*
X129430000Y-95050000D03*
X127630000Y-95050000D03*
X125830000Y-95050000D03*
X122230000Y-95050000D03*
X116130000Y-95050000D03*
X112530000Y-95050000D03*
X110730000Y-95050000D03*
X110730000Y-92950000D03*
X110730000Y-90850000D03*
X110730000Y-88750000D03*
X110730000Y-86650000D03*
X110730000Y-84550000D03*
X108930000Y-95050000D03*
X108930000Y-92950000D03*
X108930000Y-90850000D03*
X108930000Y-88750000D03*
X108930000Y-86650000D03*
X108930000Y-84550000D03*
D20*
X131180000Y-84300000D03*
X131180000Y-85400000D03*
X131180000Y-86500000D03*
X131180000Y-87600000D03*
X131180000Y-88700000D03*
X131180000Y-89800000D03*
X131180000Y-90900000D03*
X131180000Y-92000000D03*
X131180000Y-93100000D03*
X131180000Y-94200000D03*
X131180000Y-95300000D03*
X107180000Y-95300000D03*
X107180000Y-94200000D03*
X107180000Y-93100000D03*
X107180000Y-92000000D03*
X107180000Y-90900000D03*
X107180000Y-89800000D03*
X107180000Y-88700000D03*
X107180000Y-87600000D03*
X107180000Y-86500000D03*
X107180000Y-85400000D03*
X107180000Y-84300000D03*
D21*
X130180000Y-82800000D03*
X127980000Y-82800000D03*
X129080000Y-82800000D03*
X126880000Y-82800000D03*
X125780000Y-82800000D03*
X124680000Y-82800000D03*
X123580000Y-82800000D03*
X122480000Y-82800000D03*
X121380000Y-82800000D03*
X120280000Y-82800000D03*
X119180000Y-82800000D03*
X118080000Y-82800000D03*
X116980000Y-82800000D03*
X115880000Y-82800000D03*
X114780000Y-82800000D03*
X113680000Y-82800000D03*
X112580000Y-82800000D03*
X111480000Y-82800000D03*
X110380000Y-82800000D03*
X109280000Y-82800000D03*
X108180000Y-82800000D03*
X130180000Y-96800000D03*
X129080000Y-96800000D03*
X127980000Y-96800000D03*
X126880000Y-96800000D03*
X125780000Y-96800000D03*
X124680000Y-96800000D03*
X123580000Y-96800000D03*
X122480000Y-96800000D03*
X121380000Y-96800000D03*
X120280000Y-96800000D03*
X119180000Y-96800000D03*
X118080000Y-96800000D03*
X116980000Y-96800000D03*
X115880000Y-96800000D03*
X114780000Y-96800000D03*
X113680000Y-96800000D03*
X112580000Y-96800000D03*
X111480000Y-96800000D03*
X110380000Y-96800000D03*
X109280000Y-96800000D03*
X108180000Y-96800000D03*
D22*
X104796000Y-67280000D03*
X105596000Y-67280000D03*
X110496000Y-67280000D03*
X111296000Y-67280000D03*
X111296000Y-67280000D03*
X110496000Y-67280000D03*
X105596000Y-67280000D03*
X104796000Y-67280000D03*
D23*
X109796000Y-67280000D03*
X109296000Y-67280000D03*
X108796000Y-67280000D03*
X107796000Y-67280000D03*
X107296000Y-67280000D03*
X106796000Y-67280000D03*
X106296000Y-67280000D03*
X108296000Y-67280000D03*
G36*
G01*
X115257500Y-71560000D02*
X114782500Y-71560000D01*
G75*
G02*
X114545000Y-71322500I0J237500D01*
G01*
X114545000Y-70747500D01*
G75*
G02*
X114782500Y-70510000I237500J0D01*
G01*
X115257500Y-70510000D01*
G75*
G02*
X115495000Y-70747500I0J-237500D01*
G01*
X115495000Y-71322500D01*
G75*
G02*
X115257500Y-71560000I-237500J0D01*
G01*
G37*
G36*
G01*
X115257500Y-73310000D02*
X114782500Y-73310000D01*
G75*
G02*
X114545000Y-73072500I0J237500D01*
G01*
X114545000Y-72497500D01*
G75*
G02*
X114782500Y-72260000I237500J0D01*
G01*
X115257500Y-72260000D01*
G75*
G02*
X115495000Y-72497500I0J-237500D01*
G01*
X115495000Y-73072500D01*
G75*
G02*
X115257500Y-73310000I-237500J0D01*
G01*
G37*
G36*
G01*
X112690000Y-71462500D02*
X112370000Y-71462500D01*
G75*
G02*
X112210000Y-71302500I0J160000D01*
G01*
X112210000Y-70907500D01*
G75*
G02*
X112370000Y-70747500I160000J0D01*
G01*
X112690000Y-70747500D01*
G75*
G02*
X112850000Y-70907500I0J-160000D01*
G01*
X112850000Y-71302500D01*
G75*
G02*
X112690000Y-71462500I-160000J0D01*
G01*
G37*
G36*
G01*
X112690000Y-72657500D02*
X112370000Y-72657500D01*
G75*
G02*
X112210000Y-72497500I0J160000D01*
G01*
X112210000Y-72102500D01*
G75*
G02*
X112370000Y-71942500I160000J0D01*
G01*
X112690000Y-71942500D01*
G75*
G02*
X112850000Y-72102500I0J-160000D01*
G01*
X112850000Y-72497500D01*
G75*
G02*
X112690000Y-72657500I-160000J0D01*
G01*
G37*
G36*
G01*
X104442500Y-69085000D02*
X104442500Y-68765000D01*
G75*
G02*
X104602500Y-68605000I160000J0D01*
G01*
X104997500Y-68605000D01*
G75*
G02*
X105157500Y-68765000I0J-160000D01*
G01*
X105157500Y-69085000D01*
G75*
G02*
X104997500Y-69245000I-160000J0D01*
G01*
X104602500Y-69245000D01*
G75*
G02*
X104442500Y-69085000I0J160000D01*
G01*
G37*
G36*
G01*
X103247500Y-69085000D02*
X103247500Y-68765000D01*
G75*
G02*
X103407500Y-68605000I160000J0D01*
G01*
X103802500Y-68605000D01*
G75*
G02*
X103962500Y-68765000I0J-160000D01*
G01*
X103962500Y-69085000D01*
G75*
G02*
X103802500Y-69245000I-160000J0D01*
G01*
X103407500Y-69245000D01*
G75*
G02*
X103247500Y-69085000I0J160000D01*
G01*
G37*
G36*
G01*
X109470000Y-69390000D02*
X109150000Y-69390000D01*
G75*
G02*
X108990000Y-69230000I0J160000D01*
G01*
X108990000Y-68835000D01*
G75*
G02*
X109150000Y-68675000I160000J0D01*
G01*
X109470000Y-68675000D01*
G75*
G02*
X109630000Y-68835000I0J-160000D01*
G01*
X109630000Y-69230000D01*
G75*
G02*
X109470000Y-69390000I-160000J0D01*
G01*
G37*
G36*
G01*
X109470000Y-70585000D02*
X109150000Y-70585000D01*
G75*
G02*
X108990000Y-70425000I0J160000D01*
G01*
X108990000Y-70030000D01*
G75*
G02*
X109150000Y-69870000I160000J0D01*
G01*
X109470000Y-69870000D01*
G75*
G02*
X109630000Y-70030000I0J-160000D01*
G01*
X109630000Y-70425000D01*
G75*
G02*
X109470000Y-70585000I-160000J0D01*
G01*
G37*
G36*
G01*
X146195000Y-83617500D02*
X146505000Y-83617500D01*
G75*
G02*
X146660000Y-83772500I0J-155000D01*
G01*
X146660000Y-84197500D01*
G75*
G02*
X146505000Y-84352500I-155000J0D01*
G01*
X146195000Y-84352500D01*
G75*
G02*
X146040000Y-84197500I0J155000D01*
G01*
X146040000Y-83772500D01*
G75*
G02*
X146195000Y-83617500I155000J0D01*
G01*
G37*
G36*
G01*
X146195000Y-82482500D02*
X146505000Y-82482500D01*
G75*
G02*
X146660000Y-82637500I0J-155000D01*
G01*
X146660000Y-83062500D01*
G75*
G02*
X146505000Y-83217500I-155000J0D01*
G01*
X146195000Y-83217500D01*
G75*
G02*
X146040000Y-83062500I0J155000D01*
G01*
X146040000Y-82637500D01*
G75*
G02*
X146195000Y-82482500I155000J0D01*
G01*
G37*
G36*
G01*
X146195000Y-81417500D02*
X146505000Y-81417500D01*
G75*
G02*
X146660000Y-81572500I0J-155000D01*
G01*
X146660000Y-81997500D01*
G75*
G02*
X146505000Y-82152500I-155000J0D01*
G01*
X146195000Y-82152500D01*
G75*
G02*
X146040000Y-81997500I0J155000D01*
G01*
X146040000Y-81572500D01*
G75*
G02*
X146195000Y-81417500I155000J0D01*
G01*
G37*
G36*
G01*
X146195000Y-80282500D02*
X146505000Y-80282500D01*
G75*
G02*
X146660000Y-80437500I0J-155000D01*
G01*
X146660000Y-80862500D01*
G75*
G02*
X146505000Y-81017500I-155000J0D01*
G01*
X146195000Y-81017500D01*
G75*
G02*
X146040000Y-80862500I0J155000D01*
G01*
X146040000Y-80437500D01*
G75*
G02*
X146195000Y-80282500I155000J0D01*
G01*
G37*
G36*
G01*
X134115000Y-80997500D02*
X134425000Y-80997500D01*
G75*
G02*
X134580000Y-81152500I0J-155000D01*
G01*
X134580000Y-81577500D01*
G75*
G02*
X134425000Y-81732500I-155000J0D01*
G01*
X134115000Y-81732500D01*
G75*
G02*
X133960000Y-81577500I0J155000D01*
G01*
X133960000Y-81152500D01*
G75*
G02*
X134115000Y-80997500I155000J0D01*
G01*
G37*
G36*
G01*
X134115000Y-79862500D02*
X134425000Y-79862500D01*
G75*
G02*
X134580000Y-80017500I0J-155000D01*
G01*
X134580000Y-80442500D01*
G75*
G02*
X134425000Y-80597500I-155000J0D01*
G01*
X134115000Y-80597500D01*
G75*
G02*
X133960000Y-80442500I0J155000D01*
G01*
X133960000Y-80017500D01*
G75*
G02*
X134115000Y-79862500I155000J0D01*
G01*
G37*
G36*
G01*
X122717500Y-77910000D02*
X122717500Y-78220000D01*
G75*
G02*
X122562500Y-78375000I-155000J0D01*
G01*
X122137500Y-78375000D01*
G75*
G02*
X121982500Y-78220000I0J155000D01*
G01*
X121982500Y-77910000D01*
G75*
G02*
X122137500Y-77755000I155000J0D01*
G01*
X122562500Y-77755000D01*
G75*
G02*
X122717500Y-77910000I0J-155000D01*
G01*
G37*
G36*
G01*
X123852500Y-77910000D02*
X123852500Y-78220000D01*
G75*
G02*
X123697500Y-78375000I-155000J0D01*
G01*
X123272500Y-78375000D01*
G75*
G02*
X123117500Y-78220000I0J155000D01*
G01*
X123117500Y-77910000D01*
G75*
G02*
X123272500Y-77755000I155000J0D01*
G01*
X123697500Y-77755000D01*
G75*
G02*
X123852500Y-77910000I0J-155000D01*
G01*
G37*
G36*
G01*
X127500000Y-78190000D02*
X127500000Y-77880000D01*
G75*
G02*
X127655000Y-77725000I155000J0D01*
G01*
X128080000Y-77725000D01*
G75*
G02*
X128235000Y-77880000I0J-155000D01*
G01*
X128235000Y-78190000D01*
G75*
G02*
X128080000Y-78345000I-155000J0D01*
G01*
X127655000Y-78345000D01*
G75*
G02*
X127500000Y-78190000I0J155000D01*
G01*
G37*
G36*
G01*
X126365000Y-78190000D02*
X126365000Y-77880000D01*
G75*
G02*
X126520000Y-77725000I155000J0D01*
G01*
X126945000Y-77725000D01*
G75*
G02*
X127100000Y-77880000I0J-155000D01*
G01*
X127100000Y-78190000D01*
G75*
G02*
X126945000Y-78345000I-155000J0D01*
G01*
X126520000Y-78345000D01*
G75*
G02*
X126365000Y-78190000I0J155000D01*
G01*
G37*
G36*
G01*
X129317500Y-77880000D02*
X129317500Y-78190000D01*
G75*
G02*
X129162500Y-78345000I-155000J0D01*
G01*
X128737500Y-78345000D01*
G75*
G02*
X128582500Y-78190000I0J155000D01*
G01*
X128582500Y-77880000D01*
G75*
G02*
X128737500Y-77725000I155000J0D01*
G01*
X129162500Y-77725000D01*
G75*
G02*
X129317500Y-77880000I0J-155000D01*
G01*
G37*
G36*
G01*
X130452500Y-77880000D02*
X130452500Y-78190000D01*
G75*
G02*
X130297500Y-78345000I-155000J0D01*
G01*
X129872500Y-78345000D01*
G75*
G02*
X129717500Y-78190000I0J155000D01*
G01*
X129717500Y-77880000D01*
G75*
G02*
X129872500Y-77725000I155000J0D01*
G01*
X130297500Y-77725000D01*
G75*
G02*
X130452500Y-77880000I0J-155000D01*
G01*
G37*
G36*
G01*
X125317500Y-78190000D02*
X125317500Y-77880000D01*
G75*
G02*
X125472500Y-77725000I155000J0D01*
G01*
X125897500Y-77725000D01*
G75*
G02*
X126052500Y-77880000I0J-155000D01*
G01*
X126052500Y-78190000D01*
G75*
G02*
X125897500Y-78345000I-155000J0D01*
G01*
X125472500Y-78345000D01*
G75*
G02*
X125317500Y-78190000I0J155000D01*
G01*
G37*
G36*
G01*
X124182500Y-78190000D02*
X124182500Y-77880000D01*
G75*
G02*
X124337500Y-77725000I155000J0D01*
G01*
X124762500Y-77725000D01*
G75*
G02*
X124917500Y-77880000I0J-155000D01*
G01*
X124917500Y-78190000D01*
G75*
G02*
X124762500Y-78345000I-155000J0D01*
G01*
X124337500Y-78345000D01*
G75*
G02*
X124182500Y-78190000I0J155000D01*
G01*
G37*
G36*
G01*
X127122500Y-76890000D02*
X127122500Y-77200000D01*
G75*
G02*
X126967500Y-77355000I-155000J0D01*
G01*
X126542500Y-77355000D01*
G75*
G02*
X126387500Y-77200000I0J155000D01*
G01*
X126387500Y-76890000D01*
G75*
G02*
X126542500Y-76735000I155000J0D01*
G01*
X126967500Y-76735000D01*
G75*
G02*
X127122500Y-76890000I0J-155000D01*
G01*
G37*
G36*
G01*
X128257500Y-76890000D02*
X128257500Y-77200000D01*
G75*
G02*
X128102500Y-77355000I-155000J0D01*
G01*
X127677500Y-77355000D01*
G75*
G02*
X127522500Y-77200000I0J155000D01*
G01*
X127522500Y-76890000D01*
G75*
G02*
X127677500Y-76735000I155000J0D01*
G01*
X128102500Y-76735000D01*
G75*
G02*
X128257500Y-76890000I0J-155000D01*
G01*
G37*
G36*
G01*
X129712500Y-77200000D02*
X129712500Y-76890000D01*
G75*
G02*
X129867500Y-76735000I155000J0D01*
G01*
X130292500Y-76735000D01*
G75*
G02*
X130447500Y-76890000I0J-155000D01*
G01*
X130447500Y-77200000D01*
G75*
G02*
X130292500Y-77355000I-155000J0D01*
G01*
X129867500Y-77355000D01*
G75*
G02*
X129712500Y-77200000I0J155000D01*
G01*
G37*
G36*
G01*
X128577500Y-77200000D02*
X128577500Y-76890000D01*
G75*
G02*
X128732500Y-76735000I155000J0D01*
G01*
X129157500Y-76735000D01*
G75*
G02*
X129312500Y-76890000I0J-155000D01*
G01*
X129312500Y-77200000D01*
G75*
G02*
X129157500Y-77355000I-155000J0D01*
G01*
X128732500Y-77355000D01*
G75*
G02*
X128577500Y-77200000I0J155000D01*
G01*
G37*
G36*
G01*
X124917500Y-76905000D02*
X124917500Y-77215000D01*
G75*
G02*
X124762500Y-77370000I-155000J0D01*
G01*
X124337500Y-77370000D01*
G75*
G02*
X124182500Y-77215000I0J155000D01*
G01*
X124182500Y-76905000D01*
G75*
G02*
X124337500Y-76750000I155000J0D01*
G01*
X124762500Y-76750000D01*
G75*
G02*
X124917500Y-76905000I0J-155000D01*
G01*
G37*
G36*
G01*
X126052500Y-76905000D02*
X126052500Y-77215000D01*
G75*
G02*
X125897500Y-77370000I-155000J0D01*
G01*
X125472500Y-77370000D01*
G75*
G02*
X125317500Y-77215000I0J155000D01*
G01*
X125317500Y-76905000D01*
G75*
G02*
X125472500Y-76750000I155000J0D01*
G01*
X125897500Y-76750000D01*
G75*
G02*
X126052500Y-76905000I0J-155000D01*
G01*
G37*
G36*
G01*
X103612500Y-74495000D02*
X103612500Y-74175000D01*
G75*
G02*
X103772500Y-74015000I160000J0D01*
G01*
X104167500Y-74015000D01*
G75*
G02*
X104327500Y-74175000I0J-160000D01*
G01*
X104327500Y-74495000D01*
G75*
G02*
X104167500Y-74655000I-160000J0D01*
G01*
X103772500Y-74655000D01*
G75*
G02*
X103612500Y-74495000I0J160000D01*
G01*
G37*
G36*
G01*
X102417500Y-74495000D02*
X102417500Y-74175000D01*
G75*
G02*
X102577500Y-74015000I160000J0D01*
G01*
X102972500Y-74015000D01*
G75*
G02*
X103132500Y-74175000I0J-160000D01*
G01*
X103132500Y-74495000D01*
G75*
G02*
X102972500Y-74655000I-160000J0D01*
G01*
X102577500Y-74655000D01*
G75*
G02*
X102417500Y-74495000I0J160000D01*
G01*
G37*
G36*
G01*
X103127500Y-73185000D02*
X103127500Y-73505000D01*
G75*
G02*
X102967500Y-73665000I-160000J0D01*
G01*
X102572500Y-73665000D01*
G75*
G02*
X102412500Y-73505000I0J160000D01*
G01*
X102412500Y-73185000D01*
G75*
G02*
X102572500Y-73025000I160000J0D01*
G01*
X102967500Y-73025000D01*
G75*
G02*
X103127500Y-73185000I0J-160000D01*
G01*
G37*
G36*
G01*
X104322500Y-73185000D02*
X104322500Y-73505000D01*
G75*
G02*
X104162500Y-73665000I-160000J0D01*
G01*
X103767500Y-73665000D01*
G75*
G02*
X103607500Y-73505000I0J160000D01*
G01*
X103607500Y-73185000D01*
G75*
G02*
X103767500Y-73025000I160000J0D01*
G01*
X104162500Y-73025000D01*
G75*
G02*
X104322500Y-73185000I0J-160000D01*
G01*
G37*
G36*
G01*
X113327500Y-73475000D02*
X113327500Y-73165000D01*
G75*
G02*
X113482500Y-73010000I155000J0D01*
G01*
X113907500Y-73010000D01*
G75*
G02*
X114062500Y-73165000I0J-155000D01*
G01*
X114062500Y-73475000D01*
G75*
G02*
X113907500Y-73630000I-155000J0D01*
G01*
X113482500Y-73630000D01*
G75*
G02*
X113327500Y-73475000I0J155000D01*
G01*
G37*
G36*
G01*
X112192500Y-73475000D02*
X112192500Y-73165000D01*
G75*
G02*
X112347500Y-73010000I155000J0D01*
G01*
X112772500Y-73010000D01*
G75*
G02*
X112927500Y-73165000I0J-155000D01*
G01*
X112927500Y-73475000D01*
G75*
G02*
X112772500Y-73630000I-155000J0D01*
G01*
X112347500Y-73630000D01*
G75*
G02*
X112192500Y-73475000I0J155000D01*
G01*
G37*
G36*
G01*
X111365000Y-74757500D02*
X111675000Y-74757500D01*
G75*
G02*
X111830000Y-74912500I0J-155000D01*
G01*
X111830000Y-75337500D01*
G75*
G02*
X111675000Y-75492500I-155000J0D01*
G01*
X111365000Y-75492500D01*
G75*
G02*
X111210000Y-75337500I0J155000D01*
G01*
X111210000Y-74912500D01*
G75*
G02*
X111365000Y-74757500I155000J0D01*
G01*
G37*
G36*
G01*
X111365000Y-73622500D02*
X111675000Y-73622500D01*
G75*
G02*
X111830000Y-73777500I0J-155000D01*
G01*
X111830000Y-74202500D01*
G75*
G02*
X111675000Y-74357500I-155000J0D01*
G01*
X111365000Y-74357500D01*
G75*
G02*
X111210000Y-74202500I0J155000D01*
G01*
X111210000Y-73777500D01*
G75*
G02*
X111365000Y-73622500I155000J0D01*
G01*
G37*
G36*
G01*
X111675000Y-71882500D02*
X111365000Y-71882500D01*
G75*
G02*
X111210000Y-71727500I0J155000D01*
G01*
X111210000Y-71302500D01*
G75*
G02*
X111365000Y-71147500I155000J0D01*
G01*
X111675000Y-71147500D01*
G75*
G02*
X111830000Y-71302500I0J-155000D01*
G01*
X111830000Y-71727500D01*
G75*
G02*
X111675000Y-71882500I-155000J0D01*
G01*
G37*
G36*
G01*
X111675000Y-73017500D02*
X111365000Y-73017500D01*
G75*
G02*
X111210000Y-72862500I0J155000D01*
G01*
X111210000Y-72437500D01*
G75*
G02*
X111365000Y-72282500I155000J0D01*
G01*
X111675000Y-72282500D01*
G75*
G02*
X111830000Y-72437500I0J-155000D01*
G01*
X111830000Y-72862500D01*
G75*
G02*
X111675000Y-73017500I-155000J0D01*
G01*
G37*
G36*
G01*
X111150000Y-70590000D02*
X111150000Y-70280000D01*
G75*
G02*
X111305000Y-70125000I155000J0D01*
G01*
X111730000Y-70125000D01*
G75*
G02*
X111885000Y-70280000I0J-155000D01*
G01*
X111885000Y-70590000D01*
G75*
G02*
X111730000Y-70745000I-155000J0D01*
G01*
X111305000Y-70745000D01*
G75*
G02*
X111150000Y-70590000I0J155000D01*
G01*
G37*
G36*
G01*
X110015000Y-70590000D02*
X110015000Y-70280000D01*
G75*
G02*
X110170000Y-70125000I155000J0D01*
G01*
X110595000Y-70125000D01*
G75*
G02*
X110750000Y-70280000I0J-155000D01*
G01*
X110750000Y-70590000D01*
G75*
G02*
X110595000Y-70745000I-155000J0D01*
G01*
X110170000Y-70745000D01*
G75*
G02*
X110015000Y-70590000I0J155000D01*
G01*
G37*
G36*
G01*
X113700000Y-71467500D02*
X113380000Y-71467500D01*
G75*
G02*
X113220000Y-71307500I0J160000D01*
G01*
X113220000Y-70912500D01*
G75*
G02*
X113380000Y-70752500I160000J0D01*
G01*
X113700000Y-70752500D01*
G75*
G02*
X113860000Y-70912500I0J-160000D01*
G01*
X113860000Y-71307500D01*
G75*
G02*
X113700000Y-71467500I-160000J0D01*
G01*
G37*
G36*
G01*
X113700000Y-72662500D02*
X113380000Y-72662500D01*
G75*
G02*
X113220000Y-72502500I0J160000D01*
G01*
X113220000Y-72107500D01*
G75*
G02*
X113380000Y-71947500I160000J0D01*
G01*
X113700000Y-71947500D01*
G75*
G02*
X113860000Y-72107500I0J-160000D01*
G01*
X113860000Y-72502500D01*
G75*
G02*
X113700000Y-72662500I-160000J0D01*
G01*
G37*
D24*
X145740000Y-65730000D03*
X145740000Y-74230000D03*
D25*
X103420000Y-86520000D03*
X103420000Y-83820000D03*
X103420000Y-89220000D03*
D26*
X134350000Y-91300000D03*
X133950000Y-91300000D03*
D27*
X133250000Y-91600000D03*
X133250000Y-92000000D03*
X133250000Y-92400000D03*
D26*
X133950000Y-92700000D03*
X134350000Y-92700000D03*
D27*
X135050000Y-92400000D03*
X135050000Y-92000000D03*
X135050000Y-91600000D03*
D18*
X117190000Y-78465000D03*
X119190000Y-77515000D03*
X119190000Y-79415000D03*
D28*
X106454000Y-72320000D03*
X106454000Y-72820000D03*
X106454000Y-73320000D03*
X106454000Y-73820000D03*
X106454000Y-74320000D03*
X106454000Y-74820000D03*
X110324000Y-74820000D03*
X110324000Y-74320000D03*
X110324000Y-73820000D03*
X110324000Y-73320000D03*
X110324000Y-72820000D03*
X110324000Y-72320000D03*
D29*
X109639000Y-71635000D03*
X109139000Y-71635000D03*
X108639000Y-71635000D03*
X108139000Y-71635000D03*
X107639000Y-71635000D03*
X107139000Y-71635000D03*
X107139000Y-75505000D03*
X107639000Y-75505000D03*
X108139000Y-75505000D03*
X108639000Y-75505000D03*
X109139000Y-75505000D03*
X109639000Y-75505000D03*
G36*
G01*
X102930000Y-71424999D02*
X102930000Y-72325001D01*
G75*
G02*
X102680001Y-72575000I-249999J0D01*
G01*
X101979999Y-72575000D01*
G75*
G02*
X101730000Y-72325001I0J249999D01*
G01*
X101730000Y-71424999D01*
G75*
G02*
X101979999Y-71175000I249999J0D01*
G01*
X102680001Y-71175000D01*
G75*
G02*
X102930000Y-71424999I0J-249999D01*
G01*
G37*
G36*
G01*
X104930000Y-71424999D02*
X104930000Y-72325001D01*
G75*
G02*
X104680001Y-72575000I-249999J0D01*
G01*
X103979999Y-72575000D01*
G75*
G02*
X103730000Y-72325001I0J249999D01*
G01*
X103730000Y-71424999D01*
G75*
G02*
X103979999Y-71175000I249999J0D01*
G01*
X104680001Y-71175000D01*
G75*
G02*
X104930000Y-71424999I0J-249999D01*
G01*
G37*
G36*
G01*
X135507500Y-99632500D02*
X135507500Y-100107500D01*
G75*
G02*
X135270000Y-100345000I-237500J0D01*
G01*
X134770000Y-100345000D01*
G75*
G02*
X134532500Y-100107500I0J237500D01*
G01*
X134532500Y-99632500D01*
G75*
G02*
X134770000Y-99395000I237500J0D01*
G01*
X135270000Y-99395000D01*
G75*
G02*
X135507500Y-99632500I0J-237500D01*
G01*
G37*
G36*
G01*
X137332500Y-99632500D02*
X137332500Y-100107500D01*
G75*
G02*
X137095000Y-100345000I-237500J0D01*
G01*
X136595000Y-100345000D01*
G75*
G02*
X136357500Y-100107500I0J237500D01*
G01*
X136357500Y-99632500D01*
G75*
G02*
X136595000Y-99395000I237500J0D01*
G01*
X137095000Y-99395000D01*
G75*
G02*
X137332500Y-99632500I0J-237500D01*
G01*
G37*
G36*
G01*
X126282500Y-101632500D02*
X126757500Y-101632500D01*
G75*
G02*
X126995000Y-101870000I0J-237500D01*
G01*
X126995000Y-102370000D01*
G75*
G02*
X126757500Y-102607500I-237500J0D01*
G01*
X126282500Y-102607500D01*
G75*
G02*
X126045000Y-102370000I0J237500D01*
G01*
X126045000Y-101870000D01*
G75*
G02*
X126282500Y-101632500I237500J0D01*
G01*
G37*
G36*
G01*
X126282500Y-99807500D02*
X126757500Y-99807500D01*
G75*
G02*
X126995000Y-100045000I0J-237500D01*
G01*
X126995000Y-100545000D01*
G75*
G02*
X126757500Y-100782500I-237500J0D01*
G01*
X126282500Y-100782500D01*
G75*
G02*
X126045000Y-100545000I0J237500D01*
G01*
X126045000Y-100045000D01*
G75*
G02*
X126282500Y-99807500I237500J0D01*
G01*
G37*
G36*
G01*
X125927500Y-99007500D02*
X125927500Y-98532500D01*
G75*
G02*
X126165000Y-98295000I237500J0D01*
G01*
X126665000Y-98295000D01*
G75*
G02*
X126902500Y-98532500I0J-237500D01*
G01*
X126902500Y-99007500D01*
G75*
G02*
X126665000Y-99245000I-237500J0D01*
G01*
X126165000Y-99245000D01*
G75*
G02*
X125927500Y-99007500I0J237500D01*
G01*
G37*
G36*
G01*
X124102500Y-99007500D02*
X124102500Y-98532500D01*
G75*
G02*
X124340000Y-98295000I237500J0D01*
G01*
X124840000Y-98295000D01*
G75*
G02*
X125077500Y-98532500I0J-237500D01*
G01*
X125077500Y-99007500D01*
G75*
G02*
X124840000Y-99245000I-237500J0D01*
G01*
X124340000Y-99245000D01*
G75*
G02*
X124102500Y-99007500I0J237500D01*
G01*
G37*
G36*
G01*
X113387500Y-69432500D02*
X113387500Y-68957500D01*
G75*
G02*
X113625000Y-68720000I237500J0D01*
G01*
X114125000Y-68720000D01*
G75*
G02*
X114362500Y-68957500I0J-237500D01*
G01*
X114362500Y-69432500D01*
G75*
G02*
X114125000Y-69670000I-237500J0D01*
G01*
X113625000Y-69670000D01*
G75*
G02*
X113387500Y-69432500I0J237500D01*
G01*
G37*
G36*
G01*
X111562500Y-69432500D02*
X111562500Y-68957500D01*
G75*
G02*
X111800000Y-68720000I237500J0D01*
G01*
X112300000Y-68720000D01*
G75*
G02*
X112537500Y-68957500I0J-237500D01*
G01*
X112537500Y-69432500D01*
G75*
G02*
X112300000Y-69670000I-237500J0D01*
G01*
X111800000Y-69670000D01*
G75*
G02*
X111562500Y-69432500I0J237500D01*
G01*
G37*
D18*
X130090000Y-99860000D03*
X128090000Y-100810000D03*
X128090000Y-98910000D03*
D30*
X113840000Y-74650000D03*
X113840000Y-77250000D03*
G36*
G01*
X132955000Y-100097500D02*
X132955000Y-99622500D01*
G75*
G02*
X133192500Y-99385000I237500J0D01*
G01*
X133767500Y-99385000D01*
G75*
G02*
X134005000Y-99622500I0J-237500D01*
G01*
X134005000Y-100097500D01*
G75*
G02*
X133767500Y-100335000I-237500J0D01*
G01*
X133192500Y-100335000D01*
G75*
G02*
X132955000Y-100097500I0J237500D01*
G01*
G37*
G36*
G01*
X131205000Y-100097500D02*
X131205000Y-99622500D01*
G75*
G02*
X131442500Y-99385000I237500J0D01*
G01*
X132017500Y-99385000D01*
G75*
G02*
X132255000Y-99622500I0J-237500D01*
G01*
X132255000Y-100097500D01*
G75*
G02*
X132017500Y-100335000I-237500J0D01*
G01*
X131442500Y-100335000D01*
G75*
G02*
X131205000Y-100097500I0J237500D01*
G01*
G37*
G36*
G01*
X107495000Y-80222500D02*
X107185000Y-80222500D01*
G75*
G02*
X107030000Y-80067500I0J155000D01*
G01*
X107030000Y-79642500D01*
G75*
G02*
X107185000Y-79487500I155000J0D01*
G01*
X107495000Y-79487500D01*
G75*
G02*
X107650000Y-79642500I0J-155000D01*
G01*
X107650000Y-80067500D01*
G75*
G02*
X107495000Y-80222500I-155000J0D01*
G01*
G37*
G36*
G01*
X107495000Y-81357500D02*
X107185000Y-81357500D01*
G75*
G02*
X107030000Y-81202500I0J155000D01*
G01*
X107030000Y-80777500D01*
G75*
G02*
X107185000Y-80622500I155000J0D01*
G01*
X107495000Y-80622500D01*
G75*
G02*
X107650000Y-80777500I0J-155000D01*
G01*
X107650000Y-81202500D01*
G75*
G02*
X107495000Y-81357500I-155000J0D01*
G01*
G37*
G36*
G01*
X108485000Y-80212500D02*
X108175000Y-80212500D01*
G75*
G02*
X108020000Y-80057500I0J155000D01*
G01*
X108020000Y-79632500D01*
G75*
G02*
X108175000Y-79477500I155000J0D01*
G01*
X108485000Y-79477500D01*
G75*
G02*
X108640000Y-79632500I0J-155000D01*
G01*
X108640000Y-80057500D01*
G75*
G02*
X108485000Y-80212500I-155000J0D01*
G01*
G37*
G36*
G01*
X108485000Y-81347500D02*
X108175000Y-81347500D01*
G75*
G02*
X108020000Y-81192500I0J155000D01*
G01*
X108020000Y-80767500D01*
G75*
G02*
X108175000Y-80612500I155000J0D01*
G01*
X108485000Y-80612500D01*
G75*
G02*
X108640000Y-80767500I0J-155000D01*
G01*
X108640000Y-81192500D01*
G75*
G02*
X108485000Y-81347500I-155000J0D01*
G01*
G37*
G36*
G01*
X109465000Y-80212500D02*
X109155000Y-80212500D01*
G75*
G02*
X109000000Y-80057500I0J155000D01*
G01*
X109000000Y-79632500D01*
G75*
G02*
X109155000Y-79477500I155000J0D01*
G01*
X109465000Y-79477500D01*
G75*
G02*
X109620000Y-79632500I0J-155000D01*
G01*
X109620000Y-80057500D01*
G75*
G02*
X109465000Y-80212500I-155000J0D01*
G01*
G37*
G36*
G01*
X109465000Y-81347500D02*
X109155000Y-81347500D01*
G75*
G02*
X109000000Y-81192500I0J155000D01*
G01*
X109000000Y-80767500D01*
G75*
G02*
X109155000Y-80612500I155000J0D01*
G01*
X109465000Y-80612500D01*
G75*
G02*
X109620000Y-80767500I0J-155000D01*
G01*
X109620000Y-81192500D01*
G75*
G02*
X109465000Y-81347500I-155000J0D01*
G01*
G37*
G36*
G01*
X142587500Y-66115000D02*
X142112500Y-66115000D01*
G75*
G02*
X141875000Y-65877500I0J237500D01*
G01*
X141875000Y-65277500D01*
G75*
G02*
X142112500Y-65040000I237500J0D01*
G01*
X142587500Y-65040000D01*
G75*
G02*
X142825000Y-65277500I0J-237500D01*
G01*
X142825000Y-65877500D01*
G75*
G02*
X142587500Y-66115000I-237500J0D01*
G01*
G37*
G36*
G01*
X142587500Y-67840000D02*
X142112500Y-67840000D01*
G75*
G02*
X141875000Y-67602500I0J237500D01*
G01*
X141875000Y-67002500D01*
G75*
G02*
X142112500Y-66765000I237500J0D01*
G01*
X142587500Y-66765000D01*
G75*
G02*
X142825000Y-67002500I0J-237500D01*
G01*
X142825000Y-67602500D01*
G75*
G02*
X142587500Y-67840000I-237500J0D01*
G01*
G37*
G36*
G01*
X146435000Y-77312500D02*
X146435000Y-77787500D01*
G75*
G02*
X146197500Y-78025000I-237500J0D01*
G01*
X145597500Y-78025000D01*
G75*
G02*
X145360000Y-77787500I0J237500D01*
G01*
X145360000Y-77312500D01*
G75*
G02*
X145597500Y-77075000I237500J0D01*
G01*
X146197500Y-77075000D01*
G75*
G02*
X146435000Y-77312500I0J-237500D01*
G01*
G37*
G36*
G01*
X148160000Y-77312500D02*
X148160000Y-77787500D01*
G75*
G02*
X147922500Y-78025000I-237500J0D01*
G01*
X147322500Y-78025000D01*
G75*
G02*
X147085000Y-77787500I0J237500D01*
G01*
X147085000Y-77312500D01*
G75*
G02*
X147322500Y-77075000I237500J0D01*
G01*
X147922500Y-77075000D01*
G75*
G02*
X148160000Y-77312500I0J-237500D01*
G01*
G37*
G36*
G01*
X118005000Y-80657500D02*
X118005000Y-81132500D01*
G75*
G02*
X117767500Y-81370000I-237500J0D01*
G01*
X117167500Y-81370000D01*
G75*
G02*
X116930000Y-81132500I0J237500D01*
G01*
X116930000Y-80657500D01*
G75*
G02*
X117167500Y-80420000I237500J0D01*
G01*
X117767500Y-80420000D01*
G75*
G02*
X118005000Y-80657500I0J-237500D01*
G01*
G37*
G36*
G01*
X119730000Y-80657500D02*
X119730000Y-81132500D01*
G75*
G02*
X119492500Y-81370000I-237500J0D01*
G01*
X118892500Y-81370000D01*
G75*
G02*
X118655000Y-81132500I0J237500D01*
G01*
X118655000Y-80657500D01*
G75*
G02*
X118892500Y-80420000I237500J0D01*
G01*
X119492500Y-80420000D01*
G75*
G02*
X119730000Y-80657500I0J-237500D01*
G01*
G37*
G36*
G01*
X120492500Y-78540000D02*
X120967500Y-78540000D01*
G75*
G02*
X121205000Y-78777500I0J-237500D01*
G01*
X121205000Y-79377500D01*
G75*
G02*
X120967500Y-79615000I-237500J0D01*
G01*
X120492500Y-79615000D01*
G75*
G02*
X120255000Y-79377500I0J237500D01*
G01*
X120255000Y-78777500D01*
G75*
G02*
X120492500Y-78540000I237500J0D01*
G01*
G37*
G36*
G01*
X120492500Y-76815000D02*
X120967500Y-76815000D01*
G75*
G02*
X121205000Y-77052500I0J-237500D01*
G01*
X121205000Y-77652500D01*
G75*
G02*
X120967500Y-77890000I-237500J0D01*
G01*
X120492500Y-77890000D01*
G75*
G02*
X120255000Y-77652500I0J237500D01*
G01*
X120255000Y-77052500D01*
G75*
G02*
X120492500Y-76815000I237500J0D01*
G01*
G37*
G36*
G01*
X114520000Y-80729500D02*
X114520000Y-78880500D01*
G75*
G02*
X114770500Y-78630000I250500J0D01*
G01*
X115769500Y-78630000D01*
G75*
G02*
X116020000Y-78880500I0J-250500D01*
G01*
X116020000Y-80729500D01*
G75*
G02*
X115769500Y-80980000I-250500J0D01*
G01*
X114770500Y-80980000D01*
G75*
G02*
X114520000Y-80729500I0J250500D01*
G01*
G37*
G36*
G01*
X111270000Y-80730000D02*
X111270000Y-78880000D01*
G75*
G02*
X111520000Y-78630000I250000J0D01*
G01*
X112520000Y-78630000D01*
G75*
G02*
X112770000Y-78880000I0J-250000D01*
G01*
X112770000Y-80730000D01*
G75*
G02*
X112520000Y-80980000I-250000J0D01*
G01*
X111520000Y-80980000D01*
G75*
G02*
X111270000Y-80730000I0J250000D01*
G01*
G37*
M02*
