G04 #@! TF.GenerationSoftware,KiCad,Pcbnew,5.1.10-88a1d61d58~90~ubuntu20.04.1*
G04 #@! TF.CreationDate,2021-10-18T20:01:28+01:00*
G04 #@! TF.ProjectId,GPS Hardware,47505320-4861-4726-9477-6172652e6b69,rev?*
G04 #@! TF.SameCoordinates,Original*
G04 #@! TF.FileFunction,Copper,L4,Bot*
G04 #@! TF.FilePolarity,Positive*
%FSLAX46Y46*%
G04 Gerber Fmt 4.6, Leading zero omitted, Abs format (unit mm)*
G04 Created by KiCad (PCBNEW 5.1.10-88a1d61d58~90~ubuntu20.04.1) date 2021-10-18 20:01:28*
%MOMM*%
%LPD*%
G01*
G04 APERTURE LIST*
G04 #@! TA.AperFunction,ComponentPad*
%ADD10C,1.508000*%
G04 #@! TD*
G04 #@! TA.AperFunction,ComponentPad*
%ADD11R,1.508000X1.508000*%
G04 #@! TD*
G04 #@! TA.AperFunction,SMDPad,CuDef*
%ADD12R,1.500000X1.800000*%
G04 #@! TD*
G04 #@! TA.AperFunction,SMDPad,CuDef*
%ADD13R,1.800000X1.500000*%
G04 #@! TD*
G04 #@! TA.AperFunction,ComponentPad*
%ADD14O,1.000000X2.100000*%
G04 #@! TD*
G04 #@! TA.AperFunction,ComponentPad*
%ADD15O,1.000000X1.600000*%
G04 #@! TD*
G04 #@! TA.AperFunction,SMDPad,CuDef*
%ADD16R,3.500000X1.500000*%
G04 #@! TD*
G04 #@! TA.AperFunction,ViaPad*
%ADD17C,0.450000*%
G04 #@! TD*
G04 #@! TA.AperFunction,Conductor*
%ADD18C,0.250000*%
G04 #@! TD*
G04 #@! TA.AperFunction,Conductor*
%ADD19C,0.254000*%
G04 #@! TD*
G04 #@! TA.AperFunction,Conductor*
%ADD20C,0.100000*%
G04 #@! TD*
G04 APERTURE END LIST*
D10*
X103265000Y-80030000D03*
D11*
X103265000Y-77530000D03*
D12*
X121230000Y-90060000D03*
X123130000Y-90060000D03*
X125030000Y-90060000D03*
X126930000Y-90060000D03*
X128830000Y-90060000D03*
D13*
X131630000Y-87260000D03*
X131630000Y-85360000D03*
X131630000Y-83460000D03*
X131630000Y-81560000D03*
X131630000Y-79660000D03*
D12*
X128830000Y-76860000D03*
X126930000Y-76860000D03*
X125030000Y-76860000D03*
X123130000Y-76860000D03*
X121230000Y-76860000D03*
D13*
X118430000Y-79660000D03*
X118430000Y-81560000D03*
X118430000Y-83460000D03*
X118430000Y-85360000D03*
X118430000Y-87260000D03*
G04 #@! TA.AperFunction,SMDPad,CuDef*
G36*
G01*
X125812500Y-92035000D02*
X125812500Y-92345000D01*
G75*
G02*
X125657500Y-92500000I-155000J0D01*
G01*
X125232500Y-92500000D01*
G75*
G02*
X125077500Y-92345000I0J155000D01*
G01*
X125077500Y-92035000D01*
G75*
G02*
X125232500Y-91880000I155000J0D01*
G01*
X125657500Y-91880000D01*
G75*
G02*
X125812500Y-92035000I0J-155000D01*
G01*
G37*
G04 #@! TD.AperFunction*
G04 #@! TA.AperFunction,SMDPad,CuDef*
G36*
G01*
X126947500Y-92035000D02*
X126947500Y-92345000D01*
G75*
G02*
X126792500Y-92500000I-155000J0D01*
G01*
X126367500Y-92500000D01*
G75*
G02*
X126212500Y-92345000I0J155000D01*
G01*
X126212500Y-92035000D01*
G75*
G02*
X126367500Y-91880000I155000J0D01*
G01*
X126792500Y-91880000D01*
G75*
G02*
X126947500Y-92035000I0J-155000D01*
G01*
G37*
G04 #@! TD.AperFunction*
D14*
X103726000Y-66365000D03*
X112366000Y-66365000D03*
D15*
X112366000Y-62185000D03*
X103726000Y-62185000D03*
D16*
X103420000Y-83820000D03*
X103420000Y-89220000D03*
D17*
X102040000Y-89245000D03*
X104810000Y-89245000D03*
X102020000Y-83815000D03*
X104880000Y-83805000D03*
X125120000Y-92235000D03*
X142350000Y-65065000D03*
X133430000Y-94995000D03*
X135010000Y-94995000D03*
X132770000Y-98245000D03*
X128520000Y-100795000D03*
X126060000Y-102155000D03*
X111580000Y-66565000D03*
X104500000Y-66615000D03*
X137490000Y-67685000D03*
X134270000Y-83975000D03*
X111480000Y-83585000D03*
X110220000Y-92945000D03*
X109460000Y-92945000D03*
X110210000Y-90855000D03*
X109460000Y-90855000D03*
X110200000Y-88745000D03*
X109470000Y-88745000D03*
X110200000Y-86645000D03*
X109470000Y-86645000D03*
X109480000Y-84545000D03*
X110180000Y-84535000D03*
X111990000Y-84545000D03*
X116130000Y-85095000D03*
X122500000Y-84005000D03*
X125830000Y-85085000D03*
X129430000Y-85095000D03*
X127630000Y-85075000D03*
X129450000Y-87175000D03*
X127620000Y-87165000D03*
X127100000Y-93015000D03*
X129950000Y-92995000D03*
X130390000Y-95255000D03*
X129590000Y-95595000D03*
X127080000Y-95065000D03*
X125860000Y-95545000D03*
X122770000Y-95045000D03*
X122500000Y-96015000D03*
X116680000Y-95025000D03*
X112580000Y-96005000D03*
X113070000Y-95025000D03*
X110180000Y-95065000D03*
X109480000Y-95075000D03*
X107980000Y-95315000D03*
X107970000Y-94165000D03*
X107970000Y-91995000D03*
X107970000Y-90905000D03*
X107960000Y-89795000D03*
X107960000Y-88725000D03*
X107950000Y-87585000D03*
X107950000Y-85395000D03*
X107950000Y-84315000D03*
X106370000Y-77855000D03*
X115980000Y-79735000D03*
X114150000Y-73315000D03*
X107725000Y-74325000D03*
X134780000Y-81370000D03*
X116150000Y-98800000D03*
X116100000Y-100580000D03*
X117640000Y-80515000D03*
X116835000Y-78445000D03*
X111520000Y-71185000D03*
X103300000Y-68925000D03*
X102100000Y-70175000D03*
X101780000Y-71885000D03*
X102575000Y-74375000D03*
X102585000Y-73375000D03*
X109330000Y-69900000D03*
X108200000Y-69900000D03*
X120560000Y-105840000D03*
X116440000Y-105840000D03*
X145640000Y-81780000D03*
X145625000Y-83500000D03*
X111340000Y-70135000D03*
X109575000Y-76300000D03*
X109139000Y-74320000D03*
X105860000Y-69285000D03*
X105480000Y-71885000D03*
X106930000Y-79665000D03*
X107840000Y-79655000D03*
X108830000Y-79635000D03*
X109810000Y-79635000D03*
X108180000Y-96005000D03*
X110380000Y-96005000D03*
X116980000Y-96005000D03*
X127820000Y-91395000D03*
X129960000Y-90855000D03*
X128150000Y-89285000D03*
X128920000Y-89275000D03*
X130240000Y-84085000D03*
X130390000Y-86545000D03*
X119170000Y-82115000D03*
X135280000Y-82595000D03*
X107790000Y-65505000D03*
X108810000Y-65505000D03*
X113540000Y-70215000D03*
X120860000Y-100095000D03*
X133490000Y-91225000D03*
X104830000Y-74535000D03*
X148320000Y-77555000D03*
X105950000Y-83185000D03*
X105970000Y-90015000D03*
X137700000Y-62255000D03*
X101200000Y-64567500D03*
X101200000Y-67970000D03*
X101200000Y-71372500D03*
X101200000Y-74775000D03*
X101200000Y-78177500D03*
X101200000Y-81580000D03*
X101200000Y-84982500D03*
X101200000Y-88385000D03*
X101200000Y-91787500D03*
X101200000Y-95190000D03*
X101200000Y-98592500D03*
X101200000Y-101995000D03*
X101200000Y-105397500D03*
X101200000Y-108800000D03*
X104602500Y-108800000D03*
X108005000Y-108800000D03*
X111407500Y-108800000D03*
X114810000Y-108800000D03*
X118212500Y-108800000D03*
X121615000Y-108800000D03*
X125017500Y-108800000D03*
X128420000Y-108800000D03*
X131822500Y-108800000D03*
X135225000Y-108800000D03*
X138627500Y-108800000D03*
X142030000Y-108800000D03*
X145432500Y-108800000D03*
X148835000Y-64567500D03*
X148835000Y-67970000D03*
X148835000Y-71372500D03*
X148835000Y-74775000D03*
X148835000Y-78177500D03*
X148835000Y-81580000D03*
X148835000Y-84982500D03*
X148835000Y-88385000D03*
X148835000Y-91787500D03*
X148835000Y-95190000D03*
X148835000Y-98592500D03*
X148835000Y-101995000D03*
X148835000Y-105397500D03*
X148835000Y-108800000D03*
X117620000Y-79705000D03*
X136580000Y-93805000D03*
X135730000Y-93145000D03*
X136870000Y-98275000D03*
X137350000Y-85185000D03*
X138310000Y-85175000D03*
X139140000Y-85175000D03*
X139930000Y-85195000D03*
X140710000Y-85195000D03*
X121240000Y-89215000D03*
X119900000Y-79715000D03*
X141230000Y-89305000D03*
X139290000Y-89285000D03*
X140290000Y-89305000D03*
X136360000Y-67675000D03*
X141460000Y-76295000D03*
X117290000Y-105830000D03*
X121350000Y-105850000D03*
X119910000Y-80525000D03*
X116078000Y-99750000D03*
X145640000Y-80970000D03*
X134790000Y-80200000D03*
X145630000Y-82700000D03*
X137650000Y-97700000D03*
X138350000Y-89285000D03*
X129900000Y-93925000D03*
X133625000Y-93300000D03*
X136350000Y-94525000D03*
X118420000Y-85375000D03*
X126580000Y-91415000D03*
X101200000Y-61165000D03*
X148835000Y-61165000D03*
X117800000Y-62255000D03*
X130130000Y-62255000D03*
X130140000Y-74165000D03*
X117810000Y-74255000D03*
X126730000Y-78325000D03*
X124550000Y-78335000D03*
X121170000Y-79095000D03*
X122420000Y-75175000D03*
X121840000Y-77065000D03*
X121860000Y-78045000D03*
X130080000Y-77525000D03*
X105169583Y-61165000D03*
X109139166Y-61165000D03*
X113108749Y-61165000D03*
X117078332Y-61165000D03*
X121047915Y-61165000D03*
X125017498Y-61165000D03*
X128987081Y-61165000D03*
X132956664Y-61165000D03*
X136926247Y-61165000D03*
X140895830Y-61165000D03*
X144865413Y-61165000D03*
X107800000Y-66275000D03*
X108800000Y-66275000D03*
X138500000Y-62260000D03*
X140810000Y-88100000D03*
X105825000Y-70500000D03*
X139790000Y-88112500D03*
X105380000Y-69845000D03*
X138780000Y-88120000D03*
X106275000Y-71925000D03*
X143130000Y-76290000D03*
X113540000Y-71110000D03*
X107180000Y-70410000D03*
X111770000Y-69310000D03*
X105590000Y-72820000D03*
X112550000Y-71250000D03*
X104810000Y-72365000D03*
X105530000Y-74340000D03*
X123740000Y-96220000D03*
X137760000Y-88105000D03*
X137330000Y-87110000D03*
X127020000Y-96230000D03*
X134990000Y-92865000D03*
X131240000Y-83140000D03*
X123100000Y-89275000D03*
X135770000Y-93925000D03*
D18*
X126885000Y-90105000D02*
X126930000Y-90060000D01*
X118430000Y-85360000D02*
X118430000Y-83460000D01*
X126580000Y-90410000D02*
X126930000Y-90060000D01*
X126580000Y-91390000D02*
X126580000Y-90410000D01*
X126580000Y-92190000D02*
X126580000Y-91415000D01*
X126580000Y-91415000D02*
X126580000Y-91390000D01*
D19*
X149544001Y-109544000D02*
X100456000Y-109544000D01*
X100456000Y-105770314D01*
X116684000Y-105770314D01*
X116684000Y-105889686D01*
X116707288Y-106006764D01*
X116752970Y-106117049D01*
X116819289Y-106216302D01*
X116903698Y-106300711D01*
X117002951Y-106367030D01*
X117113236Y-106412712D01*
X117230314Y-106436000D01*
X117349686Y-106436000D01*
X117466764Y-106412712D01*
X117577049Y-106367030D01*
X117676302Y-106300711D01*
X117760711Y-106216302D01*
X117827030Y-106117049D01*
X117872712Y-106006764D01*
X117896000Y-105889686D01*
X117896000Y-105790314D01*
X120744000Y-105790314D01*
X120744000Y-105909686D01*
X120767288Y-106026764D01*
X120812970Y-106137049D01*
X120879289Y-106236302D01*
X120963698Y-106320711D01*
X121062951Y-106387030D01*
X121173236Y-106432712D01*
X121290314Y-106456000D01*
X121409686Y-106456000D01*
X121526764Y-106432712D01*
X121637049Y-106387030D01*
X121736302Y-106320711D01*
X121820711Y-106236302D01*
X121887030Y-106137049D01*
X121932712Y-106026764D01*
X121956000Y-105909686D01*
X121956000Y-105790314D01*
X121932712Y-105673236D01*
X121887030Y-105562951D01*
X121820711Y-105463698D01*
X121736302Y-105379289D01*
X121637049Y-105312970D01*
X121526764Y-105267288D01*
X121409686Y-105244000D01*
X121290314Y-105244000D01*
X121173236Y-105267288D01*
X121062951Y-105312970D01*
X120963698Y-105379289D01*
X120879289Y-105463698D01*
X120812970Y-105562951D01*
X120767288Y-105673236D01*
X120744000Y-105790314D01*
X117896000Y-105790314D01*
X117896000Y-105770314D01*
X117872712Y-105653236D01*
X117827030Y-105542951D01*
X117760711Y-105443698D01*
X117676302Y-105359289D01*
X117577049Y-105292970D01*
X117466764Y-105247288D01*
X117349686Y-105224000D01*
X117230314Y-105224000D01*
X117113236Y-105247288D01*
X117002951Y-105292970D01*
X116903698Y-105359289D01*
X116819289Y-105443698D01*
X116752970Y-105542951D01*
X116707288Y-105653236D01*
X116684000Y-105770314D01*
X100456000Y-105770314D01*
X100456000Y-99690314D01*
X115472000Y-99690314D01*
X115472000Y-99809686D01*
X115495288Y-99926764D01*
X115540970Y-100037049D01*
X115607289Y-100136302D01*
X115691698Y-100220711D01*
X115790951Y-100287030D01*
X115901236Y-100332712D01*
X116018314Y-100356000D01*
X116137686Y-100356000D01*
X116254764Y-100332712D01*
X116365049Y-100287030D01*
X116464302Y-100220711D01*
X116548711Y-100136302D01*
X116615030Y-100037049D01*
X116660712Y-99926764D01*
X116684000Y-99809686D01*
X116684000Y-99690314D01*
X116660712Y-99573236D01*
X116615030Y-99462951D01*
X116548711Y-99363698D01*
X116464302Y-99279289D01*
X116365049Y-99212970D01*
X116254764Y-99167288D01*
X116137686Y-99144000D01*
X116018314Y-99144000D01*
X115901236Y-99167288D01*
X115790951Y-99212970D01*
X115691698Y-99279289D01*
X115607289Y-99363698D01*
X115540970Y-99462951D01*
X115495288Y-99573236D01*
X115472000Y-99690314D01*
X100456000Y-99690314D01*
X100456000Y-97640314D01*
X137044000Y-97640314D01*
X137044000Y-97759686D01*
X137067288Y-97876764D01*
X137112970Y-97987049D01*
X137179289Y-98086302D01*
X137263698Y-98170711D01*
X137362951Y-98237030D01*
X137473236Y-98282712D01*
X137590314Y-98306000D01*
X137709686Y-98306000D01*
X137826764Y-98282712D01*
X137937049Y-98237030D01*
X138036302Y-98170711D01*
X138120711Y-98086302D01*
X138187030Y-97987049D01*
X138232712Y-97876764D01*
X138256000Y-97759686D01*
X138256000Y-97640314D01*
X138232712Y-97523236D01*
X138187030Y-97412951D01*
X138120711Y-97313698D01*
X138036302Y-97229289D01*
X137937049Y-97162970D01*
X137826764Y-97117288D01*
X137709686Y-97094000D01*
X137590314Y-97094000D01*
X137473236Y-97117288D01*
X137362951Y-97162970D01*
X137263698Y-97229289D01*
X137179289Y-97313698D01*
X137112970Y-97412951D01*
X137067288Y-97523236D01*
X137044000Y-97640314D01*
X100456000Y-97640314D01*
X100456000Y-96160314D01*
X123134000Y-96160314D01*
X123134000Y-96279686D01*
X123157288Y-96396764D01*
X123202970Y-96507049D01*
X123269289Y-96606302D01*
X123353698Y-96690711D01*
X123452951Y-96757030D01*
X123563236Y-96802712D01*
X123680314Y-96826000D01*
X123799686Y-96826000D01*
X123916764Y-96802712D01*
X124027049Y-96757030D01*
X124126302Y-96690711D01*
X124210711Y-96606302D01*
X124277030Y-96507049D01*
X124322712Y-96396764D01*
X124346000Y-96279686D01*
X124346000Y-96170314D01*
X126414000Y-96170314D01*
X126414000Y-96289686D01*
X126437288Y-96406764D01*
X126482970Y-96517049D01*
X126549289Y-96616302D01*
X126633698Y-96700711D01*
X126732951Y-96767030D01*
X126843236Y-96812712D01*
X126960314Y-96836000D01*
X127079686Y-96836000D01*
X127196764Y-96812712D01*
X127307049Y-96767030D01*
X127406302Y-96700711D01*
X127490711Y-96616302D01*
X127557030Y-96517049D01*
X127602712Y-96406764D01*
X127626000Y-96289686D01*
X127626000Y-96170314D01*
X127602712Y-96053236D01*
X127557030Y-95942951D01*
X127490711Y-95843698D01*
X127406302Y-95759289D01*
X127307049Y-95692970D01*
X127196764Y-95647288D01*
X127079686Y-95624000D01*
X126960314Y-95624000D01*
X126843236Y-95647288D01*
X126732951Y-95692970D01*
X126633698Y-95759289D01*
X126549289Y-95843698D01*
X126482970Y-95942951D01*
X126437288Y-96053236D01*
X126414000Y-96170314D01*
X124346000Y-96170314D01*
X124346000Y-96160314D01*
X124322712Y-96043236D01*
X124277030Y-95932951D01*
X124210711Y-95833698D01*
X124126302Y-95749289D01*
X124027049Y-95682970D01*
X123916764Y-95637288D01*
X123799686Y-95614000D01*
X123680314Y-95614000D01*
X123563236Y-95637288D01*
X123452951Y-95682970D01*
X123353698Y-95749289D01*
X123269289Y-95833698D01*
X123202970Y-95932951D01*
X123157288Y-96043236D01*
X123134000Y-96160314D01*
X100456000Y-96160314D01*
X100456000Y-93865314D01*
X129294000Y-93865314D01*
X129294000Y-93984686D01*
X129317288Y-94101764D01*
X129362970Y-94212049D01*
X129429289Y-94311302D01*
X129513698Y-94395711D01*
X129612951Y-94462030D01*
X129723236Y-94507712D01*
X129840314Y-94531000D01*
X129959686Y-94531000D01*
X130076764Y-94507712D01*
X130187049Y-94462030D01*
X130286302Y-94395711D01*
X130370711Y-94311302D01*
X130437030Y-94212049D01*
X130482712Y-94101764D01*
X130506000Y-93984686D01*
X130506000Y-93865314D01*
X130482712Y-93748236D01*
X130437030Y-93637951D01*
X130370711Y-93538698D01*
X130286302Y-93454289D01*
X130187049Y-93387970D01*
X130076764Y-93342288D01*
X129959686Y-93319000D01*
X129840314Y-93319000D01*
X129723236Y-93342288D01*
X129612951Y-93387970D01*
X129513698Y-93454289D01*
X129429289Y-93538698D01*
X129362970Y-93637951D01*
X129317288Y-93748236D01*
X129294000Y-93865314D01*
X100456000Y-93865314D01*
X100456000Y-93240314D01*
X133019000Y-93240314D01*
X133019000Y-93359686D01*
X133042288Y-93476764D01*
X133087970Y-93587049D01*
X133154289Y-93686302D01*
X133238698Y-93770711D01*
X133337951Y-93837030D01*
X133448236Y-93882712D01*
X133565314Y-93906000D01*
X133684686Y-93906000D01*
X133801764Y-93882712D01*
X133843766Y-93865314D01*
X135164000Y-93865314D01*
X135164000Y-93984686D01*
X135187288Y-94101764D01*
X135232970Y-94212049D01*
X135299289Y-94311302D01*
X135383698Y-94395711D01*
X135482951Y-94462030D01*
X135593236Y-94507712D01*
X135710314Y-94531000D01*
X135744000Y-94531000D01*
X135744000Y-94584686D01*
X135767288Y-94701764D01*
X135812970Y-94812049D01*
X135879289Y-94911302D01*
X135963698Y-94995711D01*
X136062951Y-95062030D01*
X136173236Y-95107712D01*
X136290314Y-95131000D01*
X136409686Y-95131000D01*
X136526764Y-95107712D01*
X136637049Y-95062030D01*
X136736302Y-94995711D01*
X136820711Y-94911302D01*
X136887030Y-94812049D01*
X136932712Y-94701764D01*
X136956000Y-94584686D01*
X136956000Y-94465314D01*
X136932712Y-94348236D01*
X136887030Y-94237951D01*
X136820711Y-94138698D01*
X136736302Y-94054289D01*
X136637049Y-93987970D01*
X136526764Y-93942288D01*
X136409686Y-93919000D01*
X136376000Y-93919000D01*
X136376000Y-93865314D01*
X136352712Y-93748236D01*
X136307030Y-93637951D01*
X136240711Y-93538698D01*
X136156302Y-93454289D01*
X136057049Y-93387970D01*
X135946764Y-93342288D01*
X135829686Y-93319000D01*
X135710314Y-93319000D01*
X135593236Y-93342288D01*
X135482951Y-93387970D01*
X135383698Y-93454289D01*
X135299289Y-93538698D01*
X135232970Y-93637951D01*
X135187288Y-93748236D01*
X135164000Y-93865314D01*
X133843766Y-93865314D01*
X133912049Y-93837030D01*
X134011302Y-93770711D01*
X134095711Y-93686302D01*
X134162030Y-93587049D01*
X134207712Y-93476764D01*
X134231000Y-93359686D01*
X134231000Y-93240314D01*
X134207712Y-93123236D01*
X134162030Y-93012951D01*
X134095711Y-92913698D01*
X134011302Y-92829289D01*
X133975422Y-92805314D01*
X134384000Y-92805314D01*
X134384000Y-92924686D01*
X134407288Y-93041764D01*
X134452970Y-93152049D01*
X134519289Y-93251302D01*
X134603698Y-93335711D01*
X134702951Y-93402030D01*
X134813236Y-93447712D01*
X134930314Y-93471000D01*
X135049686Y-93471000D01*
X135166764Y-93447712D01*
X135277049Y-93402030D01*
X135376302Y-93335711D01*
X135460711Y-93251302D01*
X135527030Y-93152049D01*
X135572712Y-93041764D01*
X135596000Y-92924686D01*
X135596000Y-92805314D01*
X135572712Y-92688236D01*
X135527030Y-92577951D01*
X135460711Y-92478698D01*
X135376302Y-92394289D01*
X135277049Y-92327970D01*
X135166764Y-92282288D01*
X135049686Y-92259000D01*
X134930314Y-92259000D01*
X134813236Y-92282288D01*
X134702951Y-92327970D01*
X134603698Y-92394289D01*
X134519289Y-92478698D01*
X134452970Y-92577951D01*
X134407288Y-92688236D01*
X134384000Y-92805314D01*
X133975422Y-92805314D01*
X133912049Y-92762970D01*
X133801764Y-92717288D01*
X133684686Y-92694000D01*
X133565314Y-92694000D01*
X133448236Y-92717288D01*
X133337951Y-92762970D01*
X133238698Y-92829289D01*
X133154289Y-92913698D01*
X133087970Y-93012951D01*
X133042288Y-93123236D01*
X133019000Y-93240314D01*
X100456000Y-93240314D01*
X100456000Y-89160000D01*
X121997157Y-89160000D01*
X121997157Y-90960000D01*
X122004513Y-91034689D01*
X122026299Y-91106508D01*
X122061678Y-91172696D01*
X122109289Y-91230711D01*
X122167304Y-91278322D01*
X122233492Y-91313701D01*
X122305311Y-91335487D01*
X122380000Y-91342843D01*
X123880000Y-91342843D01*
X123954689Y-91335487D01*
X124026508Y-91313701D01*
X124080000Y-91285108D01*
X124133492Y-91313701D01*
X124205311Y-91335487D01*
X124280000Y-91342843D01*
X125780000Y-91342843D01*
X125854689Y-91335487D01*
X125926508Y-91313701D01*
X125980000Y-91285108D01*
X125987199Y-91288956D01*
X125974000Y-91355314D01*
X125974000Y-91474686D01*
X125997288Y-91591764D01*
X126014177Y-91632538D01*
X125987188Y-91654688D01*
X125920300Y-91736190D01*
X125870598Y-91829176D01*
X125839992Y-91930072D01*
X125829657Y-92035000D01*
X125829657Y-92345000D01*
X125839992Y-92449928D01*
X125870598Y-92550824D01*
X125920300Y-92643810D01*
X125987188Y-92725312D01*
X126068690Y-92792200D01*
X126161676Y-92841902D01*
X126262572Y-92872508D01*
X126367500Y-92882843D01*
X126792500Y-92882843D01*
X126897428Y-92872508D01*
X126998324Y-92841902D01*
X127091310Y-92792200D01*
X127172812Y-92725312D01*
X127239700Y-92643810D01*
X127289402Y-92550824D01*
X127320008Y-92449928D01*
X127330343Y-92345000D01*
X127330343Y-92035000D01*
X127320008Y-91930072D01*
X127289402Y-91829176D01*
X127239700Y-91736190D01*
X127172812Y-91654688D01*
X127145823Y-91632538D01*
X127162712Y-91591764D01*
X127186000Y-91474686D01*
X127186000Y-91355314D01*
X127183519Y-91342843D01*
X127680000Y-91342843D01*
X127754689Y-91335487D01*
X127826508Y-91313701D01*
X127892696Y-91278322D01*
X127950711Y-91230711D01*
X127998322Y-91172696D01*
X128033701Y-91106508D01*
X128055487Y-91034689D01*
X128062843Y-90960000D01*
X128062843Y-89225314D01*
X137744000Y-89225314D01*
X137744000Y-89344686D01*
X137767288Y-89461764D01*
X137812970Y-89572049D01*
X137879289Y-89671302D01*
X137963698Y-89755711D01*
X138062951Y-89822030D01*
X138173236Y-89867712D01*
X138290314Y-89891000D01*
X138409686Y-89891000D01*
X138526764Y-89867712D01*
X138637049Y-89822030D01*
X138736302Y-89755711D01*
X138820000Y-89672013D01*
X138903698Y-89755711D01*
X139002951Y-89822030D01*
X139113236Y-89867712D01*
X139230314Y-89891000D01*
X139349686Y-89891000D01*
X139466764Y-89867712D01*
X139577049Y-89822030D01*
X139676302Y-89755711D01*
X139760711Y-89671302D01*
X139783318Y-89637468D01*
X139819289Y-89691302D01*
X139903698Y-89775711D01*
X140002951Y-89842030D01*
X140113236Y-89887712D01*
X140230314Y-89911000D01*
X140349686Y-89911000D01*
X140466764Y-89887712D01*
X140577049Y-89842030D01*
X140676302Y-89775711D01*
X140760000Y-89692013D01*
X140843698Y-89775711D01*
X140942951Y-89842030D01*
X141053236Y-89887712D01*
X141170314Y-89911000D01*
X141289686Y-89911000D01*
X141406764Y-89887712D01*
X141517049Y-89842030D01*
X141616302Y-89775711D01*
X141700711Y-89691302D01*
X141767030Y-89592049D01*
X141812712Y-89481764D01*
X141836000Y-89364686D01*
X141836000Y-89245314D01*
X141812712Y-89128236D01*
X141767030Y-89017951D01*
X141700711Y-88918698D01*
X141616302Y-88834289D01*
X141517049Y-88767970D01*
X141406764Y-88722288D01*
X141289686Y-88699000D01*
X141170314Y-88699000D01*
X141053236Y-88722288D01*
X140942951Y-88767970D01*
X140843698Y-88834289D01*
X140760000Y-88917987D01*
X140676302Y-88834289D01*
X140577049Y-88767970D01*
X140466764Y-88722288D01*
X140349686Y-88699000D01*
X140230314Y-88699000D01*
X140113236Y-88722288D01*
X140002951Y-88767970D01*
X139903698Y-88834289D01*
X139819289Y-88918698D01*
X139796682Y-88952532D01*
X139760711Y-88898698D01*
X139676302Y-88814289D01*
X139577049Y-88747970D01*
X139466764Y-88702288D01*
X139349686Y-88679000D01*
X139230314Y-88679000D01*
X139113236Y-88702288D01*
X139002951Y-88747970D01*
X138903698Y-88814289D01*
X138820000Y-88897987D01*
X138736302Y-88814289D01*
X138637049Y-88747970D01*
X138526764Y-88702288D01*
X138409686Y-88679000D01*
X138290314Y-88679000D01*
X138173236Y-88702288D01*
X138062951Y-88747970D01*
X137963698Y-88814289D01*
X137879289Y-88898698D01*
X137812970Y-88997951D01*
X137767288Y-89108236D01*
X137744000Y-89225314D01*
X128062843Y-89225314D01*
X128062843Y-89160000D01*
X128055487Y-89085311D01*
X128033701Y-89013492D01*
X127998322Y-88947304D01*
X127950711Y-88889289D01*
X127892696Y-88841678D01*
X127826508Y-88806299D01*
X127754689Y-88784513D01*
X127680000Y-88777157D01*
X126180000Y-88777157D01*
X126105311Y-88784513D01*
X126033492Y-88806299D01*
X125980000Y-88834892D01*
X125926508Y-88806299D01*
X125854689Y-88784513D01*
X125780000Y-88777157D01*
X124280000Y-88777157D01*
X124205311Y-88784513D01*
X124133492Y-88806299D01*
X124080000Y-88834892D01*
X124026508Y-88806299D01*
X123954689Y-88784513D01*
X123880000Y-88777157D01*
X123445696Y-88777157D01*
X123387049Y-88737970D01*
X123276764Y-88692288D01*
X123159686Y-88669000D01*
X123040314Y-88669000D01*
X122923236Y-88692288D01*
X122812951Y-88737970D01*
X122754304Y-88777157D01*
X122380000Y-88777157D01*
X122305311Y-88784513D01*
X122233492Y-88806299D01*
X122167304Y-88841678D01*
X122109289Y-88889289D01*
X122061678Y-88947304D01*
X122026299Y-89013492D01*
X122004513Y-89085311D01*
X121997157Y-89160000D01*
X100456000Y-89160000D01*
X100456000Y-87050314D01*
X136724000Y-87050314D01*
X136724000Y-87169686D01*
X136747288Y-87286764D01*
X136792970Y-87397049D01*
X136859289Y-87496302D01*
X136943698Y-87580711D01*
X137042951Y-87647030D01*
X137153236Y-87692712D01*
X137270314Y-87716000D01*
X137291987Y-87716000D01*
X137289289Y-87718698D01*
X137222970Y-87817951D01*
X137177288Y-87928236D01*
X137154000Y-88045314D01*
X137154000Y-88164686D01*
X137177288Y-88281764D01*
X137222970Y-88392049D01*
X137289289Y-88491302D01*
X137373698Y-88575711D01*
X137472951Y-88642030D01*
X137583236Y-88687712D01*
X137700314Y-88711000D01*
X137819686Y-88711000D01*
X137936764Y-88687712D01*
X138047049Y-88642030D01*
X138146302Y-88575711D01*
X138230711Y-88491302D01*
X138264989Y-88440002D01*
X138309289Y-88506302D01*
X138393698Y-88590711D01*
X138492951Y-88657030D01*
X138603236Y-88702712D01*
X138720314Y-88726000D01*
X138839686Y-88726000D01*
X138956764Y-88702712D01*
X139067049Y-88657030D01*
X139166302Y-88590711D01*
X139250711Y-88506302D01*
X139287506Y-88451235D01*
X139319289Y-88498802D01*
X139403698Y-88583211D01*
X139502951Y-88649530D01*
X139613236Y-88695212D01*
X139730314Y-88718500D01*
X139849686Y-88718500D01*
X139966764Y-88695212D01*
X140077049Y-88649530D01*
X140176302Y-88583211D01*
X140260711Y-88498802D01*
X140304176Y-88433752D01*
X140339289Y-88486302D01*
X140423698Y-88570711D01*
X140522951Y-88637030D01*
X140633236Y-88682712D01*
X140750314Y-88706000D01*
X140869686Y-88706000D01*
X140986764Y-88682712D01*
X141097049Y-88637030D01*
X141196302Y-88570711D01*
X141280711Y-88486302D01*
X141347030Y-88387049D01*
X141392712Y-88276764D01*
X141416000Y-88159686D01*
X141416000Y-88040314D01*
X141392712Y-87923236D01*
X141347030Y-87812951D01*
X141280711Y-87713698D01*
X141196302Y-87629289D01*
X141097049Y-87562970D01*
X140986764Y-87517288D01*
X140869686Y-87494000D01*
X140750314Y-87494000D01*
X140633236Y-87517288D01*
X140522951Y-87562970D01*
X140423698Y-87629289D01*
X140339289Y-87713698D01*
X140295824Y-87778748D01*
X140260711Y-87726198D01*
X140176302Y-87641789D01*
X140077049Y-87575470D01*
X139966764Y-87529788D01*
X139849686Y-87506500D01*
X139730314Y-87506500D01*
X139613236Y-87529788D01*
X139502951Y-87575470D01*
X139403698Y-87641789D01*
X139319289Y-87726198D01*
X139282494Y-87781265D01*
X139250711Y-87733698D01*
X139166302Y-87649289D01*
X139067049Y-87582970D01*
X138956764Y-87537288D01*
X138839686Y-87514000D01*
X138720314Y-87514000D01*
X138603236Y-87537288D01*
X138492951Y-87582970D01*
X138393698Y-87649289D01*
X138309289Y-87733698D01*
X138275011Y-87784998D01*
X138230711Y-87718698D01*
X138146302Y-87634289D01*
X138047049Y-87567970D01*
X137936764Y-87522288D01*
X137819686Y-87499000D01*
X137798013Y-87499000D01*
X137800711Y-87496302D01*
X137867030Y-87397049D01*
X137912712Y-87286764D01*
X137936000Y-87169686D01*
X137936000Y-87050314D01*
X137912712Y-86933236D01*
X137867030Y-86822951D01*
X137800711Y-86723698D01*
X137716302Y-86639289D01*
X137617049Y-86572970D01*
X137506764Y-86527288D01*
X137389686Y-86504000D01*
X137270314Y-86504000D01*
X137153236Y-86527288D01*
X137042951Y-86572970D01*
X136943698Y-86639289D01*
X136859289Y-86723698D01*
X136792970Y-86822951D01*
X136747288Y-86933236D01*
X136724000Y-87050314D01*
X100456000Y-87050314D01*
X100456000Y-82710000D01*
X117147157Y-82710000D01*
X117147157Y-84210000D01*
X117154513Y-84284689D01*
X117176299Y-84356508D01*
X117204892Y-84410000D01*
X117176299Y-84463492D01*
X117154513Y-84535311D01*
X117147157Y-84610000D01*
X117147157Y-86110000D01*
X117154513Y-86184689D01*
X117176299Y-86256508D01*
X117211678Y-86322696D01*
X117259289Y-86380711D01*
X117317304Y-86428322D01*
X117383492Y-86463701D01*
X117455311Y-86485487D01*
X117530000Y-86492843D01*
X119330000Y-86492843D01*
X119404689Y-86485487D01*
X119476508Y-86463701D01*
X119542696Y-86428322D01*
X119600711Y-86380711D01*
X119648322Y-86322696D01*
X119683701Y-86256508D01*
X119705487Y-86184689D01*
X119712843Y-86110000D01*
X119712843Y-84610000D01*
X119705487Y-84535311D01*
X119683701Y-84463492D01*
X119655108Y-84410000D01*
X119683701Y-84356508D01*
X119705487Y-84284689D01*
X119712843Y-84210000D01*
X119712843Y-82710000D01*
X119705487Y-82635311D01*
X119683701Y-82563492D01*
X119648322Y-82497304D01*
X119600711Y-82439289D01*
X119542696Y-82391678D01*
X119476508Y-82356299D01*
X119404689Y-82334513D01*
X119330000Y-82327157D01*
X117530000Y-82327157D01*
X117455311Y-82334513D01*
X117383492Y-82356299D01*
X117317304Y-82391678D01*
X117259289Y-82439289D01*
X117211678Y-82497304D01*
X117176299Y-82563492D01*
X117154513Y-82635311D01*
X117147157Y-82710000D01*
X100456000Y-82710000D01*
X100456000Y-79655314D01*
X119294000Y-79655314D01*
X119294000Y-79774686D01*
X119317288Y-79891764D01*
X119362970Y-80002049D01*
X119429289Y-80101302D01*
X119452987Y-80125000D01*
X119439289Y-80138698D01*
X119372970Y-80237951D01*
X119327288Y-80348236D01*
X119304000Y-80465314D01*
X119304000Y-80584686D01*
X119327288Y-80701764D01*
X119372970Y-80812049D01*
X119439289Y-80911302D01*
X119523698Y-80995711D01*
X119622951Y-81062030D01*
X119733236Y-81107712D01*
X119850314Y-81131000D01*
X119969686Y-81131000D01*
X120086764Y-81107712D01*
X120197049Y-81062030D01*
X120296302Y-80995711D01*
X120380711Y-80911302D01*
X120447030Y-80812049D01*
X120447878Y-80810000D01*
X130347157Y-80810000D01*
X130347157Y-82310000D01*
X130354513Y-82384689D01*
X130376299Y-82456508D01*
X130404892Y-82510000D01*
X130376299Y-82563492D01*
X130354513Y-82635311D01*
X130347157Y-82710000D01*
X130347157Y-84210000D01*
X130354513Y-84284689D01*
X130376299Y-84356508D01*
X130404892Y-84410000D01*
X130376299Y-84463492D01*
X130354513Y-84535311D01*
X130347157Y-84610000D01*
X130347157Y-86110000D01*
X130354513Y-86184689D01*
X130376299Y-86256508D01*
X130411678Y-86322696D01*
X130459289Y-86380711D01*
X130517304Y-86428322D01*
X130583492Y-86463701D01*
X130655311Y-86485487D01*
X130730000Y-86492843D01*
X132530000Y-86492843D01*
X132604689Y-86485487D01*
X132676508Y-86463701D01*
X132742696Y-86428322D01*
X132800711Y-86380711D01*
X132848322Y-86322696D01*
X132883701Y-86256508D01*
X132905487Y-86184689D01*
X132912843Y-86110000D01*
X132912843Y-84610000D01*
X132905487Y-84535311D01*
X132883701Y-84463492D01*
X132855108Y-84410000D01*
X132883701Y-84356508D01*
X132905487Y-84284689D01*
X132912843Y-84210000D01*
X132912843Y-82710000D01*
X132905980Y-82640314D01*
X145024000Y-82640314D01*
X145024000Y-82759686D01*
X145047288Y-82876764D01*
X145092970Y-82987049D01*
X145159289Y-83086302D01*
X145243698Y-83170711D01*
X145342951Y-83237030D01*
X145453236Y-83282712D01*
X145570314Y-83306000D01*
X145689686Y-83306000D01*
X145806764Y-83282712D01*
X145917049Y-83237030D01*
X146016302Y-83170711D01*
X146100711Y-83086302D01*
X146167030Y-82987049D01*
X146212712Y-82876764D01*
X146236000Y-82759686D01*
X146236000Y-82640314D01*
X146212712Y-82523236D01*
X146167030Y-82412951D01*
X146100711Y-82313698D01*
X146016302Y-82229289D01*
X145917049Y-82162970D01*
X145806764Y-82117288D01*
X145689686Y-82094000D01*
X145570314Y-82094000D01*
X145453236Y-82117288D01*
X145342951Y-82162970D01*
X145243698Y-82229289D01*
X145159289Y-82313698D01*
X145092970Y-82412951D01*
X145047288Y-82523236D01*
X145024000Y-82640314D01*
X132905980Y-82640314D01*
X132905487Y-82635311D01*
X132883701Y-82563492D01*
X132855108Y-82510000D01*
X132883701Y-82456508D01*
X132905487Y-82384689D01*
X132912843Y-82310000D01*
X132912843Y-80910314D01*
X145034000Y-80910314D01*
X145034000Y-81029686D01*
X145057288Y-81146764D01*
X145102970Y-81257049D01*
X145169289Y-81356302D01*
X145253698Y-81440711D01*
X145352951Y-81507030D01*
X145463236Y-81552712D01*
X145580314Y-81576000D01*
X145699686Y-81576000D01*
X145816764Y-81552712D01*
X145927049Y-81507030D01*
X146026302Y-81440711D01*
X146110711Y-81356302D01*
X146177030Y-81257049D01*
X146222712Y-81146764D01*
X146246000Y-81029686D01*
X146246000Y-80910314D01*
X146222712Y-80793236D01*
X146177030Y-80682951D01*
X146110711Y-80583698D01*
X146026302Y-80499289D01*
X145927049Y-80432970D01*
X145816764Y-80387288D01*
X145699686Y-80364000D01*
X145580314Y-80364000D01*
X145463236Y-80387288D01*
X145352951Y-80432970D01*
X145253698Y-80499289D01*
X145169289Y-80583698D01*
X145102970Y-80682951D01*
X145057288Y-80793236D01*
X145034000Y-80910314D01*
X132912843Y-80910314D01*
X132912843Y-80810000D01*
X132905487Y-80735311D01*
X132883701Y-80663492D01*
X132848322Y-80597304D01*
X132800711Y-80539289D01*
X132742696Y-80491678D01*
X132676508Y-80456299D01*
X132604689Y-80434513D01*
X132530000Y-80427157D01*
X130730000Y-80427157D01*
X130655311Y-80434513D01*
X130583492Y-80456299D01*
X130517304Y-80491678D01*
X130459289Y-80539289D01*
X130411678Y-80597304D01*
X130376299Y-80663492D01*
X130354513Y-80735311D01*
X130347157Y-80810000D01*
X120447878Y-80810000D01*
X120492712Y-80701764D01*
X120516000Y-80584686D01*
X120516000Y-80465314D01*
X120492712Y-80348236D01*
X120447030Y-80237951D01*
X120381791Y-80140314D01*
X134184000Y-80140314D01*
X134184000Y-80259686D01*
X134207288Y-80376764D01*
X134252970Y-80487049D01*
X134319289Y-80586302D01*
X134403698Y-80670711D01*
X134502951Y-80737030D01*
X134613236Y-80782712D01*
X134730314Y-80806000D01*
X134849686Y-80806000D01*
X134966764Y-80782712D01*
X135077049Y-80737030D01*
X135176302Y-80670711D01*
X135260711Y-80586302D01*
X135327030Y-80487049D01*
X135372712Y-80376764D01*
X135396000Y-80259686D01*
X135396000Y-80140314D01*
X135372712Y-80023236D01*
X135327030Y-79912951D01*
X135260711Y-79813698D01*
X135176302Y-79729289D01*
X135077049Y-79662970D01*
X134966764Y-79617288D01*
X134849686Y-79594000D01*
X134730314Y-79594000D01*
X134613236Y-79617288D01*
X134502951Y-79662970D01*
X134403698Y-79729289D01*
X134319289Y-79813698D01*
X134252970Y-79912951D01*
X134207288Y-80023236D01*
X134184000Y-80140314D01*
X120381791Y-80140314D01*
X120380711Y-80138698D01*
X120357013Y-80115000D01*
X120370711Y-80101302D01*
X120437030Y-80002049D01*
X120482712Y-79891764D01*
X120506000Y-79774686D01*
X120506000Y-79655314D01*
X120482712Y-79538236D01*
X120437030Y-79427951D01*
X120370711Y-79328698D01*
X120286302Y-79244289D01*
X120187049Y-79177970D01*
X120076764Y-79132288D01*
X119959686Y-79109000D01*
X119840314Y-79109000D01*
X119723236Y-79132288D01*
X119612951Y-79177970D01*
X119513698Y-79244289D01*
X119429289Y-79328698D01*
X119362970Y-79427951D01*
X119317288Y-79538236D01*
X119294000Y-79655314D01*
X100456000Y-79655314D01*
X100456000Y-76776000D01*
X102128157Y-76776000D01*
X102128157Y-78284000D01*
X102135513Y-78358689D01*
X102157299Y-78430508D01*
X102192678Y-78496696D01*
X102240289Y-78554711D01*
X102298304Y-78602322D01*
X102364492Y-78637701D01*
X102436311Y-78659487D01*
X102511000Y-78666843D01*
X104019000Y-78666843D01*
X104093689Y-78659487D01*
X104165508Y-78637701D01*
X104231696Y-78602322D01*
X104289711Y-78554711D01*
X104337322Y-78496696D01*
X104372701Y-78430508D01*
X104394487Y-78358689D01*
X104401843Y-78284000D01*
X104401843Y-76776000D01*
X104394487Y-76701311D01*
X104372701Y-76629492D01*
X104337322Y-76563304D01*
X104289711Y-76505289D01*
X104231696Y-76457678D01*
X104165508Y-76422299D01*
X104093689Y-76400513D01*
X104019000Y-76393157D01*
X102511000Y-76393157D01*
X102436311Y-76400513D01*
X102364492Y-76422299D01*
X102298304Y-76457678D01*
X102240289Y-76505289D01*
X102192678Y-76563304D01*
X102157299Y-76629492D01*
X102135513Y-76701311D01*
X102128157Y-76776000D01*
X100456000Y-76776000D01*
X100456000Y-75960000D01*
X121997157Y-75960000D01*
X121997157Y-77760000D01*
X122004513Y-77834689D01*
X122026299Y-77906508D01*
X122061678Y-77972696D01*
X122109289Y-78030711D01*
X122167304Y-78078322D01*
X122233492Y-78113701D01*
X122305311Y-78135487D01*
X122380000Y-78142843D01*
X123880000Y-78142843D01*
X123954689Y-78135487D01*
X124026508Y-78113701D01*
X124080000Y-78085108D01*
X124133492Y-78113701D01*
X124205311Y-78135487D01*
X124280000Y-78142843D01*
X125780000Y-78142843D01*
X125854689Y-78135487D01*
X125926508Y-78113701D01*
X125980000Y-78085108D01*
X126033492Y-78113701D01*
X126105311Y-78135487D01*
X126180000Y-78142843D01*
X127680000Y-78142843D01*
X127754689Y-78135487D01*
X127826508Y-78113701D01*
X127892696Y-78078322D01*
X127950711Y-78030711D01*
X127998322Y-77972696D01*
X128033701Y-77906508D01*
X128055487Y-77834689D01*
X128062843Y-77760000D01*
X128062843Y-76235314D01*
X140854000Y-76235314D01*
X140854000Y-76354686D01*
X140877288Y-76471764D01*
X140922970Y-76582049D01*
X140989289Y-76681302D01*
X141073698Y-76765711D01*
X141172951Y-76832030D01*
X141283236Y-76877712D01*
X141400314Y-76901000D01*
X141519686Y-76901000D01*
X141636764Y-76877712D01*
X141747049Y-76832030D01*
X141846302Y-76765711D01*
X141930711Y-76681302D01*
X141997030Y-76582049D01*
X142042712Y-76471764D01*
X142066000Y-76354686D01*
X142066000Y-76235314D01*
X142065006Y-76230314D01*
X142524000Y-76230314D01*
X142524000Y-76349686D01*
X142547288Y-76466764D01*
X142592970Y-76577049D01*
X142659289Y-76676302D01*
X142743698Y-76760711D01*
X142842951Y-76827030D01*
X142953236Y-76872712D01*
X143070314Y-76896000D01*
X143189686Y-76896000D01*
X143306764Y-76872712D01*
X143417049Y-76827030D01*
X143516302Y-76760711D01*
X143600711Y-76676302D01*
X143667030Y-76577049D01*
X143712712Y-76466764D01*
X143736000Y-76349686D01*
X143736000Y-76230314D01*
X143712712Y-76113236D01*
X143667030Y-76002951D01*
X143600711Y-75903698D01*
X143516302Y-75819289D01*
X143417049Y-75752970D01*
X143306764Y-75707288D01*
X143189686Y-75684000D01*
X143070314Y-75684000D01*
X142953236Y-75707288D01*
X142842951Y-75752970D01*
X142743698Y-75819289D01*
X142659289Y-75903698D01*
X142592970Y-76002951D01*
X142547288Y-76113236D01*
X142524000Y-76230314D01*
X142065006Y-76230314D01*
X142042712Y-76118236D01*
X141997030Y-76007951D01*
X141930711Y-75908698D01*
X141846302Y-75824289D01*
X141747049Y-75757970D01*
X141636764Y-75712288D01*
X141519686Y-75689000D01*
X141400314Y-75689000D01*
X141283236Y-75712288D01*
X141172951Y-75757970D01*
X141073698Y-75824289D01*
X140989289Y-75908698D01*
X140922970Y-76007951D01*
X140877288Y-76118236D01*
X140854000Y-76235314D01*
X128062843Y-76235314D01*
X128062843Y-75960000D01*
X128055487Y-75885311D01*
X128033701Y-75813492D01*
X127998322Y-75747304D01*
X127950711Y-75689289D01*
X127892696Y-75641678D01*
X127826508Y-75606299D01*
X127754689Y-75584513D01*
X127680000Y-75577157D01*
X126180000Y-75577157D01*
X126105311Y-75584513D01*
X126033492Y-75606299D01*
X125980000Y-75634892D01*
X125926508Y-75606299D01*
X125854689Y-75584513D01*
X125780000Y-75577157D01*
X124280000Y-75577157D01*
X124205311Y-75584513D01*
X124133492Y-75606299D01*
X124080000Y-75634892D01*
X124026508Y-75606299D01*
X123954689Y-75584513D01*
X123880000Y-75577157D01*
X122380000Y-75577157D01*
X122305311Y-75584513D01*
X122233492Y-75606299D01*
X122167304Y-75641678D01*
X122109289Y-75689289D01*
X122061678Y-75747304D01*
X122026299Y-75813492D01*
X122004513Y-75885311D01*
X121997157Y-75960000D01*
X100456000Y-75960000D01*
X100456000Y-74280314D01*
X104924000Y-74280314D01*
X104924000Y-74399686D01*
X104947288Y-74516764D01*
X104992970Y-74627049D01*
X105059289Y-74726302D01*
X105143698Y-74810711D01*
X105242951Y-74877030D01*
X105353236Y-74922712D01*
X105470314Y-74946000D01*
X105589686Y-74946000D01*
X105706764Y-74922712D01*
X105817049Y-74877030D01*
X105916302Y-74810711D01*
X106000711Y-74726302D01*
X106067030Y-74627049D01*
X106112712Y-74516764D01*
X106136000Y-74399686D01*
X106136000Y-74280314D01*
X106112712Y-74163236D01*
X106067030Y-74052951D01*
X106000711Y-73953698D01*
X105916302Y-73869289D01*
X105817049Y-73802970D01*
X105706764Y-73757288D01*
X105589686Y-73734000D01*
X105470314Y-73734000D01*
X105353236Y-73757288D01*
X105242951Y-73802970D01*
X105143698Y-73869289D01*
X105059289Y-73953698D01*
X104992970Y-74052951D01*
X104947288Y-74163236D01*
X104924000Y-74280314D01*
X100456000Y-74280314D01*
X100456000Y-72305314D01*
X104204000Y-72305314D01*
X104204000Y-72424686D01*
X104227288Y-72541764D01*
X104272970Y-72652049D01*
X104339289Y-72751302D01*
X104423698Y-72835711D01*
X104522951Y-72902030D01*
X104633236Y-72947712D01*
X104750314Y-72971000D01*
X104869686Y-72971000D01*
X104986764Y-72947712D01*
X104996711Y-72943592D01*
X105007288Y-72996764D01*
X105052970Y-73107049D01*
X105119289Y-73206302D01*
X105203698Y-73290711D01*
X105302951Y-73357030D01*
X105413236Y-73402712D01*
X105530314Y-73426000D01*
X105649686Y-73426000D01*
X105766764Y-73402712D01*
X105877049Y-73357030D01*
X105976302Y-73290711D01*
X106060711Y-73206302D01*
X106127030Y-73107049D01*
X106172712Y-72996764D01*
X106196000Y-72879686D01*
X106196000Y-72760314D01*
X106172712Y-72643236D01*
X106127030Y-72532951D01*
X106111994Y-72510449D01*
X106215314Y-72531000D01*
X106334686Y-72531000D01*
X106451764Y-72507712D01*
X106562049Y-72462030D01*
X106661302Y-72395711D01*
X106745711Y-72311302D01*
X106812030Y-72212049D01*
X106857712Y-72101764D01*
X106881000Y-71984686D01*
X106881000Y-71865314D01*
X106857712Y-71748236D01*
X106812030Y-71637951D01*
X106745711Y-71538698D01*
X106661302Y-71454289D01*
X106562049Y-71387970D01*
X106451764Y-71342288D01*
X106334686Y-71319000D01*
X106215314Y-71319000D01*
X106098236Y-71342288D01*
X105987951Y-71387970D01*
X105888698Y-71454289D01*
X105804289Y-71538698D01*
X105737970Y-71637951D01*
X105692288Y-71748236D01*
X105669000Y-71865314D01*
X105669000Y-71984686D01*
X105692288Y-72101764D01*
X105737970Y-72212049D01*
X105753006Y-72234551D01*
X105649686Y-72214000D01*
X105530314Y-72214000D01*
X105413236Y-72237288D01*
X105403289Y-72241408D01*
X105392712Y-72188236D01*
X105347030Y-72077951D01*
X105280711Y-71978698D01*
X105196302Y-71894289D01*
X105097049Y-71827970D01*
X104986764Y-71782288D01*
X104869686Y-71759000D01*
X104750314Y-71759000D01*
X104633236Y-71782288D01*
X104522951Y-71827970D01*
X104423698Y-71894289D01*
X104339289Y-71978698D01*
X104272970Y-72077951D01*
X104227288Y-72188236D01*
X104204000Y-72305314D01*
X100456000Y-72305314D01*
X100456000Y-71190314D01*
X111944000Y-71190314D01*
X111944000Y-71309686D01*
X111967288Y-71426764D01*
X112012970Y-71537049D01*
X112079289Y-71636302D01*
X112163698Y-71720711D01*
X112262951Y-71787030D01*
X112373236Y-71832712D01*
X112490314Y-71856000D01*
X112609686Y-71856000D01*
X112726764Y-71832712D01*
X112837049Y-71787030D01*
X112936302Y-71720711D01*
X113020711Y-71636302D01*
X113087030Y-71537049D01*
X113093768Y-71520781D01*
X113153698Y-71580711D01*
X113252951Y-71647030D01*
X113363236Y-71692712D01*
X113480314Y-71716000D01*
X113599686Y-71716000D01*
X113716764Y-71692712D01*
X113827049Y-71647030D01*
X113926302Y-71580711D01*
X114010711Y-71496302D01*
X114077030Y-71397049D01*
X114122712Y-71286764D01*
X114146000Y-71169686D01*
X114146000Y-71050314D01*
X114122712Y-70933236D01*
X114077030Y-70822951D01*
X114010711Y-70723698D01*
X113926302Y-70639289D01*
X113827049Y-70572970D01*
X113716764Y-70527288D01*
X113599686Y-70504000D01*
X113480314Y-70504000D01*
X113363236Y-70527288D01*
X113252951Y-70572970D01*
X113153698Y-70639289D01*
X113069289Y-70723698D01*
X113002970Y-70822951D01*
X112996232Y-70839219D01*
X112936302Y-70779289D01*
X112837049Y-70712970D01*
X112726764Y-70667288D01*
X112609686Y-70644000D01*
X112490314Y-70644000D01*
X112373236Y-70667288D01*
X112262951Y-70712970D01*
X112163698Y-70779289D01*
X112079289Y-70863698D01*
X112012970Y-70962951D01*
X111967288Y-71073236D01*
X111944000Y-71190314D01*
X100456000Y-71190314D01*
X100456000Y-69785314D01*
X104774000Y-69785314D01*
X104774000Y-69904686D01*
X104797288Y-70021764D01*
X104842970Y-70132049D01*
X104909289Y-70231302D01*
X104993698Y-70315711D01*
X105092951Y-70382030D01*
X105203236Y-70427712D01*
X105220811Y-70431208D01*
X105219000Y-70440314D01*
X105219000Y-70559686D01*
X105242288Y-70676764D01*
X105287970Y-70787049D01*
X105354289Y-70886302D01*
X105438698Y-70970711D01*
X105537951Y-71037030D01*
X105648236Y-71082712D01*
X105765314Y-71106000D01*
X105884686Y-71106000D01*
X106001764Y-71082712D01*
X106112049Y-71037030D01*
X106211302Y-70970711D01*
X106295711Y-70886302D01*
X106362030Y-70787049D01*
X106407712Y-70676764D01*
X106431000Y-70559686D01*
X106431000Y-70440314D01*
X106413099Y-70350314D01*
X106574000Y-70350314D01*
X106574000Y-70469686D01*
X106597288Y-70586764D01*
X106642970Y-70697049D01*
X106709289Y-70796302D01*
X106793698Y-70880711D01*
X106892951Y-70947030D01*
X107003236Y-70992712D01*
X107120314Y-71016000D01*
X107239686Y-71016000D01*
X107356764Y-70992712D01*
X107467049Y-70947030D01*
X107566302Y-70880711D01*
X107650711Y-70796302D01*
X107717030Y-70697049D01*
X107762712Y-70586764D01*
X107786000Y-70469686D01*
X107786000Y-70350314D01*
X107762712Y-70233236D01*
X107717030Y-70122951D01*
X107650711Y-70023698D01*
X107566302Y-69939289D01*
X107467049Y-69872970D01*
X107356764Y-69827288D01*
X107239686Y-69804000D01*
X107120314Y-69804000D01*
X107003236Y-69827288D01*
X106892951Y-69872970D01*
X106793698Y-69939289D01*
X106709289Y-70023698D01*
X106642970Y-70122951D01*
X106597288Y-70233236D01*
X106574000Y-70350314D01*
X106413099Y-70350314D01*
X106407712Y-70323236D01*
X106362030Y-70212951D01*
X106295711Y-70113698D01*
X106211302Y-70029289D01*
X106112049Y-69962970D01*
X106001764Y-69917288D01*
X105984189Y-69913792D01*
X105986000Y-69904686D01*
X105986000Y-69785314D01*
X105962712Y-69668236D01*
X105917030Y-69557951D01*
X105850711Y-69458698D01*
X105766302Y-69374289D01*
X105667049Y-69307970D01*
X105556764Y-69262288D01*
X105496566Y-69250314D01*
X111164000Y-69250314D01*
X111164000Y-69369686D01*
X111187288Y-69486764D01*
X111232970Y-69597049D01*
X111299289Y-69696302D01*
X111383698Y-69780711D01*
X111482951Y-69847030D01*
X111593236Y-69892712D01*
X111710314Y-69916000D01*
X111829686Y-69916000D01*
X111946764Y-69892712D01*
X112057049Y-69847030D01*
X112156302Y-69780711D01*
X112240711Y-69696302D01*
X112252686Y-69678380D01*
X121589000Y-69678380D01*
X121589000Y-69871620D01*
X121626699Y-70061147D01*
X121700649Y-70239678D01*
X121808007Y-70400351D01*
X121944649Y-70536993D01*
X122105322Y-70644351D01*
X122283853Y-70718301D01*
X122473380Y-70756000D01*
X122666620Y-70756000D01*
X122856147Y-70718301D01*
X123034678Y-70644351D01*
X123195351Y-70536993D01*
X123331993Y-70400351D01*
X123439351Y-70239678D01*
X123513301Y-70061147D01*
X123551000Y-69871620D01*
X123551000Y-69678380D01*
X124129000Y-69678380D01*
X124129000Y-69871620D01*
X124166699Y-70061147D01*
X124240649Y-70239678D01*
X124348007Y-70400351D01*
X124484649Y-70536993D01*
X124645322Y-70644351D01*
X124823853Y-70718301D01*
X125013380Y-70756000D01*
X125206620Y-70756000D01*
X125396147Y-70718301D01*
X125574678Y-70644351D01*
X125735351Y-70536993D01*
X125871993Y-70400351D01*
X125979351Y-70239678D01*
X126053301Y-70061147D01*
X126091000Y-69871620D01*
X126091000Y-69678380D01*
X126669000Y-69678380D01*
X126669000Y-69871620D01*
X126706699Y-70061147D01*
X126780649Y-70239678D01*
X126888007Y-70400351D01*
X127024649Y-70536993D01*
X127185322Y-70644351D01*
X127363853Y-70718301D01*
X127553380Y-70756000D01*
X127746620Y-70756000D01*
X127936147Y-70718301D01*
X128114678Y-70644351D01*
X128275351Y-70536993D01*
X128411993Y-70400351D01*
X128519351Y-70239678D01*
X128593301Y-70061147D01*
X128631000Y-69871620D01*
X128631000Y-69678380D01*
X128593301Y-69488853D01*
X128519351Y-69310322D01*
X128411993Y-69149649D01*
X128275351Y-69013007D01*
X128114678Y-68905649D01*
X127936147Y-68831699D01*
X127746620Y-68794000D01*
X127553380Y-68794000D01*
X127363853Y-68831699D01*
X127185322Y-68905649D01*
X127024649Y-69013007D01*
X126888007Y-69149649D01*
X126780649Y-69310322D01*
X126706699Y-69488853D01*
X126669000Y-69678380D01*
X126091000Y-69678380D01*
X126053301Y-69488853D01*
X125979351Y-69310322D01*
X125871993Y-69149649D01*
X125735351Y-69013007D01*
X125574678Y-68905649D01*
X125396147Y-68831699D01*
X125206620Y-68794000D01*
X125013380Y-68794000D01*
X124823853Y-68831699D01*
X124645322Y-68905649D01*
X124484649Y-69013007D01*
X124348007Y-69149649D01*
X124240649Y-69310322D01*
X124166699Y-69488853D01*
X124129000Y-69678380D01*
X123551000Y-69678380D01*
X123513301Y-69488853D01*
X123439351Y-69310322D01*
X123331993Y-69149649D01*
X123195351Y-69013007D01*
X123034678Y-68905649D01*
X122856147Y-68831699D01*
X122666620Y-68794000D01*
X122473380Y-68794000D01*
X122283853Y-68831699D01*
X122105322Y-68905649D01*
X121944649Y-69013007D01*
X121808007Y-69149649D01*
X121700649Y-69310322D01*
X121626699Y-69488853D01*
X121589000Y-69678380D01*
X112252686Y-69678380D01*
X112307030Y-69597049D01*
X112352712Y-69486764D01*
X112376000Y-69369686D01*
X112376000Y-69250314D01*
X112352712Y-69133236D01*
X112307030Y-69022951D01*
X112240711Y-68923698D01*
X112156302Y-68839289D01*
X112057049Y-68772970D01*
X111946764Y-68727288D01*
X111829686Y-68704000D01*
X111710314Y-68704000D01*
X111593236Y-68727288D01*
X111482951Y-68772970D01*
X111383698Y-68839289D01*
X111299289Y-68923698D01*
X111232970Y-69022951D01*
X111187288Y-69133236D01*
X111164000Y-69250314D01*
X105496566Y-69250314D01*
X105439686Y-69239000D01*
X105320314Y-69239000D01*
X105203236Y-69262288D01*
X105092951Y-69307970D01*
X104993698Y-69374289D01*
X104909289Y-69458698D01*
X104842970Y-69557951D01*
X104797288Y-69668236D01*
X104774000Y-69785314D01*
X100456000Y-69785314D01*
X100456000Y-67615314D01*
X135754000Y-67615314D01*
X135754000Y-67734686D01*
X135777288Y-67851764D01*
X135822970Y-67962049D01*
X135889289Y-68061302D01*
X135973698Y-68145711D01*
X136072951Y-68212030D01*
X136183236Y-68257712D01*
X136300314Y-68281000D01*
X136419686Y-68281000D01*
X136536764Y-68257712D01*
X136647049Y-68212030D01*
X136746302Y-68145711D01*
X136830711Y-68061302D01*
X136897030Y-67962049D01*
X136942712Y-67851764D01*
X136966000Y-67734686D01*
X136966000Y-67615314D01*
X136942712Y-67498236D01*
X136897030Y-67387951D01*
X136830711Y-67288698D01*
X136746302Y-67204289D01*
X136647049Y-67137970D01*
X136536764Y-67092288D01*
X136419686Y-67069000D01*
X136300314Y-67069000D01*
X136183236Y-67092288D01*
X136072951Y-67137970D01*
X135973698Y-67204289D01*
X135889289Y-67288698D01*
X135822970Y-67387951D01*
X135777288Y-67498236D01*
X135754000Y-67615314D01*
X100456000Y-67615314D01*
X100456000Y-65765465D01*
X104450000Y-65765465D01*
X104450000Y-65904535D01*
X104477131Y-66040933D01*
X104530351Y-66169416D01*
X104607614Y-66285049D01*
X104705951Y-66383386D01*
X104821584Y-66460649D01*
X104950067Y-66513869D01*
X105086465Y-66541000D01*
X105225535Y-66541000D01*
X105361933Y-66513869D01*
X105490416Y-66460649D01*
X105606049Y-66383386D01*
X105704386Y-66285049D01*
X105750981Y-66215314D01*
X107194000Y-66215314D01*
X107194000Y-66334686D01*
X107217288Y-66451764D01*
X107262970Y-66562049D01*
X107329289Y-66661302D01*
X107413698Y-66745711D01*
X107512951Y-66812030D01*
X107623236Y-66857712D01*
X107740314Y-66881000D01*
X107859686Y-66881000D01*
X107976764Y-66857712D01*
X108087049Y-66812030D01*
X108186302Y-66745711D01*
X108270711Y-66661302D01*
X108300000Y-66617468D01*
X108329289Y-66661302D01*
X108413698Y-66745711D01*
X108512951Y-66812030D01*
X108623236Y-66857712D01*
X108740314Y-66881000D01*
X108859686Y-66881000D01*
X108976764Y-66857712D01*
X109087049Y-66812030D01*
X109186302Y-66745711D01*
X109270711Y-66661302D01*
X109337030Y-66562049D01*
X109382712Y-66451764D01*
X109406000Y-66334686D01*
X109406000Y-66215314D01*
X109382712Y-66098236D01*
X109337030Y-65987951D01*
X109270711Y-65888698D01*
X109186302Y-65804289D01*
X109128199Y-65765465D01*
X110230000Y-65765465D01*
X110230000Y-65904535D01*
X110257131Y-66040933D01*
X110310351Y-66169416D01*
X110387614Y-66285049D01*
X110485951Y-66383386D01*
X110601584Y-66460649D01*
X110730067Y-66513869D01*
X110866465Y-66541000D01*
X111005535Y-66541000D01*
X111141933Y-66513869D01*
X111270416Y-66460649D01*
X111386049Y-66383386D01*
X111484386Y-66285049D01*
X111561649Y-66169416D01*
X111614869Y-66040933D01*
X111642000Y-65904535D01*
X111642000Y-65765465D01*
X111614869Y-65629067D01*
X111561649Y-65500584D01*
X111484386Y-65384951D01*
X111386049Y-65286614D01*
X111270416Y-65209351D01*
X111141933Y-65156131D01*
X111005535Y-65129000D01*
X110866465Y-65129000D01*
X110730067Y-65156131D01*
X110601584Y-65209351D01*
X110485951Y-65286614D01*
X110387614Y-65384951D01*
X110310351Y-65500584D01*
X110257131Y-65629067D01*
X110230000Y-65765465D01*
X109128199Y-65765465D01*
X109087049Y-65737970D01*
X108976764Y-65692288D01*
X108859686Y-65669000D01*
X108740314Y-65669000D01*
X108623236Y-65692288D01*
X108512951Y-65737970D01*
X108413698Y-65804289D01*
X108329289Y-65888698D01*
X108300000Y-65932532D01*
X108270711Y-65888698D01*
X108186302Y-65804289D01*
X108087049Y-65737970D01*
X107976764Y-65692288D01*
X107859686Y-65669000D01*
X107740314Y-65669000D01*
X107623236Y-65692288D01*
X107512951Y-65737970D01*
X107413698Y-65804289D01*
X107329289Y-65888698D01*
X107262970Y-65987951D01*
X107217288Y-66098236D01*
X107194000Y-66215314D01*
X105750981Y-66215314D01*
X105781649Y-66169416D01*
X105834869Y-66040933D01*
X105862000Y-65904535D01*
X105862000Y-65765465D01*
X105834869Y-65629067D01*
X105781649Y-65500584D01*
X105704386Y-65384951D01*
X105606049Y-65286614D01*
X105490416Y-65209351D01*
X105361933Y-65156131D01*
X105225535Y-65129000D01*
X105086465Y-65129000D01*
X104950067Y-65156131D01*
X104821584Y-65209351D01*
X104705951Y-65286614D01*
X104607614Y-65384951D01*
X104530351Y-65500584D01*
X104477131Y-65629067D01*
X104450000Y-65765465D01*
X100456000Y-65765465D01*
X100456000Y-63430540D01*
X119714000Y-63430540D01*
X119714000Y-63579460D01*
X119743053Y-63725517D01*
X119800041Y-63863100D01*
X119882776Y-63986922D01*
X119988078Y-64092224D01*
X120111900Y-64174959D01*
X120249483Y-64231947D01*
X120395540Y-64261000D01*
X120544460Y-64261000D01*
X120690517Y-64231947D01*
X120828100Y-64174959D01*
X120951922Y-64092224D01*
X121057224Y-63986922D01*
X121139959Y-63863100D01*
X121196947Y-63725517D01*
X121226000Y-63579460D01*
X121226000Y-63430540D01*
X121196947Y-63284483D01*
X121139959Y-63146900D01*
X121057224Y-63023078D01*
X120951922Y-62917776D01*
X120828100Y-62835041D01*
X120690517Y-62778053D01*
X120544460Y-62749000D01*
X120395540Y-62749000D01*
X120249483Y-62778053D01*
X120111900Y-62835041D01*
X119988078Y-62917776D01*
X119882776Y-63023078D01*
X119800041Y-63146900D01*
X119743053Y-63284483D01*
X119714000Y-63430540D01*
X100456000Y-63430540D01*
X100456000Y-62278380D01*
X121589000Y-62278380D01*
X121589000Y-62471620D01*
X121626699Y-62661147D01*
X121700649Y-62839678D01*
X121808007Y-63000351D01*
X121944649Y-63136993D01*
X122105322Y-63244351D01*
X122283853Y-63318301D01*
X122473380Y-63356000D01*
X122666620Y-63356000D01*
X122856147Y-63318301D01*
X123034678Y-63244351D01*
X123195351Y-63136993D01*
X123331993Y-63000351D01*
X123439351Y-62839678D01*
X123513301Y-62661147D01*
X123551000Y-62471620D01*
X123551000Y-62278380D01*
X124129000Y-62278380D01*
X124129000Y-62471620D01*
X124166699Y-62661147D01*
X124240649Y-62839678D01*
X124348007Y-63000351D01*
X124484649Y-63136993D01*
X124645322Y-63244351D01*
X124823853Y-63318301D01*
X125013380Y-63356000D01*
X125206620Y-63356000D01*
X125396147Y-63318301D01*
X125574678Y-63244351D01*
X125735351Y-63136993D01*
X125871993Y-63000351D01*
X125979351Y-62839678D01*
X126053301Y-62661147D01*
X126091000Y-62471620D01*
X126091000Y-62278380D01*
X126669000Y-62278380D01*
X126669000Y-62471620D01*
X126706699Y-62661147D01*
X126780649Y-62839678D01*
X126888007Y-63000351D01*
X127024649Y-63136993D01*
X127185322Y-63244351D01*
X127363853Y-63318301D01*
X127553380Y-63356000D01*
X127746620Y-63356000D01*
X127936147Y-63318301D01*
X128114678Y-63244351D01*
X128275351Y-63136993D01*
X128369707Y-63042637D01*
X128300041Y-63146900D01*
X128243053Y-63284483D01*
X128214000Y-63430540D01*
X128214000Y-63579460D01*
X128243053Y-63725517D01*
X128300041Y-63863100D01*
X128382776Y-63986922D01*
X128488078Y-64092224D01*
X128611900Y-64174959D01*
X128749483Y-64231947D01*
X128895540Y-64261000D01*
X129044460Y-64261000D01*
X129190517Y-64231947D01*
X129328100Y-64174959D01*
X129451922Y-64092224D01*
X129557224Y-63986922D01*
X129639959Y-63863100D01*
X129696947Y-63725517D01*
X129726000Y-63579460D01*
X129726000Y-63430540D01*
X129696947Y-63284483D01*
X129639959Y-63146900D01*
X129557224Y-63023078D01*
X129451922Y-62917776D01*
X129328100Y-62835041D01*
X129190517Y-62778053D01*
X129044460Y-62749000D01*
X128895540Y-62749000D01*
X128749483Y-62778053D01*
X128611900Y-62835041D01*
X128488078Y-62917776D01*
X128425062Y-62980792D01*
X128519351Y-62839678D01*
X128593301Y-62661147D01*
X128631000Y-62471620D01*
X128631000Y-62278380D01*
X128615472Y-62200314D01*
X137894000Y-62200314D01*
X137894000Y-62319686D01*
X137917288Y-62436764D01*
X137962970Y-62547049D01*
X138029289Y-62646302D01*
X138113698Y-62730711D01*
X138212951Y-62797030D01*
X138323236Y-62842712D01*
X138440314Y-62866000D01*
X138559686Y-62866000D01*
X138676764Y-62842712D01*
X138787049Y-62797030D01*
X138886302Y-62730711D01*
X138970711Y-62646302D01*
X139037030Y-62547049D01*
X139082712Y-62436764D01*
X139106000Y-62319686D01*
X139106000Y-62200314D01*
X139082712Y-62083236D01*
X139037030Y-61972951D01*
X138970711Y-61873698D01*
X138886302Y-61789289D01*
X138787049Y-61722970D01*
X138676764Y-61677288D01*
X138559686Y-61654000D01*
X138440314Y-61654000D01*
X138323236Y-61677288D01*
X138212951Y-61722970D01*
X138113698Y-61789289D01*
X138029289Y-61873698D01*
X137962970Y-61972951D01*
X137917288Y-62083236D01*
X137894000Y-62200314D01*
X128615472Y-62200314D01*
X128593301Y-62088853D01*
X128519351Y-61910322D01*
X128411993Y-61749649D01*
X128275351Y-61613007D01*
X128114678Y-61505649D01*
X127936147Y-61431699D01*
X127746620Y-61394000D01*
X127553380Y-61394000D01*
X127363853Y-61431699D01*
X127185322Y-61505649D01*
X127024649Y-61613007D01*
X126888007Y-61749649D01*
X126780649Y-61910322D01*
X126706699Y-62088853D01*
X126669000Y-62278380D01*
X126091000Y-62278380D01*
X126053301Y-62088853D01*
X125979351Y-61910322D01*
X125871993Y-61749649D01*
X125735351Y-61613007D01*
X125574678Y-61505649D01*
X125396147Y-61431699D01*
X125206620Y-61394000D01*
X125013380Y-61394000D01*
X124823853Y-61431699D01*
X124645322Y-61505649D01*
X124484649Y-61613007D01*
X124348007Y-61749649D01*
X124240649Y-61910322D01*
X124166699Y-62088853D01*
X124129000Y-62278380D01*
X123551000Y-62278380D01*
X123513301Y-62088853D01*
X123439351Y-61910322D01*
X123331993Y-61749649D01*
X123195351Y-61613007D01*
X123034678Y-61505649D01*
X122856147Y-61431699D01*
X122666620Y-61394000D01*
X122473380Y-61394000D01*
X122283853Y-61431699D01*
X122105322Y-61505649D01*
X121944649Y-61613007D01*
X121808007Y-61749649D01*
X121700649Y-61910322D01*
X121626699Y-62088853D01*
X121589000Y-62278380D01*
X100456000Y-62278380D01*
X100456000Y-60456000D01*
X149544000Y-60456000D01*
X149544001Y-109544000D01*
G04 #@! TA.AperFunction,Conductor*
D20*
G36*
X149544001Y-109544000D02*
G01*
X100456000Y-109544000D01*
X100456000Y-105770314D01*
X116684000Y-105770314D01*
X116684000Y-105889686D01*
X116707288Y-106006764D01*
X116752970Y-106117049D01*
X116819289Y-106216302D01*
X116903698Y-106300711D01*
X117002951Y-106367030D01*
X117113236Y-106412712D01*
X117230314Y-106436000D01*
X117349686Y-106436000D01*
X117466764Y-106412712D01*
X117577049Y-106367030D01*
X117676302Y-106300711D01*
X117760711Y-106216302D01*
X117827030Y-106117049D01*
X117872712Y-106006764D01*
X117896000Y-105889686D01*
X117896000Y-105790314D01*
X120744000Y-105790314D01*
X120744000Y-105909686D01*
X120767288Y-106026764D01*
X120812970Y-106137049D01*
X120879289Y-106236302D01*
X120963698Y-106320711D01*
X121062951Y-106387030D01*
X121173236Y-106432712D01*
X121290314Y-106456000D01*
X121409686Y-106456000D01*
X121526764Y-106432712D01*
X121637049Y-106387030D01*
X121736302Y-106320711D01*
X121820711Y-106236302D01*
X121887030Y-106137049D01*
X121932712Y-106026764D01*
X121956000Y-105909686D01*
X121956000Y-105790314D01*
X121932712Y-105673236D01*
X121887030Y-105562951D01*
X121820711Y-105463698D01*
X121736302Y-105379289D01*
X121637049Y-105312970D01*
X121526764Y-105267288D01*
X121409686Y-105244000D01*
X121290314Y-105244000D01*
X121173236Y-105267288D01*
X121062951Y-105312970D01*
X120963698Y-105379289D01*
X120879289Y-105463698D01*
X120812970Y-105562951D01*
X120767288Y-105673236D01*
X120744000Y-105790314D01*
X117896000Y-105790314D01*
X117896000Y-105770314D01*
X117872712Y-105653236D01*
X117827030Y-105542951D01*
X117760711Y-105443698D01*
X117676302Y-105359289D01*
X117577049Y-105292970D01*
X117466764Y-105247288D01*
X117349686Y-105224000D01*
X117230314Y-105224000D01*
X117113236Y-105247288D01*
X117002951Y-105292970D01*
X116903698Y-105359289D01*
X116819289Y-105443698D01*
X116752970Y-105542951D01*
X116707288Y-105653236D01*
X116684000Y-105770314D01*
X100456000Y-105770314D01*
X100456000Y-99690314D01*
X115472000Y-99690314D01*
X115472000Y-99809686D01*
X115495288Y-99926764D01*
X115540970Y-100037049D01*
X115607289Y-100136302D01*
X115691698Y-100220711D01*
X115790951Y-100287030D01*
X115901236Y-100332712D01*
X116018314Y-100356000D01*
X116137686Y-100356000D01*
X116254764Y-100332712D01*
X116365049Y-100287030D01*
X116464302Y-100220711D01*
X116548711Y-100136302D01*
X116615030Y-100037049D01*
X116660712Y-99926764D01*
X116684000Y-99809686D01*
X116684000Y-99690314D01*
X116660712Y-99573236D01*
X116615030Y-99462951D01*
X116548711Y-99363698D01*
X116464302Y-99279289D01*
X116365049Y-99212970D01*
X116254764Y-99167288D01*
X116137686Y-99144000D01*
X116018314Y-99144000D01*
X115901236Y-99167288D01*
X115790951Y-99212970D01*
X115691698Y-99279289D01*
X115607289Y-99363698D01*
X115540970Y-99462951D01*
X115495288Y-99573236D01*
X115472000Y-99690314D01*
X100456000Y-99690314D01*
X100456000Y-97640314D01*
X137044000Y-97640314D01*
X137044000Y-97759686D01*
X137067288Y-97876764D01*
X137112970Y-97987049D01*
X137179289Y-98086302D01*
X137263698Y-98170711D01*
X137362951Y-98237030D01*
X137473236Y-98282712D01*
X137590314Y-98306000D01*
X137709686Y-98306000D01*
X137826764Y-98282712D01*
X137937049Y-98237030D01*
X138036302Y-98170711D01*
X138120711Y-98086302D01*
X138187030Y-97987049D01*
X138232712Y-97876764D01*
X138256000Y-97759686D01*
X138256000Y-97640314D01*
X138232712Y-97523236D01*
X138187030Y-97412951D01*
X138120711Y-97313698D01*
X138036302Y-97229289D01*
X137937049Y-97162970D01*
X137826764Y-97117288D01*
X137709686Y-97094000D01*
X137590314Y-97094000D01*
X137473236Y-97117288D01*
X137362951Y-97162970D01*
X137263698Y-97229289D01*
X137179289Y-97313698D01*
X137112970Y-97412951D01*
X137067288Y-97523236D01*
X137044000Y-97640314D01*
X100456000Y-97640314D01*
X100456000Y-96160314D01*
X123134000Y-96160314D01*
X123134000Y-96279686D01*
X123157288Y-96396764D01*
X123202970Y-96507049D01*
X123269289Y-96606302D01*
X123353698Y-96690711D01*
X123452951Y-96757030D01*
X123563236Y-96802712D01*
X123680314Y-96826000D01*
X123799686Y-96826000D01*
X123916764Y-96802712D01*
X124027049Y-96757030D01*
X124126302Y-96690711D01*
X124210711Y-96606302D01*
X124277030Y-96507049D01*
X124322712Y-96396764D01*
X124346000Y-96279686D01*
X124346000Y-96170314D01*
X126414000Y-96170314D01*
X126414000Y-96289686D01*
X126437288Y-96406764D01*
X126482970Y-96517049D01*
X126549289Y-96616302D01*
X126633698Y-96700711D01*
X126732951Y-96767030D01*
X126843236Y-96812712D01*
X126960314Y-96836000D01*
X127079686Y-96836000D01*
X127196764Y-96812712D01*
X127307049Y-96767030D01*
X127406302Y-96700711D01*
X127490711Y-96616302D01*
X127557030Y-96517049D01*
X127602712Y-96406764D01*
X127626000Y-96289686D01*
X127626000Y-96170314D01*
X127602712Y-96053236D01*
X127557030Y-95942951D01*
X127490711Y-95843698D01*
X127406302Y-95759289D01*
X127307049Y-95692970D01*
X127196764Y-95647288D01*
X127079686Y-95624000D01*
X126960314Y-95624000D01*
X126843236Y-95647288D01*
X126732951Y-95692970D01*
X126633698Y-95759289D01*
X126549289Y-95843698D01*
X126482970Y-95942951D01*
X126437288Y-96053236D01*
X126414000Y-96170314D01*
X124346000Y-96170314D01*
X124346000Y-96160314D01*
X124322712Y-96043236D01*
X124277030Y-95932951D01*
X124210711Y-95833698D01*
X124126302Y-95749289D01*
X124027049Y-95682970D01*
X123916764Y-95637288D01*
X123799686Y-95614000D01*
X123680314Y-95614000D01*
X123563236Y-95637288D01*
X123452951Y-95682970D01*
X123353698Y-95749289D01*
X123269289Y-95833698D01*
X123202970Y-95932951D01*
X123157288Y-96043236D01*
X123134000Y-96160314D01*
X100456000Y-96160314D01*
X100456000Y-93865314D01*
X129294000Y-93865314D01*
X129294000Y-93984686D01*
X129317288Y-94101764D01*
X129362970Y-94212049D01*
X129429289Y-94311302D01*
X129513698Y-94395711D01*
X129612951Y-94462030D01*
X129723236Y-94507712D01*
X129840314Y-94531000D01*
X129959686Y-94531000D01*
X130076764Y-94507712D01*
X130187049Y-94462030D01*
X130286302Y-94395711D01*
X130370711Y-94311302D01*
X130437030Y-94212049D01*
X130482712Y-94101764D01*
X130506000Y-93984686D01*
X130506000Y-93865314D01*
X130482712Y-93748236D01*
X130437030Y-93637951D01*
X130370711Y-93538698D01*
X130286302Y-93454289D01*
X130187049Y-93387970D01*
X130076764Y-93342288D01*
X129959686Y-93319000D01*
X129840314Y-93319000D01*
X129723236Y-93342288D01*
X129612951Y-93387970D01*
X129513698Y-93454289D01*
X129429289Y-93538698D01*
X129362970Y-93637951D01*
X129317288Y-93748236D01*
X129294000Y-93865314D01*
X100456000Y-93865314D01*
X100456000Y-93240314D01*
X133019000Y-93240314D01*
X133019000Y-93359686D01*
X133042288Y-93476764D01*
X133087970Y-93587049D01*
X133154289Y-93686302D01*
X133238698Y-93770711D01*
X133337951Y-93837030D01*
X133448236Y-93882712D01*
X133565314Y-93906000D01*
X133684686Y-93906000D01*
X133801764Y-93882712D01*
X133843766Y-93865314D01*
X135164000Y-93865314D01*
X135164000Y-93984686D01*
X135187288Y-94101764D01*
X135232970Y-94212049D01*
X135299289Y-94311302D01*
X135383698Y-94395711D01*
X135482951Y-94462030D01*
X135593236Y-94507712D01*
X135710314Y-94531000D01*
X135744000Y-94531000D01*
X135744000Y-94584686D01*
X135767288Y-94701764D01*
X135812970Y-94812049D01*
X135879289Y-94911302D01*
X135963698Y-94995711D01*
X136062951Y-95062030D01*
X136173236Y-95107712D01*
X136290314Y-95131000D01*
X136409686Y-95131000D01*
X136526764Y-95107712D01*
X136637049Y-95062030D01*
X136736302Y-94995711D01*
X136820711Y-94911302D01*
X136887030Y-94812049D01*
X136932712Y-94701764D01*
X136956000Y-94584686D01*
X136956000Y-94465314D01*
X136932712Y-94348236D01*
X136887030Y-94237951D01*
X136820711Y-94138698D01*
X136736302Y-94054289D01*
X136637049Y-93987970D01*
X136526764Y-93942288D01*
X136409686Y-93919000D01*
X136376000Y-93919000D01*
X136376000Y-93865314D01*
X136352712Y-93748236D01*
X136307030Y-93637951D01*
X136240711Y-93538698D01*
X136156302Y-93454289D01*
X136057049Y-93387970D01*
X135946764Y-93342288D01*
X135829686Y-93319000D01*
X135710314Y-93319000D01*
X135593236Y-93342288D01*
X135482951Y-93387970D01*
X135383698Y-93454289D01*
X135299289Y-93538698D01*
X135232970Y-93637951D01*
X135187288Y-93748236D01*
X135164000Y-93865314D01*
X133843766Y-93865314D01*
X133912049Y-93837030D01*
X134011302Y-93770711D01*
X134095711Y-93686302D01*
X134162030Y-93587049D01*
X134207712Y-93476764D01*
X134231000Y-93359686D01*
X134231000Y-93240314D01*
X134207712Y-93123236D01*
X134162030Y-93012951D01*
X134095711Y-92913698D01*
X134011302Y-92829289D01*
X133975422Y-92805314D01*
X134384000Y-92805314D01*
X134384000Y-92924686D01*
X134407288Y-93041764D01*
X134452970Y-93152049D01*
X134519289Y-93251302D01*
X134603698Y-93335711D01*
X134702951Y-93402030D01*
X134813236Y-93447712D01*
X134930314Y-93471000D01*
X135049686Y-93471000D01*
X135166764Y-93447712D01*
X135277049Y-93402030D01*
X135376302Y-93335711D01*
X135460711Y-93251302D01*
X135527030Y-93152049D01*
X135572712Y-93041764D01*
X135596000Y-92924686D01*
X135596000Y-92805314D01*
X135572712Y-92688236D01*
X135527030Y-92577951D01*
X135460711Y-92478698D01*
X135376302Y-92394289D01*
X135277049Y-92327970D01*
X135166764Y-92282288D01*
X135049686Y-92259000D01*
X134930314Y-92259000D01*
X134813236Y-92282288D01*
X134702951Y-92327970D01*
X134603698Y-92394289D01*
X134519289Y-92478698D01*
X134452970Y-92577951D01*
X134407288Y-92688236D01*
X134384000Y-92805314D01*
X133975422Y-92805314D01*
X133912049Y-92762970D01*
X133801764Y-92717288D01*
X133684686Y-92694000D01*
X133565314Y-92694000D01*
X133448236Y-92717288D01*
X133337951Y-92762970D01*
X133238698Y-92829289D01*
X133154289Y-92913698D01*
X133087970Y-93012951D01*
X133042288Y-93123236D01*
X133019000Y-93240314D01*
X100456000Y-93240314D01*
X100456000Y-89160000D01*
X121997157Y-89160000D01*
X121997157Y-90960000D01*
X122004513Y-91034689D01*
X122026299Y-91106508D01*
X122061678Y-91172696D01*
X122109289Y-91230711D01*
X122167304Y-91278322D01*
X122233492Y-91313701D01*
X122305311Y-91335487D01*
X122380000Y-91342843D01*
X123880000Y-91342843D01*
X123954689Y-91335487D01*
X124026508Y-91313701D01*
X124080000Y-91285108D01*
X124133492Y-91313701D01*
X124205311Y-91335487D01*
X124280000Y-91342843D01*
X125780000Y-91342843D01*
X125854689Y-91335487D01*
X125926508Y-91313701D01*
X125980000Y-91285108D01*
X125987199Y-91288956D01*
X125974000Y-91355314D01*
X125974000Y-91474686D01*
X125997288Y-91591764D01*
X126014177Y-91632538D01*
X125987188Y-91654688D01*
X125920300Y-91736190D01*
X125870598Y-91829176D01*
X125839992Y-91930072D01*
X125829657Y-92035000D01*
X125829657Y-92345000D01*
X125839992Y-92449928D01*
X125870598Y-92550824D01*
X125920300Y-92643810D01*
X125987188Y-92725312D01*
X126068690Y-92792200D01*
X126161676Y-92841902D01*
X126262572Y-92872508D01*
X126367500Y-92882843D01*
X126792500Y-92882843D01*
X126897428Y-92872508D01*
X126998324Y-92841902D01*
X127091310Y-92792200D01*
X127172812Y-92725312D01*
X127239700Y-92643810D01*
X127289402Y-92550824D01*
X127320008Y-92449928D01*
X127330343Y-92345000D01*
X127330343Y-92035000D01*
X127320008Y-91930072D01*
X127289402Y-91829176D01*
X127239700Y-91736190D01*
X127172812Y-91654688D01*
X127145823Y-91632538D01*
X127162712Y-91591764D01*
X127186000Y-91474686D01*
X127186000Y-91355314D01*
X127183519Y-91342843D01*
X127680000Y-91342843D01*
X127754689Y-91335487D01*
X127826508Y-91313701D01*
X127892696Y-91278322D01*
X127950711Y-91230711D01*
X127998322Y-91172696D01*
X128033701Y-91106508D01*
X128055487Y-91034689D01*
X128062843Y-90960000D01*
X128062843Y-89225314D01*
X137744000Y-89225314D01*
X137744000Y-89344686D01*
X137767288Y-89461764D01*
X137812970Y-89572049D01*
X137879289Y-89671302D01*
X137963698Y-89755711D01*
X138062951Y-89822030D01*
X138173236Y-89867712D01*
X138290314Y-89891000D01*
X138409686Y-89891000D01*
X138526764Y-89867712D01*
X138637049Y-89822030D01*
X138736302Y-89755711D01*
X138820000Y-89672013D01*
X138903698Y-89755711D01*
X139002951Y-89822030D01*
X139113236Y-89867712D01*
X139230314Y-89891000D01*
X139349686Y-89891000D01*
X139466764Y-89867712D01*
X139577049Y-89822030D01*
X139676302Y-89755711D01*
X139760711Y-89671302D01*
X139783318Y-89637468D01*
X139819289Y-89691302D01*
X139903698Y-89775711D01*
X140002951Y-89842030D01*
X140113236Y-89887712D01*
X140230314Y-89911000D01*
X140349686Y-89911000D01*
X140466764Y-89887712D01*
X140577049Y-89842030D01*
X140676302Y-89775711D01*
X140760000Y-89692013D01*
X140843698Y-89775711D01*
X140942951Y-89842030D01*
X141053236Y-89887712D01*
X141170314Y-89911000D01*
X141289686Y-89911000D01*
X141406764Y-89887712D01*
X141517049Y-89842030D01*
X141616302Y-89775711D01*
X141700711Y-89691302D01*
X141767030Y-89592049D01*
X141812712Y-89481764D01*
X141836000Y-89364686D01*
X141836000Y-89245314D01*
X141812712Y-89128236D01*
X141767030Y-89017951D01*
X141700711Y-88918698D01*
X141616302Y-88834289D01*
X141517049Y-88767970D01*
X141406764Y-88722288D01*
X141289686Y-88699000D01*
X141170314Y-88699000D01*
X141053236Y-88722288D01*
X140942951Y-88767970D01*
X140843698Y-88834289D01*
X140760000Y-88917987D01*
X140676302Y-88834289D01*
X140577049Y-88767970D01*
X140466764Y-88722288D01*
X140349686Y-88699000D01*
X140230314Y-88699000D01*
X140113236Y-88722288D01*
X140002951Y-88767970D01*
X139903698Y-88834289D01*
X139819289Y-88918698D01*
X139796682Y-88952532D01*
X139760711Y-88898698D01*
X139676302Y-88814289D01*
X139577049Y-88747970D01*
X139466764Y-88702288D01*
X139349686Y-88679000D01*
X139230314Y-88679000D01*
X139113236Y-88702288D01*
X139002951Y-88747970D01*
X138903698Y-88814289D01*
X138820000Y-88897987D01*
X138736302Y-88814289D01*
X138637049Y-88747970D01*
X138526764Y-88702288D01*
X138409686Y-88679000D01*
X138290314Y-88679000D01*
X138173236Y-88702288D01*
X138062951Y-88747970D01*
X137963698Y-88814289D01*
X137879289Y-88898698D01*
X137812970Y-88997951D01*
X137767288Y-89108236D01*
X137744000Y-89225314D01*
X128062843Y-89225314D01*
X128062843Y-89160000D01*
X128055487Y-89085311D01*
X128033701Y-89013492D01*
X127998322Y-88947304D01*
X127950711Y-88889289D01*
X127892696Y-88841678D01*
X127826508Y-88806299D01*
X127754689Y-88784513D01*
X127680000Y-88777157D01*
X126180000Y-88777157D01*
X126105311Y-88784513D01*
X126033492Y-88806299D01*
X125980000Y-88834892D01*
X125926508Y-88806299D01*
X125854689Y-88784513D01*
X125780000Y-88777157D01*
X124280000Y-88777157D01*
X124205311Y-88784513D01*
X124133492Y-88806299D01*
X124080000Y-88834892D01*
X124026508Y-88806299D01*
X123954689Y-88784513D01*
X123880000Y-88777157D01*
X123445696Y-88777157D01*
X123387049Y-88737970D01*
X123276764Y-88692288D01*
X123159686Y-88669000D01*
X123040314Y-88669000D01*
X122923236Y-88692288D01*
X122812951Y-88737970D01*
X122754304Y-88777157D01*
X122380000Y-88777157D01*
X122305311Y-88784513D01*
X122233492Y-88806299D01*
X122167304Y-88841678D01*
X122109289Y-88889289D01*
X122061678Y-88947304D01*
X122026299Y-89013492D01*
X122004513Y-89085311D01*
X121997157Y-89160000D01*
X100456000Y-89160000D01*
X100456000Y-87050314D01*
X136724000Y-87050314D01*
X136724000Y-87169686D01*
X136747288Y-87286764D01*
X136792970Y-87397049D01*
X136859289Y-87496302D01*
X136943698Y-87580711D01*
X137042951Y-87647030D01*
X137153236Y-87692712D01*
X137270314Y-87716000D01*
X137291987Y-87716000D01*
X137289289Y-87718698D01*
X137222970Y-87817951D01*
X137177288Y-87928236D01*
X137154000Y-88045314D01*
X137154000Y-88164686D01*
X137177288Y-88281764D01*
X137222970Y-88392049D01*
X137289289Y-88491302D01*
X137373698Y-88575711D01*
X137472951Y-88642030D01*
X137583236Y-88687712D01*
X137700314Y-88711000D01*
X137819686Y-88711000D01*
X137936764Y-88687712D01*
X138047049Y-88642030D01*
X138146302Y-88575711D01*
X138230711Y-88491302D01*
X138264989Y-88440002D01*
X138309289Y-88506302D01*
X138393698Y-88590711D01*
X138492951Y-88657030D01*
X138603236Y-88702712D01*
X138720314Y-88726000D01*
X138839686Y-88726000D01*
X138956764Y-88702712D01*
X139067049Y-88657030D01*
X139166302Y-88590711D01*
X139250711Y-88506302D01*
X139287506Y-88451235D01*
X139319289Y-88498802D01*
X139403698Y-88583211D01*
X139502951Y-88649530D01*
X139613236Y-88695212D01*
X139730314Y-88718500D01*
X139849686Y-88718500D01*
X139966764Y-88695212D01*
X140077049Y-88649530D01*
X140176302Y-88583211D01*
X140260711Y-88498802D01*
X140304176Y-88433752D01*
X140339289Y-88486302D01*
X140423698Y-88570711D01*
X140522951Y-88637030D01*
X140633236Y-88682712D01*
X140750314Y-88706000D01*
X140869686Y-88706000D01*
X140986764Y-88682712D01*
X141097049Y-88637030D01*
X141196302Y-88570711D01*
X141280711Y-88486302D01*
X141347030Y-88387049D01*
X141392712Y-88276764D01*
X141416000Y-88159686D01*
X141416000Y-88040314D01*
X141392712Y-87923236D01*
X141347030Y-87812951D01*
X141280711Y-87713698D01*
X141196302Y-87629289D01*
X141097049Y-87562970D01*
X140986764Y-87517288D01*
X140869686Y-87494000D01*
X140750314Y-87494000D01*
X140633236Y-87517288D01*
X140522951Y-87562970D01*
X140423698Y-87629289D01*
X140339289Y-87713698D01*
X140295824Y-87778748D01*
X140260711Y-87726198D01*
X140176302Y-87641789D01*
X140077049Y-87575470D01*
X139966764Y-87529788D01*
X139849686Y-87506500D01*
X139730314Y-87506500D01*
X139613236Y-87529788D01*
X139502951Y-87575470D01*
X139403698Y-87641789D01*
X139319289Y-87726198D01*
X139282494Y-87781265D01*
X139250711Y-87733698D01*
X139166302Y-87649289D01*
X139067049Y-87582970D01*
X138956764Y-87537288D01*
X138839686Y-87514000D01*
X138720314Y-87514000D01*
X138603236Y-87537288D01*
X138492951Y-87582970D01*
X138393698Y-87649289D01*
X138309289Y-87733698D01*
X138275011Y-87784998D01*
X138230711Y-87718698D01*
X138146302Y-87634289D01*
X138047049Y-87567970D01*
X137936764Y-87522288D01*
X137819686Y-87499000D01*
X137798013Y-87499000D01*
X137800711Y-87496302D01*
X137867030Y-87397049D01*
X137912712Y-87286764D01*
X137936000Y-87169686D01*
X137936000Y-87050314D01*
X137912712Y-86933236D01*
X137867030Y-86822951D01*
X137800711Y-86723698D01*
X137716302Y-86639289D01*
X137617049Y-86572970D01*
X137506764Y-86527288D01*
X137389686Y-86504000D01*
X137270314Y-86504000D01*
X137153236Y-86527288D01*
X137042951Y-86572970D01*
X136943698Y-86639289D01*
X136859289Y-86723698D01*
X136792970Y-86822951D01*
X136747288Y-86933236D01*
X136724000Y-87050314D01*
X100456000Y-87050314D01*
X100456000Y-82710000D01*
X117147157Y-82710000D01*
X117147157Y-84210000D01*
X117154513Y-84284689D01*
X117176299Y-84356508D01*
X117204892Y-84410000D01*
X117176299Y-84463492D01*
X117154513Y-84535311D01*
X117147157Y-84610000D01*
X117147157Y-86110000D01*
X117154513Y-86184689D01*
X117176299Y-86256508D01*
X117211678Y-86322696D01*
X117259289Y-86380711D01*
X117317304Y-86428322D01*
X117383492Y-86463701D01*
X117455311Y-86485487D01*
X117530000Y-86492843D01*
X119330000Y-86492843D01*
X119404689Y-86485487D01*
X119476508Y-86463701D01*
X119542696Y-86428322D01*
X119600711Y-86380711D01*
X119648322Y-86322696D01*
X119683701Y-86256508D01*
X119705487Y-86184689D01*
X119712843Y-86110000D01*
X119712843Y-84610000D01*
X119705487Y-84535311D01*
X119683701Y-84463492D01*
X119655108Y-84410000D01*
X119683701Y-84356508D01*
X119705487Y-84284689D01*
X119712843Y-84210000D01*
X119712843Y-82710000D01*
X119705487Y-82635311D01*
X119683701Y-82563492D01*
X119648322Y-82497304D01*
X119600711Y-82439289D01*
X119542696Y-82391678D01*
X119476508Y-82356299D01*
X119404689Y-82334513D01*
X119330000Y-82327157D01*
X117530000Y-82327157D01*
X117455311Y-82334513D01*
X117383492Y-82356299D01*
X117317304Y-82391678D01*
X117259289Y-82439289D01*
X117211678Y-82497304D01*
X117176299Y-82563492D01*
X117154513Y-82635311D01*
X117147157Y-82710000D01*
X100456000Y-82710000D01*
X100456000Y-79655314D01*
X119294000Y-79655314D01*
X119294000Y-79774686D01*
X119317288Y-79891764D01*
X119362970Y-80002049D01*
X119429289Y-80101302D01*
X119452987Y-80125000D01*
X119439289Y-80138698D01*
X119372970Y-80237951D01*
X119327288Y-80348236D01*
X119304000Y-80465314D01*
X119304000Y-80584686D01*
X119327288Y-80701764D01*
X119372970Y-80812049D01*
X119439289Y-80911302D01*
X119523698Y-80995711D01*
X119622951Y-81062030D01*
X119733236Y-81107712D01*
X119850314Y-81131000D01*
X119969686Y-81131000D01*
X120086764Y-81107712D01*
X120197049Y-81062030D01*
X120296302Y-80995711D01*
X120380711Y-80911302D01*
X120447030Y-80812049D01*
X120447878Y-80810000D01*
X130347157Y-80810000D01*
X130347157Y-82310000D01*
X130354513Y-82384689D01*
X130376299Y-82456508D01*
X130404892Y-82510000D01*
X130376299Y-82563492D01*
X130354513Y-82635311D01*
X130347157Y-82710000D01*
X130347157Y-84210000D01*
X130354513Y-84284689D01*
X130376299Y-84356508D01*
X130404892Y-84410000D01*
X130376299Y-84463492D01*
X130354513Y-84535311D01*
X130347157Y-84610000D01*
X130347157Y-86110000D01*
X130354513Y-86184689D01*
X130376299Y-86256508D01*
X130411678Y-86322696D01*
X130459289Y-86380711D01*
X130517304Y-86428322D01*
X130583492Y-86463701D01*
X130655311Y-86485487D01*
X130730000Y-86492843D01*
X132530000Y-86492843D01*
X132604689Y-86485487D01*
X132676508Y-86463701D01*
X132742696Y-86428322D01*
X132800711Y-86380711D01*
X132848322Y-86322696D01*
X132883701Y-86256508D01*
X132905487Y-86184689D01*
X132912843Y-86110000D01*
X132912843Y-84610000D01*
X132905487Y-84535311D01*
X132883701Y-84463492D01*
X132855108Y-84410000D01*
X132883701Y-84356508D01*
X132905487Y-84284689D01*
X132912843Y-84210000D01*
X132912843Y-82710000D01*
X132905980Y-82640314D01*
X145024000Y-82640314D01*
X145024000Y-82759686D01*
X145047288Y-82876764D01*
X145092970Y-82987049D01*
X145159289Y-83086302D01*
X145243698Y-83170711D01*
X145342951Y-83237030D01*
X145453236Y-83282712D01*
X145570314Y-83306000D01*
X145689686Y-83306000D01*
X145806764Y-83282712D01*
X145917049Y-83237030D01*
X146016302Y-83170711D01*
X146100711Y-83086302D01*
X146167030Y-82987049D01*
X146212712Y-82876764D01*
X146236000Y-82759686D01*
X146236000Y-82640314D01*
X146212712Y-82523236D01*
X146167030Y-82412951D01*
X146100711Y-82313698D01*
X146016302Y-82229289D01*
X145917049Y-82162970D01*
X145806764Y-82117288D01*
X145689686Y-82094000D01*
X145570314Y-82094000D01*
X145453236Y-82117288D01*
X145342951Y-82162970D01*
X145243698Y-82229289D01*
X145159289Y-82313698D01*
X145092970Y-82412951D01*
X145047288Y-82523236D01*
X145024000Y-82640314D01*
X132905980Y-82640314D01*
X132905487Y-82635311D01*
X132883701Y-82563492D01*
X132855108Y-82510000D01*
X132883701Y-82456508D01*
X132905487Y-82384689D01*
X132912843Y-82310000D01*
X132912843Y-80910314D01*
X145034000Y-80910314D01*
X145034000Y-81029686D01*
X145057288Y-81146764D01*
X145102970Y-81257049D01*
X145169289Y-81356302D01*
X145253698Y-81440711D01*
X145352951Y-81507030D01*
X145463236Y-81552712D01*
X145580314Y-81576000D01*
X145699686Y-81576000D01*
X145816764Y-81552712D01*
X145927049Y-81507030D01*
X146026302Y-81440711D01*
X146110711Y-81356302D01*
X146177030Y-81257049D01*
X146222712Y-81146764D01*
X146246000Y-81029686D01*
X146246000Y-80910314D01*
X146222712Y-80793236D01*
X146177030Y-80682951D01*
X146110711Y-80583698D01*
X146026302Y-80499289D01*
X145927049Y-80432970D01*
X145816764Y-80387288D01*
X145699686Y-80364000D01*
X145580314Y-80364000D01*
X145463236Y-80387288D01*
X145352951Y-80432970D01*
X145253698Y-80499289D01*
X145169289Y-80583698D01*
X145102970Y-80682951D01*
X145057288Y-80793236D01*
X145034000Y-80910314D01*
X132912843Y-80910314D01*
X132912843Y-80810000D01*
X132905487Y-80735311D01*
X132883701Y-80663492D01*
X132848322Y-80597304D01*
X132800711Y-80539289D01*
X132742696Y-80491678D01*
X132676508Y-80456299D01*
X132604689Y-80434513D01*
X132530000Y-80427157D01*
X130730000Y-80427157D01*
X130655311Y-80434513D01*
X130583492Y-80456299D01*
X130517304Y-80491678D01*
X130459289Y-80539289D01*
X130411678Y-80597304D01*
X130376299Y-80663492D01*
X130354513Y-80735311D01*
X130347157Y-80810000D01*
X120447878Y-80810000D01*
X120492712Y-80701764D01*
X120516000Y-80584686D01*
X120516000Y-80465314D01*
X120492712Y-80348236D01*
X120447030Y-80237951D01*
X120381791Y-80140314D01*
X134184000Y-80140314D01*
X134184000Y-80259686D01*
X134207288Y-80376764D01*
X134252970Y-80487049D01*
X134319289Y-80586302D01*
X134403698Y-80670711D01*
X134502951Y-80737030D01*
X134613236Y-80782712D01*
X134730314Y-80806000D01*
X134849686Y-80806000D01*
X134966764Y-80782712D01*
X135077049Y-80737030D01*
X135176302Y-80670711D01*
X135260711Y-80586302D01*
X135327030Y-80487049D01*
X135372712Y-80376764D01*
X135396000Y-80259686D01*
X135396000Y-80140314D01*
X135372712Y-80023236D01*
X135327030Y-79912951D01*
X135260711Y-79813698D01*
X135176302Y-79729289D01*
X135077049Y-79662970D01*
X134966764Y-79617288D01*
X134849686Y-79594000D01*
X134730314Y-79594000D01*
X134613236Y-79617288D01*
X134502951Y-79662970D01*
X134403698Y-79729289D01*
X134319289Y-79813698D01*
X134252970Y-79912951D01*
X134207288Y-80023236D01*
X134184000Y-80140314D01*
X120381791Y-80140314D01*
X120380711Y-80138698D01*
X120357013Y-80115000D01*
X120370711Y-80101302D01*
X120437030Y-80002049D01*
X120482712Y-79891764D01*
X120506000Y-79774686D01*
X120506000Y-79655314D01*
X120482712Y-79538236D01*
X120437030Y-79427951D01*
X120370711Y-79328698D01*
X120286302Y-79244289D01*
X120187049Y-79177970D01*
X120076764Y-79132288D01*
X119959686Y-79109000D01*
X119840314Y-79109000D01*
X119723236Y-79132288D01*
X119612951Y-79177970D01*
X119513698Y-79244289D01*
X119429289Y-79328698D01*
X119362970Y-79427951D01*
X119317288Y-79538236D01*
X119294000Y-79655314D01*
X100456000Y-79655314D01*
X100456000Y-76776000D01*
X102128157Y-76776000D01*
X102128157Y-78284000D01*
X102135513Y-78358689D01*
X102157299Y-78430508D01*
X102192678Y-78496696D01*
X102240289Y-78554711D01*
X102298304Y-78602322D01*
X102364492Y-78637701D01*
X102436311Y-78659487D01*
X102511000Y-78666843D01*
X104019000Y-78666843D01*
X104093689Y-78659487D01*
X104165508Y-78637701D01*
X104231696Y-78602322D01*
X104289711Y-78554711D01*
X104337322Y-78496696D01*
X104372701Y-78430508D01*
X104394487Y-78358689D01*
X104401843Y-78284000D01*
X104401843Y-76776000D01*
X104394487Y-76701311D01*
X104372701Y-76629492D01*
X104337322Y-76563304D01*
X104289711Y-76505289D01*
X104231696Y-76457678D01*
X104165508Y-76422299D01*
X104093689Y-76400513D01*
X104019000Y-76393157D01*
X102511000Y-76393157D01*
X102436311Y-76400513D01*
X102364492Y-76422299D01*
X102298304Y-76457678D01*
X102240289Y-76505289D01*
X102192678Y-76563304D01*
X102157299Y-76629492D01*
X102135513Y-76701311D01*
X102128157Y-76776000D01*
X100456000Y-76776000D01*
X100456000Y-75960000D01*
X121997157Y-75960000D01*
X121997157Y-77760000D01*
X122004513Y-77834689D01*
X122026299Y-77906508D01*
X122061678Y-77972696D01*
X122109289Y-78030711D01*
X122167304Y-78078322D01*
X122233492Y-78113701D01*
X122305311Y-78135487D01*
X122380000Y-78142843D01*
X123880000Y-78142843D01*
X123954689Y-78135487D01*
X124026508Y-78113701D01*
X124080000Y-78085108D01*
X124133492Y-78113701D01*
X124205311Y-78135487D01*
X124280000Y-78142843D01*
X125780000Y-78142843D01*
X125854689Y-78135487D01*
X125926508Y-78113701D01*
X125980000Y-78085108D01*
X126033492Y-78113701D01*
X126105311Y-78135487D01*
X126180000Y-78142843D01*
X127680000Y-78142843D01*
X127754689Y-78135487D01*
X127826508Y-78113701D01*
X127892696Y-78078322D01*
X127950711Y-78030711D01*
X127998322Y-77972696D01*
X128033701Y-77906508D01*
X128055487Y-77834689D01*
X128062843Y-77760000D01*
X128062843Y-76235314D01*
X140854000Y-76235314D01*
X140854000Y-76354686D01*
X140877288Y-76471764D01*
X140922970Y-76582049D01*
X140989289Y-76681302D01*
X141073698Y-76765711D01*
X141172951Y-76832030D01*
X141283236Y-76877712D01*
X141400314Y-76901000D01*
X141519686Y-76901000D01*
X141636764Y-76877712D01*
X141747049Y-76832030D01*
X141846302Y-76765711D01*
X141930711Y-76681302D01*
X141997030Y-76582049D01*
X142042712Y-76471764D01*
X142066000Y-76354686D01*
X142066000Y-76235314D01*
X142065006Y-76230314D01*
X142524000Y-76230314D01*
X142524000Y-76349686D01*
X142547288Y-76466764D01*
X142592970Y-76577049D01*
X142659289Y-76676302D01*
X142743698Y-76760711D01*
X142842951Y-76827030D01*
X142953236Y-76872712D01*
X143070314Y-76896000D01*
X143189686Y-76896000D01*
X143306764Y-76872712D01*
X143417049Y-76827030D01*
X143516302Y-76760711D01*
X143600711Y-76676302D01*
X143667030Y-76577049D01*
X143712712Y-76466764D01*
X143736000Y-76349686D01*
X143736000Y-76230314D01*
X143712712Y-76113236D01*
X143667030Y-76002951D01*
X143600711Y-75903698D01*
X143516302Y-75819289D01*
X143417049Y-75752970D01*
X143306764Y-75707288D01*
X143189686Y-75684000D01*
X143070314Y-75684000D01*
X142953236Y-75707288D01*
X142842951Y-75752970D01*
X142743698Y-75819289D01*
X142659289Y-75903698D01*
X142592970Y-76002951D01*
X142547288Y-76113236D01*
X142524000Y-76230314D01*
X142065006Y-76230314D01*
X142042712Y-76118236D01*
X141997030Y-76007951D01*
X141930711Y-75908698D01*
X141846302Y-75824289D01*
X141747049Y-75757970D01*
X141636764Y-75712288D01*
X141519686Y-75689000D01*
X141400314Y-75689000D01*
X141283236Y-75712288D01*
X141172951Y-75757970D01*
X141073698Y-75824289D01*
X140989289Y-75908698D01*
X140922970Y-76007951D01*
X140877288Y-76118236D01*
X140854000Y-76235314D01*
X128062843Y-76235314D01*
X128062843Y-75960000D01*
X128055487Y-75885311D01*
X128033701Y-75813492D01*
X127998322Y-75747304D01*
X127950711Y-75689289D01*
X127892696Y-75641678D01*
X127826508Y-75606299D01*
X127754689Y-75584513D01*
X127680000Y-75577157D01*
X126180000Y-75577157D01*
X126105311Y-75584513D01*
X126033492Y-75606299D01*
X125980000Y-75634892D01*
X125926508Y-75606299D01*
X125854689Y-75584513D01*
X125780000Y-75577157D01*
X124280000Y-75577157D01*
X124205311Y-75584513D01*
X124133492Y-75606299D01*
X124080000Y-75634892D01*
X124026508Y-75606299D01*
X123954689Y-75584513D01*
X123880000Y-75577157D01*
X122380000Y-75577157D01*
X122305311Y-75584513D01*
X122233492Y-75606299D01*
X122167304Y-75641678D01*
X122109289Y-75689289D01*
X122061678Y-75747304D01*
X122026299Y-75813492D01*
X122004513Y-75885311D01*
X121997157Y-75960000D01*
X100456000Y-75960000D01*
X100456000Y-74280314D01*
X104924000Y-74280314D01*
X104924000Y-74399686D01*
X104947288Y-74516764D01*
X104992970Y-74627049D01*
X105059289Y-74726302D01*
X105143698Y-74810711D01*
X105242951Y-74877030D01*
X105353236Y-74922712D01*
X105470314Y-74946000D01*
X105589686Y-74946000D01*
X105706764Y-74922712D01*
X105817049Y-74877030D01*
X105916302Y-74810711D01*
X106000711Y-74726302D01*
X106067030Y-74627049D01*
X106112712Y-74516764D01*
X106136000Y-74399686D01*
X106136000Y-74280314D01*
X106112712Y-74163236D01*
X106067030Y-74052951D01*
X106000711Y-73953698D01*
X105916302Y-73869289D01*
X105817049Y-73802970D01*
X105706764Y-73757288D01*
X105589686Y-73734000D01*
X105470314Y-73734000D01*
X105353236Y-73757288D01*
X105242951Y-73802970D01*
X105143698Y-73869289D01*
X105059289Y-73953698D01*
X104992970Y-74052951D01*
X104947288Y-74163236D01*
X104924000Y-74280314D01*
X100456000Y-74280314D01*
X100456000Y-72305314D01*
X104204000Y-72305314D01*
X104204000Y-72424686D01*
X104227288Y-72541764D01*
X104272970Y-72652049D01*
X104339289Y-72751302D01*
X104423698Y-72835711D01*
X104522951Y-72902030D01*
X104633236Y-72947712D01*
X104750314Y-72971000D01*
X104869686Y-72971000D01*
X104986764Y-72947712D01*
X104996711Y-72943592D01*
X105007288Y-72996764D01*
X105052970Y-73107049D01*
X105119289Y-73206302D01*
X105203698Y-73290711D01*
X105302951Y-73357030D01*
X105413236Y-73402712D01*
X105530314Y-73426000D01*
X105649686Y-73426000D01*
X105766764Y-73402712D01*
X105877049Y-73357030D01*
X105976302Y-73290711D01*
X106060711Y-73206302D01*
X106127030Y-73107049D01*
X106172712Y-72996764D01*
X106196000Y-72879686D01*
X106196000Y-72760314D01*
X106172712Y-72643236D01*
X106127030Y-72532951D01*
X106111994Y-72510449D01*
X106215314Y-72531000D01*
X106334686Y-72531000D01*
X106451764Y-72507712D01*
X106562049Y-72462030D01*
X106661302Y-72395711D01*
X106745711Y-72311302D01*
X106812030Y-72212049D01*
X106857712Y-72101764D01*
X106881000Y-71984686D01*
X106881000Y-71865314D01*
X106857712Y-71748236D01*
X106812030Y-71637951D01*
X106745711Y-71538698D01*
X106661302Y-71454289D01*
X106562049Y-71387970D01*
X106451764Y-71342288D01*
X106334686Y-71319000D01*
X106215314Y-71319000D01*
X106098236Y-71342288D01*
X105987951Y-71387970D01*
X105888698Y-71454289D01*
X105804289Y-71538698D01*
X105737970Y-71637951D01*
X105692288Y-71748236D01*
X105669000Y-71865314D01*
X105669000Y-71984686D01*
X105692288Y-72101764D01*
X105737970Y-72212049D01*
X105753006Y-72234551D01*
X105649686Y-72214000D01*
X105530314Y-72214000D01*
X105413236Y-72237288D01*
X105403289Y-72241408D01*
X105392712Y-72188236D01*
X105347030Y-72077951D01*
X105280711Y-71978698D01*
X105196302Y-71894289D01*
X105097049Y-71827970D01*
X104986764Y-71782288D01*
X104869686Y-71759000D01*
X104750314Y-71759000D01*
X104633236Y-71782288D01*
X104522951Y-71827970D01*
X104423698Y-71894289D01*
X104339289Y-71978698D01*
X104272970Y-72077951D01*
X104227288Y-72188236D01*
X104204000Y-72305314D01*
X100456000Y-72305314D01*
X100456000Y-71190314D01*
X111944000Y-71190314D01*
X111944000Y-71309686D01*
X111967288Y-71426764D01*
X112012970Y-71537049D01*
X112079289Y-71636302D01*
X112163698Y-71720711D01*
X112262951Y-71787030D01*
X112373236Y-71832712D01*
X112490314Y-71856000D01*
X112609686Y-71856000D01*
X112726764Y-71832712D01*
X112837049Y-71787030D01*
X112936302Y-71720711D01*
X113020711Y-71636302D01*
X113087030Y-71537049D01*
X113093768Y-71520781D01*
X113153698Y-71580711D01*
X113252951Y-71647030D01*
X113363236Y-71692712D01*
X113480314Y-71716000D01*
X113599686Y-71716000D01*
X113716764Y-71692712D01*
X113827049Y-71647030D01*
X113926302Y-71580711D01*
X114010711Y-71496302D01*
X114077030Y-71397049D01*
X114122712Y-71286764D01*
X114146000Y-71169686D01*
X114146000Y-71050314D01*
X114122712Y-70933236D01*
X114077030Y-70822951D01*
X114010711Y-70723698D01*
X113926302Y-70639289D01*
X113827049Y-70572970D01*
X113716764Y-70527288D01*
X113599686Y-70504000D01*
X113480314Y-70504000D01*
X113363236Y-70527288D01*
X113252951Y-70572970D01*
X113153698Y-70639289D01*
X113069289Y-70723698D01*
X113002970Y-70822951D01*
X112996232Y-70839219D01*
X112936302Y-70779289D01*
X112837049Y-70712970D01*
X112726764Y-70667288D01*
X112609686Y-70644000D01*
X112490314Y-70644000D01*
X112373236Y-70667288D01*
X112262951Y-70712970D01*
X112163698Y-70779289D01*
X112079289Y-70863698D01*
X112012970Y-70962951D01*
X111967288Y-71073236D01*
X111944000Y-71190314D01*
X100456000Y-71190314D01*
X100456000Y-69785314D01*
X104774000Y-69785314D01*
X104774000Y-69904686D01*
X104797288Y-70021764D01*
X104842970Y-70132049D01*
X104909289Y-70231302D01*
X104993698Y-70315711D01*
X105092951Y-70382030D01*
X105203236Y-70427712D01*
X105220811Y-70431208D01*
X105219000Y-70440314D01*
X105219000Y-70559686D01*
X105242288Y-70676764D01*
X105287970Y-70787049D01*
X105354289Y-70886302D01*
X105438698Y-70970711D01*
X105537951Y-71037030D01*
X105648236Y-71082712D01*
X105765314Y-71106000D01*
X105884686Y-71106000D01*
X106001764Y-71082712D01*
X106112049Y-71037030D01*
X106211302Y-70970711D01*
X106295711Y-70886302D01*
X106362030Y-70787049D01*
X106407712Y-70676764D01*
X106431000Y-70559686D01*
X106431000Y-70440314D01*
X106413099Y-70350314D01*
X106574000Y-70350314D01*
X106574000Y-70469686D01*
X106597288Y-70586764D01*
X106642970Y-70697049D01*
X106709289Y-70796302D01*
X106793698Y-70880711D01*
X106892951Y-70947030D01*
X107003236Y-70992712D01*
X107120314Y-71016000D01*
X107239686Y-71016000D01*
X107356764Y-70992712D01*
X107467049Y-70947030D01*
X107566302Y-70880711D01*
X107650711Y-70796302D01*
X107717030Y-70697049D01*
X107762712Y-70586764D01*
X107786000Y-70469686D01*
X107786000Y-70350314D01*
X107762712Y-70233236D01*
X107717030Y-70122951D01*
X107650711Y-70023698D01*
X107566302Y-69939289D01*
X107467049Y-69872970D01*
X107356764Y-69827288D01*
X107239686Y-69804000D01*
X107120314Y-69804000D01*
X107003236Y-69827288D01*
X106892951Y-69872970D01*
X106793698Y-69939289D01*
X106709289Y-70023698D01*
X106642970Y-70122951D01*
X106597288Y-70233236D01*
X106574000Y-70350314D01*
X106413099Y-70350314D01*
X106407712Y-70323236D01*
X106362030Y-70212951D01*
X106295711Y-70113698D01*
X106211302Y-70029289D01*
X106112049Y-69962970D01*
X106001764Y-69917288D01*
X105984189Y-69913792D01*
X105986000Y-69904686D01*
X105986000Y-69785314D01*
X105962712Y-69668236D01*
X105917030Y-69557951D01*
X105850711Y-69458698D01*
X105766302Y-69374289D01*
X105667049Y-69307970D01*
X105556764Y-69262288D01*
X105496566Y-69250314D01*
X111164000Y-69250314D01*
X111164000Y-69369686D01*
X111187288Y-69486764D01*
X111232970Y-69597049D01*
X111299289Y-69696302D01*
X111383698Y-69780711D01*
X111482951Y-69847030D01*
X111593236Y-69892712D01*
X111710314Y-69916000D01*
X111829686Y-69916000D01*
X111946764Y-69892712D01*
X112057049Y-69847030D01*
X112156302Y-69780711D01*
X112240711Y-69696302D01*
X112252686Y-69678380D01*
X121589000Y-69678380D01*
X121589000Y-69871620D01*
X121626699Y-70061147D01*
X121700649Y-70239678D01*
X121808007Y-70400351D01*
X121944649Y-70536993D01*
X122105322Y-70644351D01*
X122283853Y-70718301D01*
X122473380Y-70756000D01*
X122666620Y-70756000D01*
X122856147Y-70718301D01*
X123034678Y-70644351D01*
X123195351Y-70536993D01*
X123331993Y-70400351D01*
X123439351Y-70239678D01*
X123513301Y-70061147D01*
X123551000Y-69871620D01*
X123551000Y-69678380D01*
X124129000Y-69678380D01*
X124129000Y-69871620D01*
X124166699Y-70061147D01*
X124240649Y-70239678D01*
X124348007Y-70400351D01*
X124484649Y-70536993D01*
X124645322Y-70644351D01*
X124823853Y-70718301D01*
X125013380Y-70756000D01*
X125206620Y-70756000D01*
X125396147Y-70718301D01*
X125574678Y-70644351D01*
X125735351Y-70536993D01*
X125871993Y-70400351D01*
X125979351Y-70239678D01*
X126053301Y-70061147D01*
X126091000Y-69871620D01*
X126091000Y-69678380D01*
X126669000Y-69678380D01*
X126669000Y-69871620D01*
X126706699Y-70061147D01*
X126780649Y-70239678D01*
X126888007Y-70400351D01*
X127024649Y-70536993D01*
X127185322Y-70644351D01*
X127363853Y-70718301D01*
X127553380Y-70756000D01*
X127746620Y-70756000D01*
X127936147Y-70718301D01*
X128114678Y-70644351D01*
X128275351Y-70536993D01*
X128411993Y-70400351D01*
X128519351Y-70239678D01*
X128593301Y-70061147D01*
X128631000Y-69871620D01*
X128631000Y-69678380D01*
X128593301Y-69488853D01*
X128519351Y-69310322D01*
X128411993Y-69149649D01*
X128275351Y-69013007D01*
X128114678Y-68905649D01*
X127936147Y-68831699D01*
X127746620Y-68794000D01*
X127553380Y-68794000D01*
X127363853Y-68831699D01*
X127185322Y-68905649D01*
X127024649Y-69013007D01*
X126888007Y-69149649D01*
X126780649Y-69310322D01*
X126706699Y-69488853D01*
X126669000Y-69678380D01*
X126091000Y-69678380D01*
X126053301Y-69488853D01*
X125979351Y-69310322D01*
X125871993Y-69149649D01*
X125735351Y-69013007D01*
X125574678Y-68905649D01*
X125396147Y-68831699D01*
X125206620Y-68794000D01*
X125013380Y-68794000D01*
X124823853Y-68831699D01*
X124645322Y-68905649D01*
X124484649Y-69013007D01*
X124348007Y-69149649D01*
X124240649Y-69310322D01*
X124166699Y-69488853D01*
X124129000Y-69678380D01*
X123551000Y-69678380D01*
X123513301Y-69488853D01*
X123439351Y-69310322D01*
X123331993Y-69149649D01*
X123195351Y-69013007D01*
X123034678Y-68905649D01*
X122856147Y-68831699D01*
X122666620Y-68794000D01*
X122473380Y-68794000D01*
X122283853Y-68831699D01*
X122105322Y-68905649D01*
X121944649Y-69013007D01*
X121808007Y-69149649D01*
X121700649Y-69310322D01*
X121626699Y-69488853D01*
X121589000Y-69678380D01*
X112252686Y-69678380D01*
X112307030Y-69597049D01*
X112352712Y-69486764D01*
X112376000Y-69369686D01*
X112376000Y-69250314D01*
X112352712Y-69133236D01*
X112307030Y-69022951D01*
X112240711Y-68923698D01*
X112156302Y-68839289D01*
X112057049Y-68772970D01*
X111946764Y-68727288D01*
X111829686Y-68704000D01*
X111710314Y-68704000D01*
X111593236Y-68727288D01*
X111482951Y-68772970D01*
X111383698Y-68839289D01*
X111299289Y-68923698D01*
X111232970Y-69022951D01*
X111187288Y-69133236D01*
X111164000Y-69250314D01*
X105496566Y-69250314D01*
X105439686Y-69239000D01*
X105320314Y-69239000D01*
X105203236Y-69262288D01*
X105092951Y-69307970D01*
X104993698Y-69374289D01*
X104909289Y-69458698D01*
X104842970Y-69557951D01*
X104797288Y-69668236D01*
X104774000Y-69785314D01*
X100456000Y-69785314D01*
X100456000Y-67615314D01*
X135754000Y-67615314D01*
X135754000Y-67734686D01*
X135777288Y-67851764D01*
X135822970Y-67962049D01*
X135889289Y-68061302D01*
X135973698Y-68145711D01*
X136072951Y-68212030D01*
X136183236Y-68257712D01*
X136300314Y-68281000D01*
X136419686Y-68281000D01*
X136536764Y-68257712D01*
X136647049Y-68212030D01*
X136746302Y-68145711D01*
X136830711Y-68061302D01*
X136897030Y-67962049D01*
X136942712Y-67851764D01*
X136966000Y-67734686D01*
X136966000Y-67615314D01*
X136942712Y-67498236D01*
X136897030Y-67387951D01*
X136830711Y-67288698D01*
X136746302Y-67204289D01*
X136647049Y-67137970D01*
X136536764Y-67092288D01*
X136419686Y-67069000D01*
X136300314Y-67069000D01*
X136183236Y-67092288D01*
X136072951Y-67137970D01*
X135973698Y-67204289D01*
X135889289Y-67288698D01*
X135822970Y-67387951D01*
X135777288Y-67498236D01*
X135754000Y-67615314D01*
X100456000Y-67615314D01*
X100456000Y-65765465D01*
X104450000Y-65765465D01*
X104450000Y-65904535D01*
X104477131Y-66040933D01*
X104530351Y-66169416D01*
X104607614Y-66285049D01*
X104705951Y-66383386D01*
X104821584Y-66460649D01*
X104950067Y-66513869D01*
X105086465Y-66541000D01*
X105225535Y-66541000D01*
X105361933Y-66513869D01*
X105490416Y-66460649D01*
X105606049Y-66383386D01*
X105704386Y-66285049D01*
X105750981Y-66215314D01*
X107194000Y-66215314D01*
X107194000Y-66334686D01*
X107217288Y-66451764D01*
X107262970Y-66562049D01*
X107329289Y-66661302D01*
X107413698Y-66745711D01*
X107512951Y-66812030D01*
X107623236Y-66857712D01*
X107740314Y-66881000D01*
X107859686Y-66881000D01*
X107976764Y-66857712D01*
X108087049Y-66812030D01*
X108186302Y-66745711D01*
X108270711Y-66661302D01*
X108300000Y-66617468D01*
X108329289Y-66661302D01*
X108413698Y-66745711D01*
X108512951Y-66812030D01*
X108623236Y-66857712D01*
X108740314Y-66881000D01*
X108859686Y-66881000D01*
X108976764Y-66857712D01*
X109087049Y-66812030D01*
X109186302Y-66745711D01*
X109270711Y-66661302D01*
X109337030Y-66562049D01*
X109382712Y-66451764D01*
X109406000Y-66334686D01*
X109406000Y-66215314D01*
X109382712Y-66098236D01*
X109337030Y-65987951D01*
X109270711Y-65888698D01*
X109186302Y-65804289D01*
X109128199Y-65765465D01*
X110230000Y-65765465D01*
X110230000Y-65904535D01*
X110257131Y-66040933D01*
X110310351Y-66169416D01*
X110387614Y-66285049D01*
X110485951Y-66383386D01*
X110601584Y-66460649D01*
X110730067Y-66513869D01*
X110866465Y-66541000D01*
X111005535Y-66541000D01*
X111141933Y-66513869D01*
X111270416Y-66460649D01*
X111386049Y-66383386D01*
X111484386Y-66285049D01*
X111561649Y-66169416D01*
X111614869Y-66040933D01*
X111642000Y-65904535D01*
X111642000Y-65765465D01*
X111614869Y-65629067D01*
X111561649Y-65500584D01*
X111484386Y-65384951D01*
X111386049Y-65286614D01*
X111270416Y-65209351D01*
X111141933Y-65156131D01*
X111005535Y-65129000D01*
X110866465Y-65129000D01*
X110730067Y-65156131D01*
X110601584Y-65209351D01*
X110485951Y-65286614D01*
X110387614Y-65384951D01*
X110310351Y-65500584D01*
X110257131Y-65629067D01*
X110230000Y-65765465D01*
X109128199Y-65765465D01*
X109087049Y-65737970D01*
X108976764Y-65692288D01*
X108859686Y-65669000D01*
X108740314Y-65669000D01*
X108623236Y-65692288D01*
X108512951Y-65737970D01*
X108413698Y-65804289D01*
X108329289Y-65888698D01*
X108300000Y-65932532D01*
X108270711Y-65888698D01*
X108186302Y-65804289D01*
X108087049Y-65737970D01*
X107976764Y-65692288D01*
X107859686Y-65669000D01*
X107740314Y-65669000D01*
X107623236Y-65692288D01*
X107512951Y-65737970D01*
X107413698Y-65804289D01*
X107329289Y-65888698D01*
X107262970Y-65987951D01*
X107217288Y-66098236D01*
X107194000Y-66215314D01*
X105750981Y-66215314D01*
X105781649Y-66169416D01*
X105834869Y-66040933D01*
X105862000Y-65904535D01*
X105862000Y-65765465D01*
X105834869Y-65629067D01*
X105781649Y-65500584D01*
X105704386Y-65384951D01*
X105606049Y-65286614D01*
X105490416Y-65209351D01*
X105361933Y-65156131D01*
X105225535Y-65129000D01*
X105086465Y-65129000D01*
X104950067Y-65156131D01*
X104821584Y-65209351D01*
X104705951Y-65286614D01*
X104607614Y-65384951D01*
X104530351Y-65500584D01*
X104477131Y-65629067D01*
X104450000Y-65765465D01*
X100456000Y-65765465D01*
X100456000Y-63430540D01*
X119714000Y-63430540D01*
X119714000Y-63579460D01*
X119743053Y-63725517D01*
X119800041Y-63863100D01*
X119882776Y-63986922D01*
X119988078Y-64092224D01*
X120111900Y-64174959D01*
X120249483Y-64231947D01*
X120395540Y-64261000D01*
X120544460Y-64261000D01*
X120690517Y-64231947D01*
X120828100Y-64174959D01*
X120951922Y-64092224D01*
X121057224Y-63986922D01*
X121139959Y-63863100D01*
X121196947Y-63725517D01*
X121226000Y-63579460D01*
X121226000Y-63430540D01*
X121196947Y-63284483D01*
X121139959Y-63146900D01*
X121057224Y-63023078D01*
X120951922Y-62917776D01*
X120828100Y-62835041D01*
X120690517Y-62778053D01*
X120544460Y-62749000D01*
X120395540Y-62749000D01*
X120249483Y-62778053D01*
X120111900Y-62835041D01*
X119988078Y-62917776D01*
X119882776Y-63023078D01*
X119800041Y-63146900D01*
X119743053Y-63284483D01*
X119714000Y-63430540D01*
X100456000Y-63430540D01*
X100456000Y-62278380D01*
X121589000Y-62278380D01*
X121589000Y-62471620D01*
X121626699Y-62661147D01*
X121700649Y-62839678D01*
X121808007Y-63000351D01*
X121944649Y-63136993D01*
X122105322Y-63244351D01*
X122283853Y-63318301D01*
X122473380Y-63356000D01*
X122666620Y-63356000D01*
X122856147Y-63318301D01*
X123034678Y-63244351D01*
X123195351Y-63136993D01*
X123331993Y-63000351D01*
X123439351Y-62839678D01*
X123513301Y-62661147D01*
X123551000Y-62471620D01*
X123551000Y-62278380D01*
X124129000Y-62278380D01*
X124129000Y-62471620D01*
X124166699Y-62661147D01*
X124240649Y-62839678D01*
X124348007Y-63000351D01*
X124484649Y-63136993D01*
X124645322Y-63244351D01*
X124823853Y-63318301D01*
X125013380Y-63356000D01*
X125206620Y-63356000D01*
X125396147Y-63318301D01*
X125574678Y-63244351D01*
X125735351Y-63136993D01*
X125871993Y-63000351D01*
X125979351Y-62839678D01*
X126053301Y-62661147D01*
X126091000Y-62471620D01*
X126091000Y-62278380D01*
X126669000Y-62278380D01*
X126669000Y-62471620D01*
X126706699Y-62661147D01*
X126780649Y-62839678D01*
X126888007Y-63000351D01*
X127024649Y-63136993D01*
X127185322Y-63244351D01*
X127363853Y-63318301D01*
X127553380Y-63356000D01*
X127746620Y-63356000D01*
X127936147Y-63318301D01*
X128114678Y-63244351D01*
X128275351Y-63136993D01*
X128369707Y-63042637D01*
X128300041Y-63146900D01*
X128243053Y-63284483D01*
X128214000Y-63430540D01*
X128214000Y-63579460D01*
X128243053Y-63725517D01*
X128300041Y-63863100D01*
X128382776Y-63986922D01*
X128488078Y-64092224D01*
X128611900Y-64174959D01*
X128749483Y-64231947D01*
X128895540Y-64261000D01*
X129044460Y-64261000D01*
X129190517Y-64231947D01*
X129328100Y-64174959D01*
X129451922Y-64092224D01*
X129557224Y-63986922D01*
X129639959Y-63863100D01*
X129696947Y-63725517D01*
X129726000Y-63579460D01*
X129726000Y-63430540D01*
X129696947Y-63284483D01*
X129639959Y-63146900D01*
X129557224Y-63023078D01*
X129451922Y-62917776D01*
X129328100Y-62835041D01*
X129190517Y-62778053D01*
X129044460Y-62749000D01*
X128895540Y-62749000D01*
X128749483Y-62778053D01*
X128611900Y-62835041D01*
X128488078Y-62917776D01*
X128425062Y-62980792D01*
X128519351Y-62839678D01*
X128593301Y-62661147D01*
X128631000Y-62471620D01*
X128631000Y-62278380D01*
X128615472Y-62200314D01*
X137894000Y-62200314D01*
X137894000Y-62319686D01*
X137917288Y-62436764D01*
X137962970Y-62547049D01*
X138029289Y-62646302D01*
X138113698Y-62730711D01*
X138212951Y-62797030D01*
X138323236Y-62842712D01*
X138440314Y-62866000D01*
X138559686Y-62866000D01*
X138676764Y-62842712D01*
X138787049Y-62797030D01*
X138886302Y-62730711D01*
X138970711Y-62646302D01*
X139037030Y-62547049D01*
X139082712Y-62436764D01*
X139106000Y-62319686D01*
X139106000Y-62200314D01*
X139082712Y-62083236D01*
X139037030Y-61972951D01*
X138970711Y-61873698D01*
X138886302Y-61789289D01*
X138787049Y-61722970D01*
X138676764Y-61677288D01*
X138559686Y-61654000D01*
X138440314Y-61654000D01*
X138323236Y-61677288D01*
X138212951Y-61722970D01*
X138113698Y-61789289D01*
X138029289Y-61873698D01*
X137962970Y-61972951D01*
X137917288Y-62083236D01*
X137894000Y-62200314D01*
X128615472Y-62200314D01*
X128593301Y-62088853D01*
X128519351Y-61910322D01*
X128411993Y-61749649D01*
X128275351Y-61613007D01*
X128114678Y-61505649D01*
X127936147Y-61431699D01*
X127746620Y-61394000D01*
X127553380Y-61394000D01*
X127363853Y-61431699D01*
X127185322Y-61505649D01*
X127024649Y-61613007D01*
X126888007Y-61749649D01*
X126780649Y-61910322D01*
X126706699Y-62088853D01*
X126669000Y-62278380D01*
X126091000Y-62278380D01*
X126053301Y-62088853D01*
X125979351Y-61910322D01*
X125871993Y-61749649D01*
X125735351Y-61613007D01*
X125574678Y-61505649D01*
X125396147Y-61431699D01*
X125206620Y-61394000D01*
X125013380Y-61394000D01*
X124823853Y-61431699D01*
X124645322Y-61505649D01*
X124484649Y-61613007D01*
X124348007Y-61749649D01*
X124240649Y-61910322D01*
X124166699Y-62088853D01*
X124129000Y-62278380D01*
X123551000Y-62278380D01*
X123513301Y-62088853D01*
X123439351Y-61910322D01*
X123331993Y-61749649D01*
X123195351Y-61613007D01*
X123034678Y-61505649D01*
X122856147Y-61431699D01*
X122666620Y-61394000D01*
X122473380Y-61394000D01*
X122283853Y-61431699D01*
X122105322Y-61505649D01*
X121944649Y-61613007D01*
X121808007Y-61749649D01*
X121700649Y-61910322D01*
X121626699Y-62088853D01*
X121589000Y-62278380D01*
X100456000Y-62278380D01*
X100456000Y-60456000D01*
X149544000Y-60456000D01*
X149544001Y-109544000D01*
G37*
G04 #@! TD.AperFunction*
M02*
