M48
; DRILL file {KiCad 5.1.10-88a1d61d58~90~ubuntu20.04.1} date Mon Oct 18 20:01:56 2021
; FORMAT={-:-/ absolute / metric / decimal}
; #@! TF.CreationDate,2021-10-18T20:01:56+01:00
; #@! TF.GenerationSoftware,Kicad,Pcbnew,5.1.10-88a1d61d58~90~ubuntu20.04.1
; #@! TF.FileFunction,Plated,1,4,PTH
FMAT,2
METRIC
T1C0.200
T2C0.600
T3C1.000
%
G90
G05
T1
X101.2Y-61.165
X101.2Y-64.567
X101.2Y-67.97
X101.2Y-71.373
X101.2Y-74.775
X101.2Y-78.177
X101.2Y-81.58
X101.2Y-84.983
X101.2Y-88.385
X101.2Y-91.787
X101.2Y-95.19
X101.2Y-98.593
X101.2Y-101.995
X101.2Y-105.397
X101.2Y-108.8
X101.78Y-71.885
X102.02Y-83.815
X102.04Y-89.245
X102.1Y-70.175
X102.575Y-74.375
X102.585Y-73.375
X103.3Y-68.925
X104.5Y-66.615
X104.602Y-108.8
X104.81Y-72.365
X104.81Y-89.245
X104.83Y-74.535
X104.88Y-83.805
X105.17Y-61.165
X105.38Y-69.845
X105.48Y-71.885
X105.53Y-74.34
X105.59Y-72.82
X105.825Y-70.5
X105.86Y-69.285
X105.95Y-83.185
X105.97Y-90.015
X106.275Y-71.925
X106.37Y-77.855
X106.93Y-79.665
X107.18Y-70.41
X107.725Y-74.325
X107.79Y-65.505
X107.8Y-66.275
X107.84Y-79.655
X107.95Y-84.315
X107.95Y-85.395
X107.95Y-87.585
X107.96Y-88.725
X107.96Y-89.795
X107.97Y-90.905
X107.97Y-91.995
X107.97Y-94.165
X107.98Y-95.315
X108.005Y-108.8
X108.18Y-96.005
X108.2Y-69.9
X108.8Y-66.275
X108.81Y-65.505
X108.83Y-79.635
X109.139Y-74.32
X109.139Y-61.165
X109.33Y-69.9
X109.46Y-90.855
X109.46Y-92.945
X109.47Y-86.645
X109.47Y-88.745
X109.48Y-84.545
X109.48Y-95.075
X109.575Y-76.3
X109.81Y-79.635
X110.18Y-84.535
X110.18Y-95.065
X110.2Y-86.645
X110.2Y-88.745
X110.21Y-90.855
X110.22Y-92.945
X110.38Y-96.005
X111.34Y-70.135
X111.407Y-108.8
X111.48Y-83.585
X111.52Y-71.185
X111.58Y-66.565
X111.77Y-69.31
X111.99Y-84.545
X112.55Y-71.25
X112.58Y-96.005
X113.07Y-95.025
X113.109Y-61.165
X113.54Y-70.215
X113.54Y-71.11
X114.15Y-73.315
X114.81Y-108.8
X115.98Y-79.735
X116.078Y-99.75
X116.1Y-100.58
X116.13Y-85.095
X116.15Y-98.8
X116.44Y-105.84
X116.68Y-95.025
X116.835Y-78.445
X116.98Y-96.005
X117.078Y-61.165
X117.29Y-105.83
X117.62Y-79.705
X117.64Y-80.515
X117.8Y-62.255
X117.81Y-74.255
X118.212Y-108.8
X118.42Y-85.375
X119.17Y-82.115
X119.9Y-79.715
X119.91Y-80.525
X120.56Y-105.84
X120.86Y-100.095
X121.048Y-61.165
X121.17Y-79.095
X121.24Y-89.215
X121.35Y-105.85
X121.615Y-108.8
X121.84Y-77.065
X121.86Y-78.045
X122.42Y-75.175
X122.5Y-84.005
X122.5Y-96.015
X122.77Y-95.045
X123.1Y-89.275
X123.74Y-96.22
X124.55Y-78.335
X125.017Y-61.165
X125.017Y-108.8
X125.12Y-92.235
X125.83Y-85.085
X125.86Y-95.545
X126.06Y-102.155
X126.58Y-91.415
X126.73Y-78.325
X127.02Y-96.23
X127.08Y-95.065
X127.1Y-93.015
X127.62Y-87.165
X127.63Y-85.075
X127.82Y-91.395
X128.15Y-89.285
X128.42Y-108.8
X128.52Y-100.795
X128.92Y-89.275
X128.987Y-61.165
X129.43Y-85.095
X129.45Y-87.175
X129.59Y-95.595
X129.9Y-93.925
X129.95Y-92.995
X129.96Y-90.855
X130.08Y-77.525
X130.13Y-62.255
X130.14Y-74.165
X130.24Y-84.085
X130.39Y-86.545
X130.39Y-95.255
X131.24Y-83.14
X131.822Y-108.8
X132.77Y-98.245
X132.957Y-61.165
X133.43Y-94.995
X133.49Y-91.225
X133.625Y-93.3
X134.27Y-83.975
X134.78Y-81.37
X134.79Y-80.2
X134.99Y-92.865
X135.01Y-94.995
X135.225Y-108.8
X135.28Y-82.595
X135.73Y-93.145
X135.77Y-93.925
X136.35Y-94.525
X136.36Y-67.675
X136.58Y-93.805
X136.87Y-98.275
X136.926Y-61.165
X137.33Y-87.11
X137.35Y-85.185
X137.49Y-67.685
X137.65Y-97.7
X137.7Y-62.255
X137.76Y-88.105
X138.31Y-85.175
X138.35Y-89.285
X138.5Y-62.26
X138.627Y-108.8
X138.78Y-88.12
X139.14Y-85.175
X139.29Y-89.285
X139.79Y-88.112
X139.93Y-85.195
X140.29Y-89.305
X140.71Y-85.195
X140.81Y-88.1
X140.896Y-61.165
X141.23Y-89.305
X141.46Y-76.295
X142.03Y-108.8
X142.35Y-65.065
X143.13Y-76.29
X144.865Y-61.165
X145.433Y-108.8
X145.625Y-83.5
X145.63Y-82.7
X145.64Y-80.97
X145.64Y-81.78
X148.32Y-77.555
X148.835Y-61.165
X148.835Y-64.567
X148.835Y-67.97
X148.835Y-71.373
X148.835Y-74.775
X148.835Y-78.177
X148.835Y-81.58
X148.835Y-84.983
X148.835Y-88.385
X148.835Y-91.787
X148.835Y-95.19
X148.835Y-98.593
X148.835Y-101.995
X148.835Y-105.397
X148.835Y-108.8
T3
X103.265Y-77.53
X103.265Y-80.03
T2
G00X103.726Y-62.485
M15
G01X103.726Y-61.885
M16
G05
G00X103.726Y-66.915
M15
G01X103.726Y-65.815
M16
G05
G00X112.366Y-62.485
M15
G01X112.366Y-61.885
M16
G05
G00X112.366Y-66.915
M15
G01X112.366Y-65.815
M16
G05
T0
M30
